<?xml version="1.0" encoding="UTF-8"?>
<svg version="1.1" xmlns="http://www.w3.org/2000/svg" width="350" height="350">
<path d="M0 0 C0.93317582 -0.00200755 1.86635164 -0.0040151 2.82780552 -0.00608349 C5.9512294 -0.00902323 9.07414602 0.00962342 12.19750977 0.02832031 C14.40942278 0.03083771 16.62133751 0.03210938 18.83325195 0.0322113 C24.78562773 0.03671239 30.73777326 0.06059152 36.69007492 0.08953476 C41.60651627 0.112012 46.52296742 0.1257961 51.43943882 0.13986111 C63.77877833 0.17581248 76.11790677 0.233986 88.45710087 0.30306149 C96.11536431 0.34482665 103.77352432 0.37223168 111.43188477 0.38720703 C120.45426469 0.40494613 129.47616537 0.44747856 138.49832153 0.51306152 C141.75006211 0.5359595 145.00156899 0.5480134 148.25338745 0.55090332 C152.02478454 0.55502505 155.79524443 0.58271343 159.56634521 0.62962532 C161.56269524 0.64872231 163.55923182 0.6435952 165.55566406 0.63755798 C174.13583835 0.78065636 174.13583835 0.78065636 178.17993164 3.63574219 C179.72911322 6.01502547 180.8387943 7.88298977 181.61157227 10.59472656 C181.96312378 11.80660645 181.96312378 11.80660645 182.32177734 13.04296875 C182.55018311 13.90954102 182.77858887 14.77611328 183.01391602 15.66894531 C183.26359131 16.58321289 183.5132666 17.49748047 183.77050781 18.43945312 C188.06339255 34.7825164 190.54800727 51.46828842 190.95141602 68.35644531 C190.97977539 69.28585938 191.00813477 70.21527344 191.03735352 71.17285156 C191.07908902 73.90652678 191.02919847 76.62345282 190.95141602 79.35644531 C190.93884766 79.99146973 190.9262793 80.62649414 190.91333008 81.28076172 C190.37116771 105.37379366 187.15068667 146.15717465 168.95141602 164.35644531 C166.25170898 164.56933594 166.25170898 164.56933594 162.81860352 164.51269531 C160.92126465 164.485625 160.92126465 164.485625 158.9855957 164.45800781 C157.64082192 164.4260844 156.29609266 164.39222745 154.95141602 164.35644531 C153.04344238 164.30617187 153.04344238 164.30617187 151.09692383 164.25488281 C147.7835948 164.15500854 144.47093886 164.04536252 141.15817261 163.92892456 C126.75207972 163.42735642 112.36727158 163.2202292 97.95141602 163.35644531 C103.80624271 170.41973394 103.80624271 170.41973394 111.93188477 173.57519531 C113.94244704 173.17148928 115.94003442 172.6983477 117.92016602 172.16503906 C131.67004402 168.49722367 145.58423272 173.33875557 157.43969727 180.19238281 C168.83910892 187.08048574 179.03527795 196.74548244 183.95141602 209.35644531 C184.20141602 212.85644531 184.20141602 212.85644531 183.95141602 215.35644531 C184.65266602 215.54207031 185.35391602 215.72769531 186.07641602 215.91894531 C191.44749467 218.60448464 194.70510867 223.0125151 196.76391602 228.60644531 C199.35371702 237.67074883 200.10672671 246.90813764 195.87719727 255.55175781 C192.72839164 260.93552012 189.54623989 264.39539943 183.57641602 266.60644531 C177.2256993 267.9203867 172.58073632 267.87081717 166.87719727 264.75878906 C161.2023453 260.62639179 157.95829859 254.48466387 156.32641602 247.79394531 C155.15339257 237.04123038 155.57282851 227.8144473 162.32641602 218.91894531 C165.36645784 215.95128543 168.53276978 213.35644531 172.95141602 213.35644531 C166.05867189 198.81740947 156.58718485 189.91956674 141.38891602 183.98144531 C133.71042591 181.55243275 125.90455168 182.01721204 117.95141602 182.35644531 C118.37293945 182.81535156 118.79446289 183.27425781 119.22875977 183.74707031 C120.05053711 184.66746094 120.05053711 184.66746094 120.88891602 185.60644531 C121.43418945 186.20972656 121.97946289 186.81300781 122.54125977 187.43457031 C124.95636034 190.72606472 124.95636034 190.72606472 124.95141602 193.35644531 C122.98591401 195.97418873 121.37632752 198.03108796 118.06952095 198.78614807 C115.76860593 198.9133167 113.52005542 198.87849454 111.21728516 198.78808594 C110.34837143 198.77412781 109.4794577 198.76016968 108.58421326 198.74578857 C105.71718217 198.69311404 102.85262389 198.60367279 99.98657227 198.51269531 C97.99031163 198.46607644 95.99400711 198.42130325 93.99766541 198.3782959 C89.81507948 198.28275748 85.63343777 198.16992233 81.45166016 198.04394531 C76.09778915 197.8833241 70.74382551 197.7577708 65.38877201 197.64420319 C61.26631935 197.55423329 57.14434489 197.44958986 53.02236748 197.34013367 C51.04853765 197.28872601 49.07461014 197.24093479 47.1006031 197.19685364 C44.33809031 197.13216775 41.5767727 197.04870551 38.81494141 196.95996094 C38.00280182 196.94419006 37.19066223 196.92841919 36.35391235 196.91217041 C31.3630905 196.72671266 26.68553106 196.09056036 22.95141602 192.35644531 C22.64282227 190.04394531 22.64282227 190.04394531 22.95141602 187.35644531 C24.54125977 185.35644531 24.54125977 185.35644531 26.88891602 183.35644531 C28.23856445 182.20595703 28.23856445 182.20595703 29.61547852 181.03222656 C35.62064149 176.15979632 41.7942548 171.49803836 47.98193359 166.86108398 C50.33529553 165.06317031 52.6409962 163.20909133 54.95141602 161.35644531 C54.19021957 161.33583038 53.42902313 161.31521545 52.64476013 161.29397583 C45.4504625 161.09753877 38.25648725 160.89244466 31.06271267 160.6777668 C27.36483936 160.567716 23.66693349 160.4609453 19.96875 160.36181641 C16.395853 160.26592257 12.82331026 160.16122237 9.25084114 160.05056381 C7.89187576 160.00998939 6.53281378 159.97252065 5.17367363 159.93829727 C-9.21757226 159.57181843 -9.21757226 159.57181843 -14.04858398 157.35644531 C-15.5300293 155.19604492 -15.5300293 155.19604492 -16.37670898 152.50878906 C-16.70018311 151.5189502 -17.02365723 150.52911133 -17.35693359 149.50927734 C-17.82305054 147.91768799 -17.82305054 147.91768799 -18.29858398 146.29394531 C-18.63575439 145.21226074 -18.9729248 144.13057617 -19.3203125 143.01611328 C-21.98279153 134.22022587 -23.92905929 125.47918371 -25.04858398 116.35644531 C-25.13994629 115.68129883 -25.23130859 115.00615234 -25.32543945 114.31054688 C-26.38292012 105.53025281 -26.29238271 96.68706148 -26.29858398 87.85644531 C-26.29925873 86.99229004 -26.29993347 86.12813477 -26.30062866 85.23779297 C-26.22098628 20.77361353 -26.22098628 20.77361353 -10.70606899 1.70656204 C-7.71073189 -0.73331205 -3.70221417 -0.03879083 0 0 Z " fill="#FEFEFE" transform="translate(82.048583984375,54.6435546875)"/>
<path d="M0 0 C0.93317582 -0.00200755 1.86635164 -0.0040151 2.82780552 -0.00608349 C5.9512294 -0.00902323 9.07414602 0.00962342 12.19750977 0.02832031 C14.40942278 0.03083771 16.62133751 0.03210938 18.83325195 0.0322113 C24.78562773 0.03671239 30.73777326 0.06059152 36.69007492 0.08953476 C41.60651627 0.112012 46.52296742 0.1257961 51.43943882 0.13986111 C63.77877833 0.17581248 76.11790677 0.233986 88.45710087 0.30306149 C96.11536431 0.34482665 103.77352432 0.37223168 111.43188477 0.38720703 C120.45426469 0.40494613 129.47616537 0.44747856 138.49832153 0.51306152 C141.75006211 0.5359595 145.00156899 0.5480134 148.25338745 0.55090332 C152.02478454 0.55502505 155.79524443 0.58271343 159.56634521 0.62962532 C161.56269524 0.64872231 163.55923182 0.6435952 165.55566406 0.63755798 C174.13583835 0.78065636 174.13583835 0.78065636 178.17993164 3.63574219 C179.72911322 6.01502547 180.8387943 7.88298977 181.61157227 10.59472656 C181.96312378 11.80660645 181.96312378 11.80660645 182.32177734 13.04296875 C182.55018311 13.90954102 182.77858887 14.77611328 183.01391602 15.66894531 C183.26359131 16.58321289 183.5132666 17.49748047 183.77050781 18.43945312 C188.06339255 34.7825164 190.54800727 51.46828842 190.95141602 68.35644531 C190.97977539 69.28585938 191.00813477 70.21527344 191.03735352 71.17285156 C191.07908902 73.90652678 191.02919847 76.62345282 190.95141602 79.35644531 C190.93884766 79.99146973 190.9262793 80.62649414 190.91333008 81.28076172 C190.37116771 105.37379366 187.15068667 146.15717465 168.95141602 164.35644531 C166.25170898 164.56933594 166.25170898 164.56933594 162.81860352 164.51269531 C160.92126465 164.485625 160.92126465 164.485625 158.9855957 164.45800781 C157.64082192 164.4260844 156.29609266 164.39222745 154.95141602 164.35644531 C153.04344238 164.30617187 153.04344238 164.30617187 151.09692383 164.25488281 C147.7835948 164.15500854 144.47093886 164.04536252 141.15817261 163.92892456 C126.75207972 163.42735642 112.36727158 163.2202292 97.95141602 163.35644531 C103.80624271 170.41973394 103.80624271 170.41973394 111.93188477 173.57519531 C113.94244704 173.17148928 115.94003442 172.6983477 117.92016602 172.16503906 C131.67004402 168.49722367 145.58423272 173.33875557 157.43969727 180.19238281 C168.83910892 187.08048574 179.03527795 196.74548244 183.95141602 209.35644531 C184.20141602 212.85644531 184.20141602 212.85644531 183.95141602 215.35644531 C184.65266602 215.54207031 185.35391602 215.72769531 186.07641602 215.91894531 C191.44749467 218.60448464 194.70510867 223.0125151 196.76391602 228.60644531 C199.35371702 237.67074883 200.10672671 246.90813764 195.87719727 255.55175781 C192.72839164 260.93552012 189.54623989 264.39539943 183.57641602 266.60644531 C177.2256993 267.9203867 172.58073632 267.87081717 166.87719727 264.75878906 C161.2023453 260.62639179 157.95829859 254.48466387 156.32641602 247.79394531 C155.15339257 237.04123038 155.57282851 227.8144473 162.32641602 218.91894531 C165.36645784 215.95128543 168.53276978 213.35644531 172.95141602 213.35644531 C166.05867189 198.81740947 156.58718485 189.91956674 141.38891602 183.98144531 C133.71042591 181.55243275 125.90455168 182.01721204 117.95141602 182.35644531 C118.37293945 182.81535156 118.79446289 183.27425781 119.22875977 183.74707031 C120.05053711 184.66746094 120.05053711 184.66746094 120.88891602 185.60644531 C121.43418945 186.20972656 121.97946289 186.81300781 122.54125977 187.43457031 C124.95636034 190.72606472 124.95636034 190.72606472 124.95141602 193.35644531 C122.98591401 195.97418873 121.37632752 198.03108796 118.06952095 198.78614807 C115.76860593 198.9133167 113.52005542 198.87849454 111.21728516 198.78808594 C110.34837143 198.77412781 109.4794577 198.76016968 108.58421326 198.74578857 C105.71718217 198.69311404 102.85262389 198.60367279 99.98657227 198.51269531 C97.99031163 198.46607644 95.99400711 198.42130325 93.99766541 198.3782959 C89.81507948 198.28275748 85.63343777 198.16992233 81.45166016 198.04394531 C76.09778915 197.8833241 70.74382551 197.7577708 65.38877201 197.64420319 C61.26631935 197.55423329 57.14434489 197.44958986 53.02236748 197.34013367 C51.04853765 197.28872601 49.07461014 197.24093479 47.1006031 197.19685364 C44.33809031 197.13216775 41.5767727 197.04870551 38.81494141 196.95996094 C38.00280182 196.94419006 37.19066223 196.92841919 36.35391235 196.91217041 C31.3630905 196.72671266 26.68553106 196.09056036 22.95141602 192.35644531 C22.64282227 190.04394531 22.64282227 190.04394531 22.95141602 187.35644531 C24.54125977 185.35644531 24.54125977 185.35644531 26.88891602 183.35644531 C28.23856445 182.20595703 28.23856445 182.20595703 29.61547852 181.03222656 C35.62064149 176.15979632 41.7942548 171.49803836 47.98193359 166.86108398 C50.33529553 165.06317031 52.6409962 163.20909133 54.95141602 161.35644531 C54.19021957 161.33583038 53.42902313 161.31521545 52.64476013 161.29397583 C45.4504625 161.09753877 38.25648725 160.89244466 31.06271267 160.6777668 C27.36483936 160.567716 23.66693349 160.4609453 19.96875 160.36181641 C16.395853 160.26592257 12.82331026 160.16122237 9.25084114 160.05056381 C7.89187576 160.00998939 6.53281378 159.97252065 5.17367363 159.93829727 C-9.21757226 159.57181843 -9.21757226 159.57181843 -14.04858398 157.35644531 C-15.5300293 155.19604492 -15.5300293 155.19604492 -16.37670898 152.50878906 C-16.70018311 151.5189502 -17.02365723 150.52911133 -17.35693359 149.50927734 C-17.82305054 147.91768799 -17.82305054 147.91768799 -18.29858398 146.29394531 C-18.63575439 145.21226074 -18.9729248 144.13057617 -19.3203125 143.01611328 C-21.98279153 134.22022587 -23.92905929 125.47918371 -25.04858398 116.35644531 C-25.13994629 115.68129883 -25.23130859 115.00615234 -25.32543945 114.31054688 C-26.38292012 105.53025281 -26.29238271 96.68706148 -26.29858398 87.85644531 C-26.29925873 86.99229004 -26.29993347 86.12813477 -26.30062866 85.23779297 C-26.22098628 20.77361353 -26.22098628 20.77361353 -10.70606899 1.70656204 C-7.71073189 -0.73331205 -3.70221417 -0.03879083 0 0 Z M-6.04858398 8.35644531 C-10.15598667 21.78818631 -10.15598667 21.78818631 -13.23608398 35.48144531 C-13.39625 36.35792725 -13.55641602 37.23440918 -13.72143555 38.13745117 C-16.58960517 54.61190204 -17.23220997 71.04463058 -17.29858398 87.73144531 C-17.30394165 88.48104523 -17.30929932 89.23064514 -17.31481934 90.00296021 C-17.39231822 104.28291322 -16.20830833 118.31164101 -13.17358398 132.29394531 C-13.0253418 133.03966797 -12.87709961 133.78539062 -12.72436523 134.55371094 C-11.83200343 138.76522335 -10.60215033 142.65097382 -8.97387695 146.63989258 C-8.61341278 147.52709488 -8.25294861 148.41429718 -7.88156128 149.3283844 C-7.60667877 149.9976445 -7.33179626 150.6669046 -7.04858398 151.35644531 C15.25763372 152.35833851 37.5730742 152.81861864 59.89532471 153.29394531 C67.60820887 153.45840804 75.32103438 153.62558405 83.03382874 153.7942028 C84.92749248 153.83559901 86.82115906 153.87686576 88.71482849 153.91800117 C103.25413931 154.23481832 117.79122511 154.60681675 132.32736206 155.04626465 C143.20441157 155.36983298 154.07039858 155.47138564 164.95141602 155.35644531 C174.91618056 132.92854587 181.01952861 108.7096591 181.15454102 84.06347656 C181.16155533 83.20308777 181.16856964 82.34269897 181.17579651 81.45623779 C181.1932087 78.69375317 181.19964886 75.9314828 181.20141602 73.16894531 C181.20209076 72.22614716 181.2027655 71.283349 181.20346069 70.3119812 C182.34599958 38.16006496 182.34599958 38.16006496 171.95141602 9.35644531 C168.93644689 9.23071449 165.94336762 9.1702548 162.92700195 9.15112305 C161.97329618 9.14122628 161.0195904 9.13132952 160.03698444 9.12113285 C156.83661253 9.08924529 153.63622708 9.06458175 150.43579102 9.04003906 C148.17898736 9.01936169 145.92218703 8.99831802 143.66539001 8.97692871 C137.59895235 8.92094128 131.53247735 8.87166168 125.46596909 8.82401657 C121.71913003 8.79408681 117.97231204 8.76225865 114.22549438 8.72976685 C74.133569 8.38293587 34.04464604 8.2133977 -6.04858398 8.35644531 Z " fill="#B7D2E7" transform="translate(82.048583984375,54.6435546875)"/>
<path d="M0 0 C2.80874096 -0.24323319 5.38920714 -0.29530157 8.19360352 -0.21264648 C9.45955652 -0.19331763 9.45955652 -0.19331763 10.75108433 -0.17359829 C12.56802839 -0.14403396 14.38487098 -0.10760132 16.20155716 -0.0650444 C18.93527306 -0.00150445 21.66863412 0.04355571 24.40280151 0.08248901 C30.23641066 0.16915815 36.06928619 0.28485494 41.90234375 0.40234375 C44.0758084 0.44490867 46.24927546 0.48735069 48.42274475 0.52967834 C52.96015821 0.61845329 57.49754365 0.70851567 62.03491211 0.79956055 C66.60617312 0.89122644 71.17745852 0.98143325 75.7487793 1.07006836 C87.80740919 1.30392514 99.86574138 1.54704404 111.92377281 1.81009483 C117.77065528 1.93628217 123.61747608 2.0466641 129.46497631 2.13981152 C132.86190869 2.19608807 136.25854965 2.26364261 139.65521431 2.33410835 C141.20188118 2.36360878 142.74865357 2.38807483 144.29548454 2.40711784 C146.38572485 2.433379 148.47486908 2.47728159 150.56469727 2.52563477 C152.29853416 2.55476707 152.29853416 2.55476707 154.06739807 2.58448792 C157.31790954 3.04504371 158.74799705 3.62648291 161 6 C161.36856448 9.06932843 161.48940491 11.77388594 161.42578125 14.83984375 C161.42084908 16.15584312 161.42084908 16.15584312 161.41581726 17.49842834 C161.4000545 20.31194892 161.35606905 23.12428743 161.3125 25.9375 C161.30100543 27.79751616 161.29122122 29.65754373 161.28320312 31.51757812 C161.10503701 58.89516255 161.10503701 58.89516255 157 63 C154.04063416 63.46104431 154.04063416 63.46104431 150.36694336 63.40600586 C149.69685053 63.40156778 149.0267577 63.39712971 148.33635902 63.39255714 C146.10769209 63.37313925 143.88056711 63.32520413 141.65234375 63.27734375 C140.0747231 63.2580287 138.49707888 63.2405602 136.91941833 63.22483826 C133.60949132 63.18851452 130.30004005 63.14040525 126.99041748 63.08270264 C122.22957826 63.00052039 117.46885833 62.94914146 112.70751953 62.90673828 C103.32544078 62.81929869 93.94403848 62.69499372 84.5625 62.5625 C83.33684893 62.54530537 83.33684893 62.54530537 82.08643723 62.52776337 C72.26813727 62.38983356 62.44994554 62.24547769 52.63179684 62.09720993 C46.68852668 62.00830048 40.74513822 61.93266095 34.801651 61.85966492 C30.64948115 61.80577273 26.49758589 61.73994735 22.34567261 61.66915894 C20.50942088 61.64002423 18.67308439 61.61576917 16.83670044 61.59671021 C14.37115328 61.57019771 11.90658548 61.52592797 9.44140625 61.4765625 C8.74619873 61.47334488 8.05099121 61.47012726 7.3347168 61.46681213 C3.0092982 61.35430184 0.59011356 60.31335785 -3 58 C-2.90782202 50.2218657 -2.80052833 42.44404628 -2.68261719 34.66625977 C-2.64428421 32.01917275 -2.60943906 29.37203287 -2.578125 26.72485352 C-2.53256855 22.92444944 -2.47455803 19.12441068 -2.4140625 15.32421875 C-2.40251129 14.13664474 -2.39096008 12.94907074 -2.37905884 11.72550964 C-2.35918915 10.62459488 -2.33931946 9.52368011 -2.31884766 8.3894043 C-2.30552399 7.41899704 -2.29220032 6.44858978 -2.2784729 5.44877625 C-2 3 -2 3 0 0 Z " fill="#B8D3E7" transform="translate(63,265)"/>
<path d="M0 0 C9.22914598 -0.03292844 18.45830404 -0.05170397 27.6875 -0.0625 C28.41372433 -0.06335602 29.13994865 -0.06421204 29.88817978 -0.06509399 C62.53133219 -0.09878511 95.17109622 0.18622189 127.8125 0.5 C129.67900522 0.51793673 129.67900522 0.51793673 131.58321762 0.53623581 C147.05553372 0.6854198 162.52779093 0.84011307 178 1 C178.48694761 2.28488788 178.97262006 3.57025909 179.45774841 4.85583496 C179.72834296 5.57157433 179.99893751 6.28731369 180.2777319 7.02474213 C181.53017653 10.44992608 182.2879308 13.94271925 183.0625 17.5 C183.22298828 18.18835938 183.38347656 18.87671875 183.54882812 19.5859375 C186.79290486 34.22988227 187.3719578 48.75390535 187.3125 63.6875 C187.31100952 64.61342957 187.30951904 65.53935913 187.3079834 66.49334717 C187.26930318 79.85158956 186.92712195 92.91224007 184 106 C183.8448291 106.71639648 183.6896582 107.43279297 183.52978516 108.17089844 C182.5001404 112.82476679 181.29932109 117.41300281 180 122 C179.6803125 123.13953125 179.360625 124.2790625 179.03125 125.453125 C176.85290504 132.86652479 174.08223805 139.92020138 171 147 C154.04971319 147.16535073 137.12506178 146.70328846 120.18460083 146.20236206 C112.07902607 145.96278913 103.97313799 145.73427066 95.8671875 145.5078125 C94.65479873 145.47385659 94.65479873 145.47385659 93.41791725 145.43921471 C78.30082738 145.01769204 63.18323157 144.70028109 48.0625 144.4375 C31.69705221 144.15217852 15.35084074 143.7778234 -1 143 C-4.19907794 135.080971 -6.56895025 127.24847086 -8.25 118.875 C-8.41274414 118.07739258 -8.57548828 117.27978516 -8.74316406 116.45800781 C-15.85135429 79.3173366 -12.05357139 35.50594429 0 0 Z M12 15 C11.69347433 17.13101716 11.69347433 17.13101716 11.73930359 19.62413025 C11.73221878 20.59858597 11.72513397 21.57304169 11.71783447 22.57702637 C11.72031189 23.64980835 11.72278931 24.72259033 11.7253418 25.82788086 C11.72023087 26.95476822 11.71511993 28.08165558 11.70985413 29.24269104 C11.69590587 32.983462 11.69691884 36.72404981 11.69921875 40.46484375 C11.69533471 43.05554778 11.69100066 45.64625118 11.68623352 48.23695374 C11.67876004 53.67353648 11.67893321 59.11004771 11.68432617 64.54663086 C11.69036687 70.83373629 11.67805468 77.12061797 11.6567561 83.40768522 C11.63703197 89.45186111 11.63396446 95.4959196 11.63749123 101.54013252 C11.63697646 104.11383146 11.63170989 106.68753386 11.62167931 109.2612133 C11.60939212 112.85522752 11.61606048 116.44871923 11.62768555 120.04272461 C11.62004181 121.11348236 11.61239807 122.18424011 11.60452271 123.28744507 C11.61153702 124.26472061 11.61855133 125.24199615 11.6257782 126.24888611 C11.62561046 127.09894698 11.62544271 127.94900785 11.62526989 128.82482815 C12.08541215 131.49578645 12.86385166 132.37874661 15 134 C17.35360764 134.49115503 17.35360764 134.49115503 20.0625 134.4765625 C21.14362061 134.50685547 22.22474121 134.53714844 23.33862305 134.56835938 C25.15100464 134.59639648 25.15100464 134.59639648 27 134.625 C28.28366455 134.65658203 29.5673291 134.68816406 30.88989258 134.72070312 C34.7001494 134.81298757 38.51058287 134.88424988 42.3213501 134.95178223 C47.34326123 135.04218052 52.36496631 135.14342938 57.38671875 135.2421875 C64.08000919 135.37326155 70.77331937 135.5021085 77.46679688 135.62329102 C88.31895082 135.82297605 99.1567305 136.07195013 110 136.5625 C121.0206152 137.03146235 132.04356949 137.17034166 143.07299805 137.23117065 C145.05610899 137.24366126 147.03919522 137.26112811 149.0222168 137.28372192 C151.79752119 137.31346905 154.5722108 137.32348994 157.34765625 137.328125 C158.61428856 137.34657722 158.61428856 137.34657722 159.9065094 137.36540222 C162.49175746 137.39111806 162.49175746 137.39111806 166 137 C170.51067146 130.23399281 169.25253277 120.46928861 169.44555664 112.55722809 C169.50105701 110.28484737 169.56146441 108.01264104 169.62304688 105.74041748 C169.7530557 100.91038766 169.87682091 96.08020809 170 91.25 C170.14301563 85.65982074 170.28869095 80.06972867 170.43969727 74.47975922 C170.49843463 72.26222311 170.55305431 70.0446122 170.60742188 67.82696533 C170.79240579 60.70072473 171.11053892 53.61873166 171.78242493 46.51998901 C173.33025409 30.88329964 173.33025409 30.88329964 170 16 C166.15392261 13.16885991 163.41038228 12.62506092 158.67964172 12.6257782 C157.40512146 12.61876389 156.1306012 12.61174957 154.81745911 12.60452271 C153.41256555 12.61194964 152.00767358 12.61968076 150.6027832 12.62768555 C149.11762233 12.6252566 147.63246308 12.62153628 146.14730835 12.61662292 C142.12065152 12.60722675 138.09423828 12.61662725 134.06760049 12.62995505 C129.8551405 12.64127561 125.64269239 12.63716174 121.43022156 12.63520813 C114.35960917 12.63432564 107.28909276 12.64539861 100.21850586 12.66381836 C92.03696159 12.68500985 83.85555766 12.6884904 75.6739915 12.6822564 C67.8074904 12.67656884 59.94103886 12.68219962 52.07454491 12.69342995 C48.72409336 12.69808151 45.37367206 12.69894742 42.02321815 12.6968441 C38.08254214 12.69496522 34.1420097 12.70303404 30.20136642 12.7189045 C28.75251929 12.72315871 27.30365762 12.7239903 25.8548069 12.72121429 C23.88300044 12.71800851 21.91118555 12.72826962 19.93940735 12.73930359 C18.28162498 12.74238289 18.28162498 12.74238289 16.59035206 12.74552441 C13.83759942 12.73934331 13.83759942 12.73934331 12 15 Z " fill="#FDFEFE" transform="translate(76,63)"/>
<path d="M0 0 C1.26606079 -0.00708481 2.53212158 -0.01416962 3.83654785 -0.02146912 C5.24757421 -0.01917505 6.65860022 -0.01666532 8.06962585 -0.01396179 C9.54947671 -0.01830705 11.0293253 -0.02348957 12.50917053 -0.02944946 C16.53614412 -0.04287341 20.56302404 -0.04341419 24.59001565 -0.04088616 C27.94981622 -0.03981837 31.3095977 -0.04469509 34.6693942 -0.04949158 C42.59660175 -0.06059931 50.52376193 -0.06101761 58.45097351 -0.05497742 C66.63071906 -0.04894058 74.81029248 -0.06123831 82.99000865 -0.08254749 C90.00918847 -0.10016145 97.02831351 -0.10616502 104.04751462 -0.10290974 C108.24122015 -0.10109581 112.434803 -0.10374357 116.62848854 -0.11762428 C120.57409079 -0.13019409 124.51942494 -0.12826667 128.46502304 -0.11521339 C129.91261447 -0.11284589 131.3602247 -0.11558855 132.80779457 -0.12383652 C134.78524986 -0.13429029 136.7627814 -0.12440829 138.74023438 -0.11352539 C140.39971336 -0.113777 140.39971336 -0.113777 142.09271717 -0.1140337 C145.45669652 0.31070931 147.34579566 1.26230433 150.06059265 3.26069641 C154.53788964 12.19639884 152.49871774 26.86296199 151.57914734 36.54975891 C150.99491868 43.4230488 150.79962192 50.29405141 150.64560127 57.18751907 C150.59444341 59.45127756 150.53788918 61.71484632 150.47988892 63.97843933 C150.31578826 70.40486401 150.15816605 76.83141862 150.0110321 83.258255 C149.92008074 87.21452967 149.82054596 91.17051415 149.71577263 95.12644577 C149.67788312 96.61970619 149.64317185 98.11305116 149.61187935 99.60646439 C149.15792074 121.16336832 149.15792074 121.16336832 146.06059265 124.26069641 C143.20094186 124.36256594 140.3660124 124.40017089 137.50590515 124.39350891 C136.62707672 124.3948735 135.74824829 124.3962381 134.8427887 124.39764404 C131.95701939 124.3996857 129.07135169 124.39331016 126.18559265 124.38569641 C125.19655945 124.38447784 124.20752625 124.38325928 123.18852234 124.38200378 C111.13354819 124.36453033 99.10443071 124.23384509 87.06034851 123.68696594 C76.09196772 123.20780911 65.12082492 123.02146329 54.14433289 122.82273865 C47.49771535 122.70131879 40.85128959 122.56982678 34.20484924 122.43911743 C29.42586079 122.34521985 24.64688271 122.25261668 19.86772156 122.16792297 C15.59816181 122.09105143 11.32955092 121.9907257 7.06059265 121.88569641 C5.24821106 121.8576593 5.24821106 121.8576593 3.3992157 121.82905579 C2.31809509 121.79876282 1.23697449 121.76846985 0.12309265 121.73725891 C-0.79343079 121.71743958 -1.70995422 121.69762024 -2.6542511 121.67720032 C-5.46263379 121.16533057 -6.19969313 120.49230389 -7.93940735 118.26069641 C-8.31413746 116.08552456 -8.31413746 116.08552456 -8.31362915 113.50958252 C-8.32064346 112.53230698 -8.32765778 111.55503143 -8.33488464 110.54814148 C-8.32724091 109.47738373 -8.31959717 108.40662598 -8.3117218 107.30342102 C-8.31537247 106.17478134 -8.31902313 105.04614166 -8.32278442 103.88330078 C-8.33090751 100.14306208 -8.3172656 96.40325417 -8.3026886 92.66304016 C-8.30217024 90.07137045 -8.30268699 87.47970033 -8.30419922 84.88803101 C-8.30410942 79.45318779 -8.29400039 74.01850327 -8.27558899 68.58369446 C-8.25441061 62.29601615 -8.25091369 56.00852045 -8.25715095 49.72081369 C-8.26284062 43.67609678 -8.25710024 37.6314612 -8.2459774 31.58674812 C-8.24211763 29.01223065 -8.24098038 26.43770767 -8.24256325 23.86318779 C-8.24293243 20.271543 -8.23035505 16.68017991 -8.21406555 13.08857727 C-8.21654297 12.01579529 -8.21902039 10.94301331 -8.22157288 9.83772278 C-8.21448807 8.86326706 -8.20740326 7.88881134 -8.20010376 6.88482666 C-8.19805089 6.03514281 -8.19599802 5.18545897 -8.19388294 4.31002712 C-7.58716324 -0.57597907 -4.04306841 0.00750994 0 0 Z M-1.93940735 7.26069641 C-1.60940735 20.13069641 -1.27940735 33.00069641 -0.93940735 46.26069641 C-0.87981196 57.66248545 -0.83571651 69.05961735 -0.8707428 80.46083069 C-0.88133431 84.30492036 -0.88561353 88.14901797 -0.89057922 91.99311829 C-0.90102028 99.41566396 -0.91787014 106.83817369 -0.93940735 114.26069641 C13.07221908 115.03882977 27.06985689 115.51417187 41.09965515 115.79585266 C43.16113141 115.8390886 45.22260391 115.88250396 47.28407288 115.92608643 C51.57494019 116.01614541 55.865843 116.10415633 60.15678406 116.19062805 C65.57571399 116.29997956 70.99452338 116.41438169 76.41331863 116.53019142 C97.96379193 116.98884248 119.50416341 117.43890327 141.06059265 117.26069641 C141.82987896 111.04061169 142.24013359 104.93458714 142.34184265 98.67085266 C142.35988953 97.77646484 142.3779364 96.88207703 142.39653015 95.96058655 C142.43470779 94.0599738 142.47121211 92.1593268 142.50614929 90.25865173 C142.59781199 85.3164188 142.70433143 80.37450875 142.81059265 75.43257141 C142.84159058 73.97782158 142.84159058 73.97782158 142.87321472 72.49368286 C143.04307912 64.68436652 143.26539607 56.87892025 143.56059265 49.07319641 C143.59604187 48.08005432 143.63149109 47.08691223 143.66801453 46.06367493 C143.70475281 45.14513733 143.74149109 44.22659973 143.77934265 43.28022766 C143.80963562 42.51815002 143.83992859 41.75607239 143.87113953 40.97090149 C144.14473773 37.0569663 144.62731607 33.16018561 145.06059265 29.26069641 C145.06059265 22.00069641 145.06059265 14.74069641 145.06059265 7.26069641 C96.55059265 7.26069641 48.04059265 7.26069641 -1.93940735 7.26069641 Z " fill="#BAD4E8" transform="translate(95.93940734863281,75.73930358886719)"/>
<path d="M0 0 C7.16724565 1.28063941 11.85498828 8.15871019 16.37841797 13.36816406 C18.21482728 15.42326486 20.19965182 17.21365543 22.3125 18.98046875 C26.02455389 22.13130499 29.60705898 25.42780899 32.875 29.04296875 C32.875 29.37296875 32.875 29.70296875 32.875 30.04296875 C7.85848285 30.20366384 -17.11894172 29.75493891 -42.125 29.04296875 C-34.84733365 21.74362711 -27.16800272 15.17313273 -18.99829102 8.89990234 C-16.4829134 6.95705339 -14.23260305 5.16326771 -12.10546875 2.78515625 C-8.47509032 -0.40843109 -4.65303726 -0.10178519 0 0 Z " fill="#FCFDFE" transform="translate(161.125,213.95703125)"/>
<path d="M0 0 C2.78174496 1.92030136 4.49853493 3.97465994 6 7 C7.29739403 14.3895051 2.84370187 22.00414274 -1 28 C-9.11673152 37.51945525 -9.11673152 37.51945525 -14.625 38.4375 C-21.30225277 37.5719302 -25.62481893 32.72251758 -29.75 27.6875 C-33.79083996 22.17305098 -37 17.08968217 -37 10.125 C-36 7 -36 7 -34.3125 5.0625 C-31.22987494 3.64615876 -29.36871206 3.52838031 -26 4 C-23.97543152 5.29572383 -21.97321053 6.6273318 -20 8 C-18.68 8 -17.36 8 -16 8 C-14.62926214 6.36395804 -13.29944744 4.69321939 -12 3 C-8.04322601 -0.10125529 -4.97947239 -0.87359165 0 0 Z " fill="#B8D2E7" transform="translate(180,116)"/>
<path d="M0 0 C8.58 0 17.16 0 26 0 C25.06891588 8.37975707 24.72792586 11.27207414 19.125 16.875 C16.06238668 18.49638352 14.43277746 18.60578426 11 18 C4.56199441 14.43884723 1.98461704 8.85370854 0 2 C0 1.34 0 0.68 0 0 Z " fill="#FBFDFD" transform="translate(246,296)"/>
<path d="M0 0 C13.86 0 27.72 0 42 0 C42 2.31 42 4.62 42 7 C28.14 6.67 14.28 6.34 0 6 C0 4.02 0 2.04 0 0 Z " fill="#FDFDFE" transform="translate(119,312)"/>
<path d="M0 0 C6.27 0 12.54 0 19 0 C19 4.62 19 9.24 19 14 C12.53211242 14.08084859 6.39372417 13.96509044 0 13 C0 8.71 0 4.42 0 0 Z " fill="#FCFDFE" transform="translate(197,275)"/>
<path d="M0 0 C7.26 0 14.52 0 22 0 C22 3.96 22 7.92 22 12 C14.74 11.67 7.48 11.34 0 11 C0 7.37 0 3.74 0 0 Z " fill="#FEFEFE" transform="translate(168,275)"/>
<path d="M0 0 C6.27 0 12.54 0 19 0 C19 4.29 19 8.58 19 13 C12.73 13 6.46 13 0 13 C0 8.71 0 4.42 0 0 Z " fill="#FDFDFE" transform="translate(69,273)"/>
<path d="M0 0 C6.6 0 13.2 0 20 0 C20 3.96 20 7.92 20 12 C13.4 12 6.8 12 0 12 C0 8.04 0 4.08 0 0 Z " fill="#FDFDFE" transform="translate(141,293)"/>
<path d="M0 0 C6.6 0 13.2 0 20 0 C20 3.96 20 7.92 20 12 C13.4 12 6.8 12 0 12 C0 8.04 0 4.08 0 0 Z " fill="#FDFEFE" transform="translate(141,274)"/>
<path d="M0 0 C6.93 0 13.86 0 21 0 C21 3.63 21 7.26 21 11 C14.07 11 7.14 11 0 11 C0 7.37 0 3.74 0 0 Z " fill="#FDFEFE" transform="translate(169,294)"/>
<path d="M0 0 C5.28 0 10.56 0 16 0 C16 4.62 16 9.24 16 14 C10.72 14 5.44 14 0 14 C0 9.38 0 4.76 0 0 Z " fill="#FCFDFE" transform="translate(95,273)"/>
<path d="M0 0 C5.61 0 11.22 0 17 0 C17 4.29 17 8.58 17 13 C11.39 13 5.78 13 0 13 C0 8.71 0 4.42 0 0 Z " fill="#FCFDFE" transform="translate(118,274)"/>
<path d="M0 0 C5.61 0 11.22 0 17 0 C17 3.96 17 7.92 17 12 C11.39 12 5.78 12 0 12 C0 8.04 0 4.08 0 0 Z " fill="#FAFBFD" transform="translate(118,293)"/>
<path d="M0 0 C5.61 0 11.22 0 17 0 C17 3.96 17 7.92 17 12 C11.39 11.67 5.78 11.34 0 11 C0 7.37 0 3.74 0 0 Z " fill="#FAFBFD" transform="translate(95,293)"/>
<path d="M0 0 C6.27 0.33 12.54 0.66 19 1 C19 4.3 19 7.6 19 11 C12.55929529 11.10655578 6.37358711 10.96205088 0 10 C0 6.7 0 3.4 0 0 Z " fill="#FDFEFE" transform="translate(69,292)"/>
<path d="M0 0 C5.94 0.33 11.88 0.66 18 1 C18 3.97 18 6.94 18 10 C12.06 10 6.12 10 0 10 C0 6.7 0 3.4 0 0 Z " fill="#FCFDFE" transform="translate(197,295)"/>
<path d="M0 0 C6.93 0 13.86 0 21 0 C21 2.64 21 5.28 21 8 C14.07 8 7.14 8 0 8 C0 5.36 0 2.72 0 0 Z " fill="#F9FBFD" transform="translate(169,312)"/>
<path d="M0 0 C5.94 0 11.88 0 18 0 C18 2.64 18 5.28 18 8 C12.06 8 6.12 8 0 8 C0 5.36 0 2.72 0 0 Z " fill="#FAFCFD" transform="translate(197,312)"/>
<path d="M0 0 C6.27 0.33 12.54 0.66 19 1 C19 3.31 19 5.62 19 8 C12.73 8 6.46 8 0 8 C0 5.36 0 2.72 0 0 Z " fill="#FCFDFE" transform="translate(69,309)"/>
<path d="M0 0 C5.94 0 11.88 0 18 0 C18 2.31 18 4.62 18 7 C12.06 7 6.12 7 0 7 C0 4.69 0 2.38 0 0 Z " fill="#F7FAFC" transform="translate(94,311)"/>
<path d="M0 0 C0 3.96 0 7.92 0 12 C-2.97 12 -5.94 12 -9 12 C-7.74337944 7.49710965 -6.16038089 4.4566666 -3 1 C-1 0 -1 0 0 0 Z " fill="#FBFCFD" transform="translate(256,277)"/>
<path d="M0 0 C4.43093367 2.21546684 5.62477252 3.75852236 8 8 C8 9.32 8 10.64 8 12 C5.36 12 2.72 12 0 12 C0 8.04 0 4.08 0 0 Z " fill="#F9FBFD" transform="translate(263,277)"/>
</svg>
