<?xml version="1.0" encoding="UTF-8"?>
<svg version="1.1" xmlns="http://www.w3.org/2000/svg" width="350" height="350">
<path d="M0 0 C2.1346875 0.0309375 2.1346875 0.0309375 4.3125 0.0625 C4.3125 5.0125 4.3125 9.9625 4.3125 15.0625 C9.0435788 13.58632805 9.0435788 13.58632805 10.80078125 11.44921875 C12.98439943 9.44615814 14.59989706 9.76200898 17.5 9.875 C18.40105469 9.90207031 19.30210937 9.92914063 20.23046875 9.95703125 C21.26107422 10.00923828 21.26107422 10.00923828 22.3125 10.0625 C22.3125 10.7225 22.3125 11.3825 22.3125 12.0625 C23.6325 12.0625 24.9525 12.0625 26.3125 12.0625 C27.08197802 18.28374539 27.49070641 24.39138306 27.59375 30.65625 C27.63148837 32.44531297 27.66924942 34.23437545 27.70703125 36.0234375 C27.7609583 38.81280191 27.813233 41.60219156 27.86474609 44.39160156 C27.91625274 47.10491523 27.97351186 49.81806294 28.03125 52.53125 C28.05161316 53.79358459 28.05161316 53.79358459 28.0723877 55.0814209 C27.79111091 58.8818163 27.79111091 58.8818163 29.3125 62.0625 C29.49809097 64.94483844 29.61987197 67.80665262 29.70141602 70.69262695 C29.74552612 72.05451141 29.74552612 72.05451141 29.79052734 73.44390869 C29.88743647 76.4794001 29.97713434 79.51505627 30.06640625 82.55078125 C30.13197288 84.68272199 30.19780883 86.81465446 30.26390076 88.94657898 C30.40236013 93.45021689 30.53722203 97.95394532 30.66967773 102.45776367 C30.83644869 108.1178146 31.01228401 113.77753788 31.19085121 119.43722725 C31.89423412 141.86688249 32.51554435 164.27483776 32.29798889 186.71736145 C32.28997222 187.76129909 32.28997222 187.76129909 32.28179359 188.82632637 C32.26655116 190.6679291 32.24445381 192.50947161 32.2217865 194.35099792 C32.1227445 197.03053661 32.1227445 197.03053661 33.3125 199.0625 C33.84691662 204.86914213 33.88984011 209.24684985 30.3125 214.0625 C29.9721875 215.3309375 29.9721875 215.3309375 29.625 216.625 C27.57401802 220.43396654 24.16766052 221.39793537 20.3125 223.0625 C17.32997098 224.52452403 14.48182498 225.95364823 11.6875 227.75 C9.3125 229.0625 9.3125 229.0625 5.3125 229.0625 C4.94125 230.238125 4.94125 230.238125 4.5625 231.4375 C3.3125 234.0625 3.3125 234.0625 1.6875 235.3125 C-0.6875 236.0625 -0.6875 236.0625 -4.25 236.3125 C-9.08821881 236.81331378 -12.61337034 239.04724437 -16.76953125 241.44921875 C-21.55725372 244.09624603 -26.61445965 246.03457965 -31.6875 248.0625 C-39.27116873 251.12587525 -39.27116873 251.12587525 -46.6875 254.5625 C-50.63573808 256.53661904 -54.69760239 258.18258836 -58.78125 259.85546875 C-61.09087063 260.81470635 -63.35633234 261.82524369 -65.625 262.875 C-68.59138015 264.02522904 -70.54650298 264.34804518 -73.6875 264.0625 C-73.6875 264.7225 -73.6875 265.3825 -73.6875 266.0625 C-91.18938507 273.09020963 -91.18938507 273.09020963 -97.125 274.4375 C-100.67312339 275.27330414 -103.62336803 276.50268996 -106.8046875 278.23828125 C-120.25759201 285.5161524 -132.85486495 287.84024091 -147.95703125 284.125 C-151.65664605 282.96672719 -155.14060199 281.6239505 -158.6875 280.0625 C-159.85023438 279.55847656 -161.01296875 279.05445313 -162.2109375 278.53515625 C-167.52522041 276.14555307 -172.73798553 273.5615491 -177.93359375 270.92578125 C-181.57530991 269.13331071 -185.34611086 267.62304798 -189.08984375 266.05859375 C-189.90582031 265.70925781 -190.72179687 265.35992187 -191.5625 265 C-192.32304687 264.67902344 -193.08359375 264.35804688 -193.8671875 264.02734375 C-195.6875 263.0625 -195.6875 263.0625 -196.6875 261.0625 C-198.52732322 260.07159624 -198.52732322 260.07159624 -200.75 259.1875 C-205.15530818 257.30548543 -209.41943967 255.23411582 -213.6875 253.0625 C-215.18698524 252.31147137 -216.68697294 251.56144496 -218.1875 250.8125 C-219.3425 250.235 -220.4975 249.6575 -221.6875 249.0625 C-221.6875 248.4025 -221.6875 247.7425 -221.6875 247.0625 C-222.32558594 246.86914062 -222.96367187 246.67578125 -223.62109375 246.4765625 C-224.44738281 246.21617187 -225.27367187 245.95578125 -226.125 245.6875 C-226.94871094 245.43226563 -227.77242187 245.17703125 -228.62109375 244.9140625 C-230.6875 244.0625 -230.6875 244.0625 -231.6875 242.0625 C-233.66638961 241.33556096 -235.66704558 240.66433749 -237.6875 240.0625 C-237.6875 239.4025 -237.6875 238.7425 -237.6875 238.0625 C-238.6775 237.7325 -239.6675 237.4025 -240.6875 237.0625 C-240.6875 236.4025 -240.6875 235.7425 -240.6875 235.0625 C-241.30238281 234.90394531 -241.91726562 234.74539063 -242.55078125 234.58203125 C-249.01302693 232.71653449 -249.01302693 232.71653449 -251.75 230.0625 C-252.89963962 226.38365321 -252.87000979 223.19888147 -252.6953125 219.3671875 C-252.68878928 216.60786477 -252.87555363 214.0557919 -253.16796875 211.3203125 C-253.94609045 203.24661967 -253.8830932 195.16609534 -253.875 187.0625 C-253.87539276 186.22380371 -253.87578552 185.38510742 -253.87619019 184.52099609 C-253.86972464 172.9281302 -253.48811384 161.4530414 -252.47167969 149.89868164 C-251.59135291 139.78192273 -251.27352009 129.67782806 -251.02954102 119.52929688 C-250.98204712 117.71848633 -250.98204712 117.71848633 -250.93359375 115.87109375 C-250.90966553 114.79657959 -250.8857373 113.72206543 -250.86108398 112.61499023 C-250.6875 110.0625 -250.6875 110.0625 -249.6875 108.0625 C-249.51966648 106.07130033 -249.4112877 104.07498849 -249.33032227 102.07836914 C-249.27679092 100.81847672 -249.22325958 99.55858429 -249.16810608 98.26051331 C-249.12811336 97.24493945 -249.12811336 97.24493945 -249.0873127 96.20884895 C-249.00295371 94.0735455 -248.9126628 91.93856598 -248.82078552 89.80357361 C-248.56068193 83.73079616 -248.31237345 77.65754339 -248.06518555 71.58422852 C-246.85229426 41.92605961 -246.85229426 41.92605961 -245.77734375 30.87109375 C-245.71317764 30.1542189 -245.64901154 29.43734406 -245.582901 28.69874573 C-245.06057283 23.96183203 -243.83628428 20.26876614 -241.6875 16.0625 C-239.5 15.125 -239.5 15.125 -237.6875 15.0625 C-237.6875 14.4025 -237.6875 13.7425 -237.6875 13.0625 C-226.32425873 12.26507956 -215.51271551 15.83909528 -205.38671875 20.7734375 C-201.47851828 22.63987188 -197.44842156 24.18257233 -193.4140625 25.75390625 C-190.44556875 27.17861313 -188.23927762 28.99716787 -185.6875 31.0625 C-183.50860526 32.13180842 -183.50860526 32.13180842 -181.375 32.8125 C-179.5496875 33.43125 -179.5496875 33.43125 -177.6875 34.0625 C-177.6875 34.7225 -177.6875 35.3825 -177.6875 36.0625 C-176.76517578 36.24425781 -176.76517578 36.24425781 -175.82421875 36.4296875 C-175.01597656 36.59726563 -174.20773438 36.76484375 -173.375 36.9375 C-172.57449219 37.09992188 -171.77398437 37.26234375 -170.94921875 37.4296875 C-168.6875 38.0625 -168.6875 38.0625 -165.6875 40.0625 C-165.6875 40.7225 -165.6875 41.3825 -165.6875 42.0625 C-164.6046875 42.248125 -164.6046875 42.248125 -163.5 42.4375 C-160.73028106 43.0529931 -158.2904646 43.94694374 -155.6875 45.0625 C-155.6875 45.7225 -155.6875 46.3825 -155.6875 47.0625 C-154.615 47.165625 -153.5425 47.26875 -152.4375 47.375 C-148.70920354 48.05852102 -147.49726269 48.73717915 -144.6875 51.0625 C-142.54016073 51.76764846 -142.54016073 51.76764846 -140.6875 52.0625 C-140.6875 52.7225 -140.6875 53.3825 -140.6875 54.0625 C-139.6975 54.145 -138.7075 54.2275 -137.6875 54.3125 C-132.31684122 55.08898079 -127.97561916 57.71339122 -123.35546875 60.4375 C-122.57816406 60.89125 -121.80085937 61.345 -121 61.8125 C-120.29488281 62.24046875 -119.58976563 62.6684375 -118.86328125 63.109375 C-116.07006947 64.33297226 -114.72612689 64.56676426 -111.6875 64.0625 C-109.69214137 62.94298267 -107.81358664 61.69360023 -105.90917969 60.42578125 C-102.10589223 58.09198376 -97.97447645 56.634125 -93.8125 55.0625 C-87.61348884 52.65899795 -81.60121926 50.16512598 -75.703125 47.08203125 C-71.71279417 45.06366624 -67.57411966 43.55531892 -63.25 42.42578125 C-56.88165932 40.74632555 -52.70501154 38.27136405 -47.6875 34.0625 C-46.10920434 32.80614525 -44.52579502 31.55618942 -42.9375 30.3125 C-42.22078125 29.74015625 -41.5040625 29.1678125 -40.765625 28.578125 C-38.6875 27.0625 -38.6875 27.0625 -36.546875 26.109375 C-34.186919 24.78066027 -33.83323622 23.47218331 -32.6875 21.0625 C-28.41750442 17.0425492 -24.21323056 14.90441019 -18.6875 13.0625 C-17.56233915 11.22965557 -17.56233915 11.22965557 -16.6875 9.0625 C-11.60243131 3.57597852 -7.70364042 -0.11164696 0 0 Z " fill="#BCD4E8" transform="translate(286.6875,32.9375)"/>
<path d="M0 0 C4.0515078 1.44962206 7.35194179 3.44774976 10.9375 5.8125 C16.67995622 9.49499039 22.27562403 11.76809645 28.80859375 13.796875 C32.2834775 15.10686789 34.95780391 16.88900243 38 19 C39.93439427 19.93900611 39.93439427 19.93900611 41.6875 20.5625 C45 22 45 22 46.46484375 23.49609375 C48.21399176 25.20963569 49.56308877 25.74435586 51.875 26.5 C54.28809181 27.29490083 56.20408278 28.12600185 58.37890625 29.46875 C62.10825587 31.64744605 66.04403687 32.691764 70.16015625 33.9375 C72.9298815 34.97376584 74.71649816 36.16230112 77 38 C78.64797236 38.71162443 80.31165408 39.39031953 82 40 C82 40.66 82 41.32 82 42 C82.928125 42.226875 83.85625 42.45375 84.8125 42.6875 C93.23040691 45.1095537 100.97835589 49.41943576 108.58984375 53.66796875 C109.38519531 54.10753906 110.18054688 54.54710937 111 55 C111.69738281 55.38542969 112.39476562 55.77085938 113.11328125 56.16796875 C115.76679761 57.33815298 118.13945395 57.13002482 121 57 C121.33 56.01 121.66 55.02 122 54 C124.00390625 52.9375 124.00390625 52.9375 126.5625 52 C127.46226562 51.66484375 128.36203125 51.3296875 129.2890625 50.984375 C130.18367187 50.65953125 131.07828125 50.3346875 132 50 C132.77085937 49.69578125 133.54171875 49.3915625 134.3359375 49.078125 C137.36139378 47.88593777 139.71903093 47 143 47 C143 46.34 143 45.68 143 45 C144.7902061 44.32942113 146.58221489 43.6636531 148.375 43 C149.37273437 42.62875 150.37046875 42.2575 151.3984375 41.875 C154 41 154 41 156 41 C154.98502564 44.04492309 154.4178943 45.0298639 152 47 C151.34 47.144375 150.68 47.28875 150 47.4375 C147.81925046 47.83077817 147.81925046 47.83077817 146.5625 49.9375 C144.62719647 52.49210066 142.94686693 52.85000315 140 54 C138.64567325 55.31200404 137.31266518 56.64631404 136 58 C132.2014091 60.79896172 129.6968338 61.32768608 125 61 C125 62.32 125 63.64 125 65 C122.69 65 120.38 65 118 65 C118 64.01 118 63.02 118 62 C115.69 62 113.38 62 111 62 C111 62.99 111 63.98 111 65 C109.783125 65.226875 108.56625 65.45375 107.3125 65.6875 C102.97627616 66.77919016 100.90890218 68.54076497 98 72 C97.0925 72.94875 96.185 73.8975 95.25 74.875 C92.7225652 78.38532612 92.25613682 80.73105295 92 85 C95.35433109 84.05066101 98.69246505 83.10251165 102 82 C102.061875 81.071875 102.12375 80.14375 102.1875 79.1875 C103 76 103 76 105.4375 74.1875 C106.283125 73.795625 107.12875 73.40375 108 73 C108.66 72.67 109.32 72.34 110 72 C110.02703381 73.93742341 110.04641125 75.87495479 110.0625 77.8125 C110.07410156 78.89144531 110.08570313 79.97039062 110.09765625 81.08203125 C110 84 110 84 109 87 C103.06 87.99 103.06 87.99 97 89 C97 89.66 97 90.32 97 91 C95.906875 91.556875 94.81375 92.11375 93.6875 92.6875 C90.3215819 94.60212143 88.61214696 96.39637738 87 100 C87 100.66 87 101.32 87 102 C92.5481362 102.01764395 92.5481362 102.01764395 97.1015625 99.15234375 C98.43946949 97.68787799 99.7741662 96.22047224 101.10546875 94.75 C103 93 103 93 106.4375 92.4375 C109 93 109 93 110 94 C110.38108361 100.37754631 110.04923711 106.70457736 109 113 C107.05909174 114.94090826 103.52706098 114.39919435 100.9375 114.5625 C99.64714844 114.64628906 98.35679687 114.73007813 97.02734375 114.81640625 C96.02832031 114.87699219 95.02929688 114.93757813 94 115 C94 115.66 94 116.32 94 117 C93.071875 117.226875 92.14375 117.45375 91.1875 117.6875 C87.4082835 119.24364797 86.62626272 120.31951069 85 124 C84.29329272 126.69254991 84.29329272 126.69254991 84 129 C90.20846 128.86790511 93.02118208 126.71626662 97.49609375 122.49609375 C100 121 100 121 108 121 C108 127.6 108 134.2 108 141 C100.8125 142.3125 100.8125 142.3125 98.57739258 142.7043457 C93.51972307 143.67353315 89.83756843 145.16243157 86.1875 148.8125 C84.6312008 151.67936694 84.71443446 153.78738769 85 157 C86.13307539 158.32771855 86.13307539 158.32771855 89.0625 158.5 C93.98692144 157.87467664 95.69975098 156.06236918 99.10546875 152.62890625 C101.1452587 150.87510747 102.42080592 150.545824 105 150 C105.02895225 153.29164829 105.0467823 156.58326399 105.0625 159.875 C105.07087891 160.81214844 105.07925781 161.74929687 105.08789062 162.71484375 C105.09111328 163.61074219 105.09433594 164.50664062 105.09765625 165.4296875 C105.10289307 166.25710449 105.10812988 167.08452148 105.11352539 167.93701172 C105 170 105 170 104 172 C102.80761719 172.04898438 101.61523438 172.09796875 100.38671875 172.1484375 C98.82028932 172.22347604 97.25388421 172.2990234 95.6875 172.375 C94.50897461 172.42140625 94.50897461 172.42140625 93.30664062 172.46875 C92.54931641 172.50742188 91.79199219 172.54609375 91.01171875 172.5859375 C90.31522217 172.6173584 89.61872559 172.6487793 88.90112305 172.68115234 C86.67467261 172.92118253 86.67467261 172.92118253 84 175 C82.989375 175.309375 81.97875 175.61875 80.9375 175.9375 C77.72369498 176.7712102 77.72369498 176.7712102 76 180 C76.3121764 182.64632287 76.3121764 182.64632287 77 185 C78.65 185.33 80.3 185.66 82 186 C82 185.34 82 184.68 82 184 C85.69524203 181.2081903 88.41932881 180.61154499 93 180.6875 C94.5159375 180.69330078 94.5159375 180.69330078 96.0625 180.69921875 C99 181 99 181 104 183 C103.67 192.24 103.34 201.48 103 211 C100.855 211.639375 98.71 212.27875 96.5 212.9375 C89.54477802 215.25940093 84.89395896 218.60358326 81 225 C79.89020834 228.33693445 79.89020834 228.33693445 80 231 C82.31 231.66 84.62 232.32 87 233 C87 232.01 87 231.02 87 230 C88.39298478 228.73968044 89.79971672 227.4897487 91.28515625 226.33984375 C93.01116639 225.02824218 93.01116639 225.02824218 94.55859375 223.56640625 C98.13646001 220.28592108 98.83833704 220 104 220 C104.99 228.91 104.99 228.91 106 238 C106.99 238 107.98 238 109 238 C109.12117188 236.83082031 109.24234375 235.66164063 109.3671875 234.45703125 C109.53608401 232.90881329 109.70537568 231.36063839 109.875 229.8125 C109.95363281 229.04357422 110.03226562 228.27464844 110.11328125 227.48242188 C110.57528104 223.34219296 111.1839193 219.80766499 113 216 C114.98 216 116.96 216 119 216 C119 219.96 119 223.92 119 228 C118.34 228.33 117.68 228.66 117 229 C116.97310784 230.47906892 116.95365379 231.95827483 116.9375 233.4375 C116.92009766 234.67306641 116.92009766 234.67306641 116.90234375 235.93359375 C116.76732652 237.99163938 116.76732652 237.99163938 118 239 C120.32817964 239.36760731 122.6618385 239.70241581 125 240 C125 239.34 125 238.68 125 238 C126.35931641 237.72736328 126.35931641 237.72736328 127.74609375 237.44921875 C134.02719018 236.15311949 140.12884856 234.82854967 146.1328125 232.55078125 C148 232 148 232 152 232 C152 231.34 152 230.68 152 230 C152.54527344 229.82984375 153.09054688 229.6596875 153.65234375 229.484375 C158.62887056 227.88508091 163.33868223 226.02611442 168.0546875 223.76953125 C170 223 170 223 173 223 C173 222.34 173 221.68 173 221 C173.52464844 220.8040625 174.04929688 220.608125 174.58984375 220.40625 C181.14083019 217.87741663 187.4668715 214.95246841 193.80151367 211.93261719 C197.58940433 210.12769173 201.38342248 208.38212317 205.25 206.75 C207.81009464 205.64516828 209.22065536 204.80837824 211.375 202.9375 C214.81734875 200.39671878 218.22518287 199.74303006 222.3359375 198.70703125 C225.55613109 197.85240509 228.22074057 196.85283962 231 195 C232.74245763 191.51918114 233.23511297 188.75254878 233.16015625 184.88671875 C233.14855469 183.90026367 233.13695312 182.91380859 233.125 181.89746094 C233.0940625 180.30853027 233.0940625 180.30853027 233.0625 178.6875 C232.97804248 170.51623539 233.05938186 162.4091592 233.5 154.25 C234.87778804 126.25334697 234.22973256 98.08091606 233.35595703 70.07592773 C233.12515888 62.63924931 232.94224622 55.20612482 232.90625 47.765625 C232.8997644 47.0733783 232.89327881 46.38113159 232.88659668 45.66790771 C232.88290467 41.66097272 233.31245524 37.93870197 234 34 C234.07606897 32.12886684 234.10817675 30.25546172 234.09765625 28.3828125 C234.09443359 27.36445312 234.09121094 26.34609375 234.08789062 25.296875 C234.07951172 24.25015625 234.07113281 23.2034375 234.0625 22.125 C234.05573242 20.52011719 234.05573242 20.52011719 234.04882812 18.8828125 C234.03709764 16.25518411 234.01916391 13.62758469 234 11 C238.95 8.36 243.9 5.72 249 3 C250.73073487 4.73073487 250.21263675 7.07516159 250.28125 9.44140625 C250.31790771 10.69058838 250.35456543 11.93977051 250.39233398 13.22680664 C250.42852663 14.67203018 250.46440065 16.11726172 250.5 17.5625 C250.52023224 18.31062958 250.54046448 19.05875916 250.56130981 19.82955933 C250.89392593 32.18684333 251.06926234 44.54561764 251.21484375 56.90625 C251.23290821 58.42798883 251.25098489 59.94972752 251.26907349 61.47146606 C251.28266246 62.61604688 251.28266246 62.61604688 251.29652596 63.78375053 C251.34319036 67.71000433 251.39009472 71.63625507 251.4375 75.5625 C251.44695648 76.346036 251.45641296 77.12957199 251.46615601 77.9368515 C251.70932341 97.86664929 252.03760438 117.77656443 253 137.6875 C253.04188446 138.57027618 253.08376892 139.45305237 253.12692261 140.36257935 C253.5347781 150.24127911 253.5347781 150.24127911 255 160 C255.0659735 162.10323534 255.08562245 164.20835724 255.0625 166.3125 C255.05347656 167.38113281 255.04445313 168.44976562 255.03515625 169.55078125 C255.01775391 170.76314453 255.01775391 170.76314453 255 172 C255.66 172 256.32 172 257 172 C257.67189656 174.91555115 258.33769308 177.83226951 259 180.75 C259.28617187 181.9875 259.28617187 181.9875 259.578125 183.25 C259.84882812 184.44882812 259.84882812 184.44882812 260.125 185.671875 C260.29257812 186.4050293 260.46015625 187.13818359 260.6328125 187.89355469 C261 190 261 190 261 194 C261.66 194 262.32 194 263 194 C262.98839844 193.40832031 262.97679687 192.81664062 262.96484375 192.20703125 C262.91677614 187.99768215 262.93993117 184.1077667 264 180 C266.48018753 182.48018753 266.32361558 183.38515951 266.375 186.8125 C266.32005518 190.60918722 266.11495655 191.82038039 264 195.125 C263.34 195.74375 262.68 196.3625 262 197 C261.67 196.67 261.34 196.34 261 196 C255.52951354 195.56236108 251.8438487 196.44098559 247 199 C246.34 199.680625 245.68 200.36125 245 201.0625 C242.28405121 203.69357539 239.6285459 204.06158296 236 205 C234.39125 205.804375 234.39125 205.804375 232.75 206.625 C230 208 230 208 227 208 C227 208.66 227 209.32 227 210 C219.90811017 213.8086075 212.79619175 216.08671441 205 218 C205 218.66 205 219.32 205 220 C202.7244896 220.91020416 200.44871486 221.81968561 198.171875 222.7265625 C195.92800862 223.62742511 193.68884986 224.54005523 191.453125 225.4609375 C185.39864219 227.94256914 179.42109157 230.2436291 173.125 232.0625 C169.36177052 233.1682615 166.1557376 234.3301071 162.8125 236.375 C157.68500727 239.48024793 152.0765393 241.09675329 146.38208008 242.85693359 C143.04912672 243.9031136 140.21446721 244.87119986 137.203125 246.6796875 C135 248 135 248 131 248 C131 248.66 131 249.32 131 250 C125.62511001 252.94097754 120.56269863 254.82538529 114.61328125 256.2890625 C111.98334405 256.94365392 111.98334405 256.94365392 109.515625 258.0390625 C106.76825548 259.08852353 104.36124892 259.47348411 101.4375 259.75 C100.50808594 259.84796875 99.57867187 259.9459375 98.62109375 260.046875 C95.77074603 259.99590008 94.45221069 259.36514822 92 258 C89.67504723 257.61250787 87.34148732 257.27017161 85 257 C85 256.34 85 255.68 85 255 C82.36 254.34 79.72 253.68 77 253 C77 252.34 77 251.68 77 251 C75.845 250.649375 74.69 250.29875 73.5 249.9375 C68.80310349 248.37436087 64.28431385 246.47573927 59.75 244.5 C59.06486328 244.20343506 58.37972656 243.90687012 57.67382812 243.60131836 C53.94235584 241.95628515 50.47677205 240.14577166 47 238 C46.113125 237.649375 45.22625 237.29875 44.3125 236.9375 C42 236 42 236 40 234 C38.3364521 233.32558869 36.66933058 232.6599679 35 232 C34.21625 231.525625 33.4325 231.05125 32.625 230.5625 C29.50786297 228.70706129 26.35304984 227.38066758 23 226 C23 225.34 23 224.68 23 224 C21.7625 223.62875 20.525 223.2575 19.25 222.875 C13.2025126 220.86555007 7.60643149 218.00680125 2 215 C0.58460937 214.2575 0.58460937 214.2575 -0.859375 213.5 C-1.91898438 212.7575 -1.91898438 212.7575 -3 212 C-3 211.01 -3 210.02 -3 209 C-3.66 209 -4.32 209 -5 209 C-5 208.34 -5 207.68 -5 207 C-8.3 206.34 -11.6 205.68 -15 205 C-14.59286142 201.60717852 -14.16664868 198.47250589 -13.02734375 195.2421875 C-11.87258034 191.59787713 -11.34695453 188.03270616 -10.9375 184.25 C-10.85443604 183.52135742 -10.77137207 182.79271484 -10.68579102 182.04199219 C-9.99873865 175.69976248 -9.61061895 169.35023208 -9.34155273 162.97753906 C-9.21569084 160.14355405 -9.07938465 157.39386691 -8.51806641 154.60888672 C-7.55393238 149.75368585 -7.32708111 144.80392247 -6.9375 139.875 C-6.84662109 138.79734375 -6.75574219 137.7196875 -6.66210938 136.609375 C-6.16981174 130.46490831 -5.92255721 124.4105514 -6.06469727 118.24658203 C-6 116 -6 116 -5 113 C-4.85809598 110.35283163 -4.76669717 107.72709936 -4.71875 105.078125 C-4.70034058 104.29991394 -4.68193115 103.52170288 -4.66296387 102.71990967 C-4.60426083 100.23001612 -4.5514752 97.7400528 -4.5 95.25 C-4.4319104 91.98424457 -4.3581223 88.71868406 -4.28125 85.453125 C-4.26767456 84.71120911 -4.25409912 83.96929321 -4.2401123 83.20489502 C-4.16265764 79.9128853 -3.96920298 76.78556372 -3.5 73.51855469 C-2.91609526 69.40955317 -2.79151817 65.39411511 -2.71875 61.25 C-2.70034058 60.43305664 -2.68193115 59.61611328 -2.66296387 58.77441406 C-2.60466471 56.18301021 -2.55165709 53.59154423 -2.5 51 C-2.43189331 47.58320848 -2.35824147 44.16660162 -2.28125 40.75 C-2.26767456 39.97688477 -2.25409912 39.20376953 -2.2401123 38.40722656 C-2.13709095 33.86137842 -1.68216149 29.50356715 -1 25 C-0.93984712 23.62746161 -0.91198715 22.25252522 -0.9375 20.87890625 C-0.94523437 20.17056641 -0.95296875 19.46222656 -0.9609375 18.73242188 C-0.98690887 17.28971227 -1.01295016 15.84700393 -1.0390625 14.40429688 C-1.09246734 9.50440275 -0.7001934 4.85212148 0 0 Z " fill="#FDFEFE" transform="translate(54,50)"/>
<path d="M0 0 C0.99 0.33 1.98 0.66 3 1 C2.99777939 2.06819977 2.99555878 3.13639954 2.99327087 4.23696899 C2.97265398 14.49699832 2.95784781 24.75702324 2.94818783 35.01706886 C2.94305406 40.28694167 2.93613877 45.55679726 2.92456055 50.82666016 C2.87842964 72.38530216 2.92189982 93.92158195 3.57502556 115.47159576 C4.03879129 130.77862348 4.0873699 146.06030404 4 161.375 C3.97322504 166.27864307 3.95345593 171.1822488 3.9375 176.0859375 C3.92920166 177.17224457 3.92090332 178.25855164 3.91235352 179.3777771 C3.89403883 185.02165936 4.14942499 190.41852009 5 196 C4.2265625 196.15855469 3.453125 196.31710938 2.65625 196.48046875 C-3.37716612 197.8320137 -8.11549837 199.33125928 -13.1875 202.87109375 C-15.91434234 204.5694934 -18.92220544 205.15511522 -22 206 C-22.46535156 206.48082031 -22.93070312 206.96164063 -23.41015625 207.45703125 C-25.37106968 209.36012905 -27.01326281 209.81811237 -29.625 210.5625 C-31.98406223 211.20135682 -31.98406223 211.20135682 -34 212 C-34.33 212.66 -34.66 213.32 -35 214 C-37.33839691 215.2502904 -39.65668138 216.39531095 -42.0625 217.5 C-42.70638672 217.80808594 -43.35027344 218.11617187 -44.01367188 218.43359375 C-47.3335501 219.97602969 -50.47926878 221.18121215 -54.05859375 221.96875 C-57.52183005 222.74762031 -60.13958769 224.18565042 -63.17822266 226.04589844 C-66.48201481 227.77616107 -70.05619347 228.39172476 -73.6875 229.125 C-80.05986913 230.42558704 -80.05986913 230.42558704 -86 233 C-88.32671854 233.68939809 -90.66067594 234.35466922 -93 235 C-95.00361307 235.65572791 -97.00491933 236.31875294 -99 237 C-99.77916092 231.97874074 -100.13016601 228.02296004 -99 223 C-98.34 223 -97.68 223 -97 223 C-97 222.34 -97 221.68 -97 221 C-96 220 -95 219 -94 218 C-93.67 217.01 -93.34 216.02 -93 215 C-93.66 215 -94.32 215 -95 215 C-95.02717692 212.93757383 -95.0464758 210.87504297 -95.0625 208.8125 C-95.07410156 207.66394531 -95.08570313 206.51539063 -95.09765625 205.33203125 C-95 202 -95 202 -94.49609375 199.5703125 C-93.81896269 196.06202714 -93.94169673 192.61784851 -94 189.0625 C-94.08133785 179.97022235 -93.8201355 170.89755342 -93.5 161.8125 C-93.47599121 161.12817902 -93.45198242 160.44385803 -93.42724609 159.73880005 C-93.28912233 155.82570437 -93.1464619 151.91279192 -93 148 C-92.34 148 -91.68 148 -91 148 C-91.07409088 147.02645569 -91.14818176 146.05291138 -91.22451782 145.04986572 C-91.91361756 135.46278474 -92.0828502 125.97297341 -91.8359375 116.359375 C-91.81919605 115.66192421 -91.80245461 114.96447342 -91.78520584 114.24588776 C-91.69669704 110.57757395 -91.59985345 106.90959827 -91.49560547 103.24169922 C-91.39008894 99.46953462 -91.31434566 95.69734799 -91.24477196 91.92437363 C-91.18549789 88.99849377 -91.1045792 86.073501 -91.01768875 83.14832306 C-90.98009564 81.75628368 -90.95062817 80.36399925 -90.92960739 78.97161102 C-90.89840504 77.03623137 -90.83350018 75.10148376 -90.76708984 73.16699219 C-90.73964691 72.06941589 -90.71220398 70.9718396 -90.68392944 69.84100342 C-89.77267697 66.05571326 -88.26254342 65.01480755 -85 63 C-81.1875 62.25 -81.1875 62.25 -78 62 C-78 61.34 -78 60.68 -78 60 C-73.42508922 54.87098512 -67.4978783 51.30678549 -61.72070312 47.70239258 C-55.35052301 43.68379728 -49.38554418 39.16378016 -43.3984375 34.6015625 C-42.79999023 34.14555664 -42.20154297 33.68955078 -41.58496094 33.21972656 C-40.32860731 32.25288387 -39.08728698 31.26651063 -37.8515625 30.2734375 C-36 29 -36 29 -33.53125 28.05078125 C-30.61606866 26.84062109 -28.81648833 25.32046373 -26.5 23.1875 C-25.7678125 22.52105469 -25.035625 21.85460937 -24.28125 21.16796875 C-22.68010358 19.64633131 -21.10804688 18.09377563 -19.55859375 16.51953125 C-16.12492077 13.13828075 -12.41122932 10.18309574 -8.66015625 7.1640625 C-6.55147416 5.4486295 -4.52192215 3.68915571 -2.5 1.875 C-1.675 1.25625 -0.85 0.6375 0 0 Z " fill="#FBFCFD" transform="translate(278,46)"/>
<path d="M0 0 C0.99 0.495 0.99 0.495 2 1 C0.02 2.98 -1.96 4.96 -4 7 C-3.505 7.99 -3.505 7.99 -3 9 C-4.62339805 10.70884005 -6.29319053 12.37446717 -8 14 C-8.66 14 -9.32 14 -10 14 C-10 14.66 -10 15.32 -10 16 C-10.81404297 16.29003906 -10.81404297 16.29003906 -11.64453125 16.5859375 C-12.35996094 16.84632812 -13.07539063 17.10671875 -13.8125 17.375 C-14.52019531 17.63023438 -15.22789062 17.88546875 -15.95703125 18.1484375 C-18.24773359 19.0265769 -18.24773359 19.0265769 -21 21 C-21.51801446 23.85405975 -21.51801446 23.85405975 -21.52416992 27.26293945 C-21.58389229 29.24188957 -21.58389229 29.24188957 -21.64482117 31.26081848 C-21.67372156 32.71163245 -21.70226133 34.16245364 -21.73046875 35.61328125 C-21.76979034 37.10388939 -21.81036201 38.59446503 -21.85212708 40.08500671 C-21.95889258 44.02369299 -22.04770175 47.96259533 -22.13311768 51.90179443 C-22.20482809 55.08063439 -22.28855418 58.25909939 -22.37313366 61.43761921 C-22.73291205 74.95864041 -23.06929716 88.47274174 -23 102 C-23.66 102 -24.32 102 -25 102 C-24.99777939 102.66176743 -24.99555878 103.32353485 -24.99327087 104.00535583 C-24.97122035 110.8666022 -24.95609438 117.72783857 -24.94506836 124.58911133 C-24.9400263 127.15291757 -24.93319286 129.71672091 -24.92456055 132.28051758 C-24.91248936 135.95655021 -24.90677058 139.63254498 -24.90234375 143.30859375 C-24.89718246 144.46274277 -24.89202118 145.61689178 -24.88670349 146.80601501 C-24.88662796 147.86703934 -24.88655243 148.92806366 -24.88647461 150.02124023 C-24.884254 150.96055893 -24.88203339 151.89987762 -24.87974548 152.86766052 C-25 155 -25 155 -26 156 C-26.23481693 158.18292774 -26.41363323 160.37203174 -26.5625 162.5625 C-26.64628906 163.76003906 -26.73007813 164.95757812 -26.81640625 166.19140625 C-26.87699219 167.11824219 -26.93757813 168.04507813 -27 169 C-26.34 169 -25.68 169 -25 169 C-25.33 170.65 -25.66 172.3 -26 174 C-26.99 174.33 -27.98 174.66 -29 175 C-29 175.66 -29 176.32 -29 177 C-29.66 177 -30.32 177 -31 177 C-31 181.62 -31 186.24 -31 191 C-29.989375 190.38125 -28.97875 189.7625 -27.9375 189.125 C-23.45878518 186.5873584 -18.9654818 185.43789223 -13.94921875 184.3203125 C-5.26388375 182.37688114 2.19148868 179.96402909 10.078125 175.8984375 C12 175 12 175 15.3125 174.0625 C19.64033115 172.8154978 23.49886556 170.97959849 27.546875 169.0234375 C30 168 30 168 33 168 C33.33 167.01 33.66 166.02 34 165 C36.80948274 164.03979704 39.63085671 163.4716702 42.53125 162.84375 C43.3459375 162.5653125 44.160625 162.286875 45 162 C45.33 161.01 45.66 160.02 46 159 C47.78515625 158.2265625 47.78515625 158.2265625 50.0625 157.625 C53.47945341 156.61177091 56.03524794 155.43619126 58.9375 153.375 C63.92270162 150.03481461 69.15401201 150 75 150 C75.66 149.34 76.32 148.68 77 148 C76.77734375 150.3359375 76.77734375 150.3359375 76 153 C74.06640625 154.4765625 74.06640625 154.4765625 71.5625 155.625 C70.66144531 156.04007813 69.76039063 156.45515625 68.83203125 156.8828125 C66.15750555 157.93786678 63.52341974 158.75088207 60.75 159.5 C56.16292569 160.76073316 53.6302869 162.89912994 50 166 C47.74690948 167.05350795 45.45493121 167.89816461 43.12109375 168.7578125 C38.31602631 170.67021731 33.69717935 172.97416502 29.06518555 175.27075195 C25.03006408 177.22371156 21.5197967 178.52385789 17 179 C17 179.66 17 180.32 17 181 C15.92878906 181.42152344 14.85757813 181.84304688 13.75390625 182.27734375 C12.35671698 182.83059319 10.95958449 183.38398602 9.5625 183.9375 C8.85544922 184.21529297 8.14839844 184.49308594 7.41992188 184.77929688 C3.95326119 185.96222034 3.95326119 185.96222034 1 188 C-0.66617115 188.04063832 -2.33388095 188.042721 -4 188 C-4 188.66 -4 189.32 -4 190 C-12.98409901 193.05481911 -21.41505417 195.77662203 -31 196 C-31 196.66 -31 197.32 -31 198 C-34.375 198.125 -34.375 198.125 -38 198 C-40 196 -40 196 -40.1953125 193.8359375 C-40.17210937 193.02382813 -40.14890625 192.21171875 -40.125 191.375 C-40.10695312 190.55773437 -40.08890625 189.74046875 -40.0703125 188.8984375 C-40.04710937 188.27195312 -40.02390625 187.64546875 -40 187 C-39.01 186.67 -38.02 186.34 -37 186 C-37 182.04 -37 178.08 -37 174 C-38.98 174 -40.96 174 -43 174 C-43.08564209 174.55985596 -43.17128418 175.11971191 -43.25952148 175.6965332 C-43.64948061 178.23561208 -44.04344516 180.77405368 -44.4375 183.3125 C-44.57220703 184.19357422 -44.70691406 185.07464844 -44.84570312 185.98242188 C-44.97783203 186.82998047 -45.10996094 187.67753906 -45.24609375 188.55078125 C-45.36654053 189.33106689 -45.4869873 190.11135254 -45.61108398 190.9152832 C-46 193 -46 193 -47 196 C-47.99 196 -48.98 196 -50 196 C-51.585869 192.828262 -51.37866445 189.36486178 -51.5625 185.875 C-51.60568359 185.12089844 -51.64886719 184.36679687 -51.69335938 183.58984375 C-51.7994832 181.72678112 -51.90025001 179.86341476 -52 178 C-57.65196539 179.75942724 -61.06084756 182.00544321 -65.1875 186.25 C-67 188 -67 188 -69 188 C-69 188.99 -69 189.98 -69 191 C-71.875 191.125 -71.875 191.125 -75 191 C-75.66 190.34 -76.32 189.68 -77 189 C-76.71262715 182.74746354 -73.75390237 179.66907536 -69.6171875 175.28125 C-64.66399239 170.96383814 -59.53494661 169 -53 169 C-53 159.76 -53 150.52 -53 141 C-56.56206398 140.10948401 -59.3035944 139.83541239 -62.9375 139.8125 C-63.95714844 139.79832031 -64.97679687 139.78414062 -66.02734375 139.76953125 C-69.07159667 140.00555086 -71.24737643 140.71747005 -74 142 C-74 142.66 -74 143.32 -74 144 C-76.375 144.1875 -76.375 144.1875 -79 144 C-81 141 -81 141 -80.8125 138.5 C-79.8976826 135.68517723 -79.4145127 134.69015889 -77 133 C-74.68234271 132.28072705 -72.34904126 131.6090107 -70 131 C-69.67 130.67 -69.34 130.34 -69 130 C-66.13530675 129.92669669 -63.30106326 129.90782169 -60.4375 129.9375 C-57.653125 129.958125 -54.86875 129.97875 -52 130 C-51.67 122.74 -51.34 115.48 -51 108 C-54.5606757 110.13640542 -56.60317465 111.4494774 -59.375 114.1875 C-62.16571192 116.64845602 -62.9046047 116.98748914 -66.8125 117.5 C-70 117 -70 117 -72 115 C-72.49590079 111.28074407 -72.32476717 109.51722179 -70.3125 106.3125 C-65.54017699 101.54017699 -60.5695139 99.91692723 -54 99 C-52.02 99 -50.04 99 -48 99 C-48 92.4 -48 85.8 -48 79 C-55.57486859 79.64717601 -55.57486859 79.64717601 -60.6875 83.5 C-63.76786953 86.24811761 -65.83276587 87.61299318 -70 88 C-70.66 87.67 -71.32 87.34 -72 87 C-71.59287177 81.80911501 -70.91382777 78.58767546 -67 75 C-64.25 74.6875 -64.25 74.6875 -62 75 C-62 74.34 -62 73.68 -62 73 C-55.07 72.01 -55.07 72.01 -48 71 C-47.03794912 64.62641289 -46.89344422 58.44070471 -47 52 C-49.65716506 51.32434494 -49.65716506 51.32434494 -53 52 C-54.97252612 53.7598357 -54.97252612 53.7598357 -56.875 55.9375 C-59.66225475 58.98841398 -61.34013822 60.53697652 -65.5 61 C-66.655 61 -67.81 61 -69 61 C-69 56.64727443 -68.4694556 55.43959887 -66 52 C-63.3710719 49.61753391 -62.61165822 49 -59 49 C-59 48.34 -59 47.68 -59 47 C-57.14375 46.505 -57.14375 46.505 -55.25 46 C-54.55390625 45.814375 -53.8578125 45.62875 -53.140625 45.4375 C-51 45 -51 45 -47 45 C-47 40.38 -47 35.76 -47 31 C-47.99 31.99 -48.98 32.98 -50 34 C-50.99 34 -51.98 34 -53 34 C-53.0928125 35.3921875 -53.0928125 35.3921875 -53.1875 36.8125 C-54 40 -54 40 -56.25 41.875 C-59.08997232 43.03680686 -60.96765104 43.25991562 -64 43 C-64.55124587 39.2200283 -64.75682732 37.1237739 -62.58203125 33.89453125 C-60.78684873 31.85437713 -58.91908117 29.92326218 -57 28 C-56.360625 27.195625 -55.72125 26.39125 -55.0625 25.5625 C-51.89064934 23.15958283 -48.93222253 23.26214817 -45 23 C-45 22.01 -45 21.02 -45 20 C-42.69 20 -40.38 20 -38 20 C-38 20.99 -38 21.98 -38 23 C-35.69 23 -33.38 23 -31 23 C-31 21.68 -31 20.36 -31 19 C-29.96875 18.7525 -28.9375 18.505 -27.875 18.25 C-23.3852572 16.96851471 -19.6920338 14.75971515 -16.4375 11.375 C-15 10 -15 10 -12.4375 9 C-9.68761678 8.13727591 -9.68761678 8.13727591 -8 5 C-6.68 5 -5.36 5 -4 5 C-3.67 4.01 -3.34 3.02 -3 2 C-2.01 1.34 -1.02 0.68 0 0 Z " fill="#C2D8EA" transform="translate(210,92)"/>
<path d="M0 0 C1 1 1 1 1.125 4.375 C1.09568828 7.55392549 0.8250664 10.63373906 0.453125 13.7890625 C0.01245977 18.47044571 0.01500009 23.05889197 0.2265625 27.75 C0.27159409 28.75735703 0.27159409 28.75735703 0.3175354 29.7850647 C0.44829199 32.56848937 0.58876234 35.35113794 0.74414062 38.13330078 C0.8560451 40.19262769 0.94880762 42.2521271 1.0390625 44.3125 C1.10303223 45.52550781 1.16700195 46.73851562 1.23291016 47.98828125 C1 51 1 51 -0.27197266 52.875 C-2.99008869 54.64457879 -5.82581999 54.70054906 -9 55 C-9 55.66 -9 56.32 -9 57 C-16.90020561 59.52325959 -24.88126252 61.70624583 -33 59 C-37.38722215 52.26510045 -37.59878937 44.86888666 -37.11523438 37.08642578 C-37.03294141 35.59643492 -36.98022225 34.10469067 -36.94726562 32.61279297 C-36.61545245 17.83280423 -36.61545245 17.83280423 -32.8515625 13.5625 C-30.27251335 12.01352153 -27.84660698 10.95761433 -25 10 C-21.00632307 8.22511959 -21.00632307 8.22511959 -17.67578125 5.5546875 C-15.50524916 3.54100039 -13.40565708 2.80668013 -10.625 1.8125 C-9.68914062 1.46832031 -8.75328125 1.12414062 -7.7890625 0.76953125 C-5.02720163 0.00750521 -2.84735785 -0.22638004 0 0 Z " fill="#C6DBEB" transform="translate(270,121)"/>
<path d="M0 0 C1.97909398 -0.02686553 3.95828971 -0.04633375 5.9375 -0.0625 C7.03964844 -0.07410156 8.14179688 -0.08570313 9.27734375 -0.09765625 C12 0 12 0 13 1 C13.14550122 2.49195005 13.22722981 3.99022671 13.28125 5.48828125 C13.31847168 6.41713135 13.35569336 7.34598145 13.39404297 8.30297852 C13.42900879 9.29612061 13.46397461 10.2892627 13.5 11.3125 C13.72819531 17.6162688 14.04157128 23.80392208 14.875 30.0625 C15.20271422 33.8694469 15.22629997 34.63792005 13.125 38 C4.52832431 43.50187244 -5.67537945 47.67334482 -16 47 C-16 47.66 -16 48.32 -16 49 C-19.71599191 49.20086443 -20.77208445 49.1519437 -24 47 C-26.7650603 36.12972478 -25.09192689 23.12739648 -25 12 C-19.9569929 9.39231496 -15.04947194 7.17014492 -9.6875 5.3125 C-8.49511719 4.89613281 -7.30273438 4.47976562 -6.07421875 4.05078125 C-4.05205748 3.35959779 -2.0273588 2.67578627 0 2 C0 1.34 0 0.68 0 0 Z " fill="#C5DAEB" transform="translate(216,222)"/>
<path d="M0 0 C1 1 1 1 1.3125 3.375 C1 6 1 6 -0.71484375 7.54296875 C-3.06064232 9.03866596 -5.26359939 9.98974869 -7.875 10.9375 C-10.98378458 12.12158119 -13.67674664 13.30202628 -16.375 15.25 C-19 17 -19 17 -23 17 C-23.37125 18.175625 -23.37125 18.175625 -23.75 19.375 C-25 22 -25 22 -26.625 23.25 C-29 24 -29 24 -32.5625 24.25 C-37.40071881 24.75081378 -40.92587034 26.98474437 -45.08203125 29.38671875 C-49.86975372 32.03374603 -54.92695965 33.97207965 -60 36 C-67.58366873 39.06337525 -67.58366873 39.06337525 -75 42.5 C-78.94823808 44.47411904 -83.01010239 46.12008836 -87.09375 47.79296875 C-89.40337063 48.75220635 -91.66883234 49.76274369 -93.9375 50.8125 C-96.90388015 51.96272904 -98.85900298 52.28554518 -102 52 C-102 52.66 -102 53.32 -102 54 C-119.50188507 61.02770963 -119.50188507 61.02770963 -125.4375 62.375 C-131.73600769 63.89094517 -137.39160767 66.96004839 -143.10131836 69.95263672 C-148.38987045 72.61973432 -152.07496438 73.46723138 -158 73 C-156.02 72.01 -156.02 72.01 -154 71 C-154 70.34 -154 69.68 -154 69 C-153.34 69 -152.68 69 -152 69 C-152 68.34 -152 67.68 -152 67 C-150.22934889 66.35366725 -148.45847247 65.7079517 -146.6875 65.0625 C-145.70136719 64.70285156 -144.71523437 64.34320313 -143.69921875 63.97265625 C-141.8079437 63.29114035 -139.90715671 62.6357189 -138 62 C-137.67 60.35 -137.34 58.7 -137 57 C-134.69 56.34 -132.38 55.68 -130 55 C-130 54.34 -130 53.68 -130 53 C-128.14453125 52.31640625 -126.2890625 51.6328125 -124.43359375 50.94921875 C-122.49902062 50.19464207 -120.58827437 49.37904049 -118.6875 48.54296875 C-115.02099573 47.00878529 -111.35714574 45.80169556 -107.5625 44.625 C-103.44405385 43.30965596 -99.61722954 42.0232232 -96.0625 39.5 C-91.89242526 36.59986163 -87.25104223 35.42136288 -82.43286133 34.02661133 C-76.45574496 32.25379071 -70.8640245 29.89063087 -65.22851562 27.23486328 C-61.81832571 25.65681805 -59.84142642 25 -56 25 C-56 24.34 -56 23.68 -56 23 C-55.35933594 22.74605469 -54.71867187 22.49210937 -54.05859375 22.23046875 C-50.07505547 20.64536485 -46.10208555 19.06193867 -42.1875 17.3125 C-39.41060714 16.16907353 -36.95677786 15.44799665 -34 15 C-34 14.34 -34 13.68 -34 13 C-29.76580933 11.02212408 -25.72062189 9.18901558 -21.1875 8 C-17.63636285 6.88591776 -16.54022735 5.61960946 -14 3 C-9.1561513 0.44098559 -5.47048646 -0.43763892 0 0 Z " fill="#BDD5E9" transform="translate(315,245)"/>
<path d="M0 0 C1.93166016 0.01740234 1.93166016 0.01740234 3.90234375 0.03515625 C5.19269531 0.04417969 6.48304688 0.05320312 7.8125 0.0625 C8.81152344 0.07410156 9.81054688 0.08570312 10.83984375 0.09765625 C11.12859375 0.88140625 11.41734375 1.66515625 11.71484375 2.47265625 C12.68896629 5.19437257 12.68896629 5.19437257 14.83984375 7.09765625 C15.97936789 12.89388963 15.17436308 17.26389711 11.90234375 22.16015625 C9.36724101 25.57025899 9.36724101 25.57025899 7.83984375 27.09765625 C0.31745569 27.33646222 0.31745569 27.33646222 -2.16015625 26.09765625 C-1.91265625 27.24234375 -1.91265625 27.24234375 -1.66015625 28.41015625 C-0.99453476 33.31911474 -1.08095547 38.15200739 -1.16015625 43.09765625 C-3.546875 43.6796875 -3.546875 43.6796875 -6.16015625 44.09765625 C-7.97265625 42.78515625 -7.97265625 42.78515625 -9.16015625 41.09765625 C-9.16015625 40.43765625 -9.16015625 39.77765625 -9.16015625 39.09765625 C-9.94132812 39.83435547 -9.94132812 39.83435547 -10.73828125 40.5859375 C-13.94757647 42.58915887 -16.15937961 42.39767955 -19.91015625 42.28515625 C-21.080625 42.25808594 -22.25109375 42.23101562 -23.45703125 42.203125 C-24.3490625 42.16832031 -25.24109375 42.13351563 -26.16015625 42.09765625 C-26.34191406 42.65195313 -26.52367187 43.20625 -26.7109375 43.77734375 C-26.96230469 44.50179687 -27.21367187 45.22625 -27.47265625 45.97265625 C-27.71628906 46.69195312 -27.95992187 47.41125 -28.2109375 48.15234375 C-29.16015625 50.09765625 -29.16015625 50.09765625 -32.16015625 52.09765625 C-37.46413597 52.52539655 -40.86051789 52.59111242 -45.16015625 49.09765625 C-45.16015625 48.43765625 -45.16015625 47.77765625 -45.16015625 47.09765625 C-45.82015625 47.09765625 -46.48015625 47.09765625 -47.16015625 47.09765625 C-47.68624937 41.28724999 -47.93246828 36.04382508 -44.13671875 31.3046875 C-39.74218929 28.62107169 -34.09914938 29.64208295 -29.16015625 30.09765625 C-28.51046875 28.24140625 -28.51046875 28.24140625 -27.84765625 26.34765625 C-26.72291849 23.1341198 -25.58929479 20.52679479 -23.16015625 18.09765625 C-20.2421875 17.48828125 -20.2421875 17.48828125 -16.97265625 17.34765625 C-15.34263672 17.26257813 -15.34263672 17.26257813 -13.6796875 17.17578125 C-12.84824219 17.15 -12.01679688 17.12421875 -11.16015625 17.09765625 C-11.49015625 18.41765625 -11.82015625 19.73765625 -12.16015625 21.09765625 C-9.85015625 21.42765625 -7.54015625 21.75765625 -5.16015625 22.09765625 C-5.17175781 21.25203125 -5.18335938 20.40640625 -5.1953125 19.53515625 C-5.24496619 13.29297789 -5.22616916 7.25684194 -4.16015625 1.09765625 C-3.16015625 0.09765625 -3.16015625 0.09765625 0 0 Z " fill="#C5DAEB" transform="translate(258.16015625,75.90234375)"/>
<path d="M0 0 C0.12352165 5.49918389 0.2143009 10.99756218 0.2746582 16.49780273 C0.29981578 18.36903954 0.33394593 20.24017795 0.37719727 22.11108398 C0.43779677 24.79956303 0.46619603 27.48674436 0.48828125 30.17578125 C0.51408768 31.01337479 0.5398941 31.85096832 0.56648254 32.71394348 C0.56762695 35.0793457 0.56762695 35.0793457 0 39 C-2.32739258 40.94995117 -2.32739258 40.94995117 -5 42 C-6.0725 42.53625 -7.145 43.0725 -8.25 43.625 C-12.53982148 45.19793454 -16.46919099 45.70205564 -21 46 C-20.76228882 44.74968994 -20.76228882 44.74968994 -20.51977539 43.47412109 C-19.96414096 39.76032217 -19.78868817 36.16743453 -19.68359375 32.4140625 C-19.66281265 31.71227875 -19.64203156 31.010495 -19.62062073 30.28744507 C-19.55573676 28.06672042 -19.4965277 25.84588724 -19.4375 23.625 C-19.39425646 22.11066629 -19.3506404 20.59634317 -19.30664062 19.08203125 C-19.20011914 15.38813345 -19.09868323 11.69411646 -19 8 C-18.31292969 7.74605469 -17.62585938 7.49210938 -16.91796875 7.23046875 C-16.01691406 6.88628906 -15.11585938 6.54210937 -14.1875 6.1875 C-13.29417969 5.85105469 -12.40085938 5.51460937 -11.48046875 5.16796875 C-9.05455263 4.02568699 -7.78169035 2.95290384 -6 1 C-4 0 -4 0 0 0 Z " fill="#FCFDFE" transform="translate(262,131)"/>
<path d="M0 0 C0 6.6 0 13.2 0 20 C0.66 20 1.32 20 2 20 C3.125 25.75 3.125 25.75 2 28 C-4.44371475 31.08177662 -10.78905365 33.83848213 -18 33 C-19.01587978 29.95236066 -19.19804406 27.65281033 -19.31640625 24.45703125 C-19.37924805 22.84731445 -19.37924805 22.84731445 -19.44335938 21.20507812 C-19.48267578 20.08552734 -19.52199219 18.96597656 -19.5625 17.8125 C-19.60568359 16.68134766 -19.64886719 15.55019531 -19.69335938 14.38476562 C-19.7994901 11.58998975 -19.90025397 8.79501102 -20 6 C-15.05 4.515 -15.05 4.515 -10 3 C-10 2.34 -10 1.68 -10 1 C-8 0 -8 0 0 0 Z " fill="#FBFCFD" transform="translate(220,230)"/>
<path d="M0 0 C1.23556641 0.01740234 1.23556641 0.01740234 2.49609375 0.03515625 C3.32238281 0.04417969 4.14867187 0.05320313 5 0.0625 C5.63808594 0.07410156 6.27617187 0.08570313 6.93359375 0.09765625 C6.93359375 1.08765625 6.93359375 2.07765625 6.93359375 3.09765625 C6.31484375 3.18015625 5.69609375 3.26265625 5.05859375 3.34765625 C4.35734375 3.59515625 3.65609375 3.84265625 2.93359375 4.09765625 C2.50046875 5.02578125 2.50046875 5.02578125 2.05859375 5.97265625 C0.41030087 9.08609835 -1.8925683 9.77522377 -5.06640625 11.09765625 C-5.72640625 11.09765625 -6.38640625 11.09765625 -7.06640625 11.09765625 C-7.06640625 11.75765625 -7.06640625 12.41765625 -7.06640625 13.09765625 C-8.05640625 13.59265625 -8.05640625 13.59265625 -9.06640625 14.09765625 C-4.77640625 14.09765625 -0.48640625 14.09765625 3.93359375 14.09765625 C2.69723011 19.0431108 2.69723011 19.0431108 -0.06640625 21.09765625 C-2.66015625 21.828125 -2.66015625 21.828125 -5.56640625 22.28515625 C-6.52546875 22.44371094 -7.48453125 22.60226563 -8.47265625 22.765625 C-11.06640625 23.09765625 -11.06640625 23.09765625 -14.06640625 23.09765625 C-14.06640625 23.75765625 -14.06640625 24.41765625 -14.06640625 25.09765625 C-17.53965806 26.25540685 -20.42708073 26.16632277 -24.06640625 26.09765625 C-24.39640625 24.44765625 -24.72640625 22.79765625 -25.06640625 21.09765625 C-22.42640625 19.77765625 -19.78640625 18.45765625 -17.06640625 17.09765625 C-19.04640625 16.43765625 -21.02640625 15.77765625 -23.06640625 15.09765625 C-22.8125 13.21484375 -22.8125 13.21484375 -22.06640625 11.09765625 C-20.3515625 10.04296875 -20.3515625 10.04296875 -18.12890625 9.22265625 C-12.62494652 7.00517007 -5.54102698 0.26186328 0 0 Z " fill="#D0E1EF" transform="translate(220.06640625,147.90234375)"/>
<path d="M0 0 C2.05078125 0.03255208 4.1015625 0.06510417 6.15234375 0.09765625 C5.82234375 1.74765625 5.49234375 3.39765625 5.15234375 5.09765625 C4.49234375 5.09765625 3.83234375 5.09765625 3.15234375 5.09765625 C3.15234375 5.75765625 3.15234375 6.41765625 3.15234375 7.09765625 C-1.44302327 8.91161691 -5.59872869 9.42052735 -10.48046875 9.65625 C-13.29728886 10.18149863 -14.58506531 11.39290331 -16.84765625 13.09765625 C-19.16723515 13.47956265 -21.37903397 13.53436901 -23.7265625 13.59375 C-26.04121095 13.89941679 -26.04121095 13.89941679 -27.3125 16.12890625 C-27.81910156 16.77859375 -28.32570312 17.42828125 -28.84765625 18.09765625 C-31.22265625 18.3828125 -31.22265625 18.3828125 -33.84765625 18.16015625 C-36.42991863 17.88485762 -36.42991863 17.88485762 -38.84765625 18.09765625 C-40.45048375 19.46608487 -40.45048375 19.46608487 -41.84765625 21.09765625 C-43.75 22.046875 -43.75 22.046875 -45.78515625 22.78515625 C-46.45417969 23.03652344 -47.12320313 23.28789062 -47.8125 23.546875 C-49.84765625 24.09765625 -49.84765625 24.09765625 -53.84765625 24.09765625 C-53.91015625 21.84765625 -53.91015625 21.84765625 -52.84765625 19.09765625 C-50.61972708 17.81398612 -48.38102073 16.89916613 -45.9765625 15.9921875 C-43.68520062 15.18718775 -43.68520062 15.18718775 -41.84765625 13.09765625 C-39.33055101 12.51479312 -36.81173372 12.14522618 -34.2578125 11.7578125 C-31.53578603 11.01223313 -30.76876204 10.07541664 -28.84765625 8.09765625 C-26.76171875 7.4375 -26.76171875 7.4375 -24.47265625 7.03515625 C-21.97798693 6.58508704 -19.80828593 6.08188247 -17.44921875 5.13671875 C-14.53538559 3.97293553 -11.65057585 3.25326911 -8.59765625 2.53515625 C-5.70194639 1.85360503 -2.72216605 0.1438777 0 0 Z " fill="#C1D8EA" transform="translate(264.84765625,187.90234375)"/>
<path d="M0 0 C0.99 0.33 1.98 0.66 3 1 C2.99666908 2.60229965 2.99666908 2.60229965 2.99327087 4.23696899 C2.97265398 14.49699832 2.95784781 24.75702324 2.94818783 35.01706886 C2.94305406 40.28694167 2.93613877 45.55679726 2.92456055 50.82666016 C2.87842964 72.38530216 2.92189982 93.92158195 3.57502556 115.47159576 C4.03879129 130.77862348 4.0873699 146.06030404 4 161.375 C3.97322504 166.27864307 3.95345593 171.1822488 3.9375 176.0859375 C3.92920166 177.17224457 3.92090332 178.25855164 3.91235352 179.3777771 C3.89403883 185.02165936 4.14942499 190.41852009 5 196 C2.36 196.33 -0.28 196.66 -3 197 C-2.505 196.01 -2.505 196.01 -2 195 C0.0625 194.375 0.0625 194.375 2 194 C1.83628906 192.73349609 1.67257812 191.46699219 1.50390625 190.16210938 C0.92183751 184.89525983 0.89048246 179.69981146 0.9375 174.40625 C0.9460748 172.32519577 0.95453345 170.24414105 0.96289062 168.16308594 C0.97219604 166.53542297 0.97219604 166.53542297 0.98168945 164.87487793 C1.07420378 147.82325418 1.01273621 130.79425301 0.5 113.75 C0.01433834 97.20775211 -0.11283518 80.67412504 -0.125 64.125 C-0.12874634 62.37552063 -0.12874634 62.37552063 -0.13256836 60.59069824 C-0.15344714 48.78541742 -0.1317467 37.01410189 0.6890564 25.23233032 C1.1844902 17.77369102 0.66684231 10.43785652 0 3 C-1.32 3.33 -2.64 3.66 -4 4 C-2.68 2.68 -1.36 1.36 0 0 Z " fill="#DDE9F3" transform="translate(278,46)"/>
<path d="M0 0 C-1.01497436 3.04492309 -1.5821057 4.0298639 -4 6 C-4.66 6.144375 -5.32 6.28875 -6 6.4375 C-8.18074954 6.83077817 -8.18074954 6.83077817 -9.4375 8.9375 C-11.37280353 11.49210066 -13.05313307 11.85000315 -16 13 C-17.35432675 14.31200404 -18.68733482 15.64631404 -20 17 C-23.7985909 19.79896172 -26.3031662 20.32768608 -31 20 C-31 21.32 -31 22.64 -31 24 C-33.31 24 -35.62 24 -38 24 C-38 23.01 -38 22.02 -38 21 C-39.98 21 -41.96 21 -44 21 C-42.875 19.0625 -42.875 19.0625 -41 17 C-37.8125 16.25 -37.8125 16.25 -35 16 C-34.67 15.01 -34.34 14.02 -34 13 C-31.99609375 11.9375 -31.99609375 11.9375 -29.4375 11 C-28.53773438 10.66484375 -27.63796875 10.3296875 -26.7109375 9.984375 C-25.81632812 9.65953125 -24.92171875 9.3346875 -24 9 C-23.22914063 8.69578125 -22.45828125 8.3915625 -21.6640625 8.078125 C-18.63860622 6.88593777 -16.28096907 6 -13 6 C-13 5.34 -13 4.68 -13 4 C-11.2097939 3.32942113 -9.41778511 2.6636531 -7.625 2 C-6.62726563 1.62875 -5.62953125 1.2575 -4.6015625 0.875 C-2 0 -2 0 0 0 Z " fill="#FAFBFD" transform="translate(210,91)"/>
<path d="M0 0 C0.66 0 1.32 0 2 0 C2.33 0.66 2.66 1.32 3 2 C3.99 2.66 4.98 3.32 6 4 C5.835 5.09699219 5.67 6.19398437 5.5 7.32421875 C4.85312798 12.49350061 4.92720825 17.61152982 5 22.8125 C5.0255054 24.67311891 5.04653953 26.53380599 5.0625 28.39453125 C5.07410156 29.20768799 5.08570313 30.02084473 5.09765625 30.85864258 C5 33 5 33 4 36 C3.85714431 39.01101506 3.76634056 42.00294509 3.71875 45.015625 C3.70034058 45.90481628 3.68193115 46.79400757 3.66296387 47.71014404 C3.60421808 50.55669542 3.55144335 53.40330787 3.5 56.25 C3.43200772 59.98449194 3.35823232 63.71880886 3.28125 67.453125 C3.26767456 68.30440979 3.25409912 69.15569458 3.2401123 70.03277588 C3.1423098 74.77525461 2.69480501 79.30056686 2 84 C1.86985944 86.55048659 1.77818354 89.10313699 1.71875 91.65625 C1.70034058 92.36221313 1.68193115 93.06817627 1.66296387 93.79553223 C1.60478215 96.03027846 1.55172718 98.26509565 1.5 100.5 C1.4317668 103.44805679 1.35812099 106.39590715 1.28125 109.34375 C1.25095703 110.64505859 1.22066406 111.94636719 1.18945312 113.28710938 C1.00434529 116.9148413 0.55162775 120.41199549 0 124 C-0.19192656 126.51903606 -0.35746768 129.04018697 -0.5 131.5625 C-0.5814795 132.9596677 -0.66352299 134.35680261 -0.74609375 135.75390625 C-0.78718262 136.45531738 -0.82827148 137.15672852 -0.87060547 137.87939453 C-1.19868285 143.25614944 -1.60547854 148.62779287 -2 154 C-2.66 154 -3.32 154 -4 154 C-3.73490148 148.86279968 -3.46830672 143.72567975 -3.20043945 138.58862305 C-3.10987818 136.8480835 -3.01969661 135.10752415 -2.92993164 133.36694336 C-2.79938793 130.83702083 -2.66768858 128.30716286 -2.53515625 125.77734375 C-2.46864365 124.50704063 -2.46864365 124.50704063 -2.40078735 123.21107483 C-2.14794349 118.47731405 -1.84524006 113.75126121 -1.49609375 109.0234375 C-0.57736733 95.65628423 -0.31184706 82.24573417 0.125 68.85620117 C0.24722707 65.13710847 0.37344721 61.41816639 0.5 57.69921875 C0.53544922 56.57295578 0.57089844 55.44669281 0.60742188 54.28630066 C0.80335435 48.56915966 1.16777381 42.92468335 1.78384399 37.23802185 C2.28239142 32.07619426 2.18593572 26.88386323 2.18530273 21.70288086 C2.18751531 19.6734598 2.20581705 17.64456171 2.22460938 15.61523438 C2.22654297 14.32294922 2.22847656 13.03066406 2.23046875 11.69921875 C2.23457764 10.53221436 2.23868652 9.36520996 2.24291992 8.1628418 C2.0022111 5.02878876 1.33727077 2.82393691 0 0 Z " fill="#D9E7F2" transform="translate(49,46)"/>
<path d="M0 0 C-0.75 4.75 -0.75 4.75 -3 7 C-5.36943487 7.87767575 -7.71750185 8.68083281 -10.125 9.4375 C-14.27064557 10.76432224 -18.36834632 12.10234294 -22.375 13.8125 C-27.0362007 15.33944506 -32.44477323 16.27761339 -37 14 C-36.9375 12.1875 -36.9375 12.1875 -36 10 C-31.77257642 7.75687729 -27.61035349 6.60354994 -22.97265625 5.53125 C-19.84724649 4.68955549 -16.96199803 3.29250823 -14 2 C-9.15320972 0.3555533 -5.11594448 -0.20881406 0 0 Z " fill="#DCE8F3" transform="translate(230,176)"/>
<path d="M0 0 C-2.40873878 5.62039049 -6.69056846 7.57147078 -12 10 C-14.82076326 11.10394244 -17.65101328 12.13273899 -20.51953125 13.10546875 C-22.98219727 13.92818373 -22.98219727 13.92818373 -25.08984375 15.10546875 C-28.01865819 16.47704034 -30.82114773 16.12226355 -34 16 C-34.66 14.68 -35.32 13.36 -36 12 C-31.42270362 7.42270362 -26.10863927 6.41215479 -20 5 C-20 4.34 -20 3.68 -20 3 C-17.79344925 2.49219106 -15.58466395 1.99408635 -13.375 1.5 C-11.53035156 1.08234375 -11.53035156 1.08234375 -9.6484375 0.65625 C-6.32847772 0.05908379 -3.36091549 -0.12409534 0 0 Z " fill="#C2D8EA" transform="translate(272,222)"/>
<path d="M0 0 C0.33 0 0.66 0 1 0 C1.02505615 1.12269287 1.0501123 2.24538574 1.07592773 3.40209961 C1.17163486 7.65347612 1.27142447 11.90474946 1.37231445 16.15600586 C1.41505761 17.97987418 1.45676086 19.80376723 1.49731445 21.62768555 C1.70806838 31.0751856 1.98975602 40.4953304 2.60264587 49.9259491 C3.04504507 57.07579322 3.27088608 64.23121662 3.5 71.390625 C3.54121475 72.674496 3.5824295 73.958367 3.62489319 75.28114319 C3.79489359 80.63703693 3.96183914 85.99301537 4.125 91.34912109 C4.24564293 95.30059765 4.37288331 99.25185135 4.5 103.203125 C4.53544922 104.41454163 4.57089844 105.62595825 4.60742188 106.87408447 C4.64416016 108.00006042 4.68089844 109.12603638 4.71875 110.28613281 C4.74904297 111.27188293 4.77933594 112.25763306 4.81054688 113.27325439 C4.99507097 115.92905782 5.45310453 118.39855684 6 121 C6.06533435 122.93651019 6.08584303 124.87502861 6.0625 126.8125 C6.05347656 127.78832031 6.04445313 128.76414063 6.03515625 129.76953125 C6.02355469 130.50558594 6.01195312 131.24164063 6 132 C5.34 132 4.68 132 4 132 C2.4931652 120.32341693 1.4329352 108.69746422 0.875 96.9375 C0.83264221 96.07788666 0.79028442 95.21827332 0.74664307 94.33261108 C-0.74186922 62.93260985 -0.17304667 31.42562933 0 0 Z " fill="#DCE9F3" transform="translate(305,90)"/>
<path d="M0 0 C0.18451025 9.41002278 0.18451025 9.41002278 -1 14 C1.31 13.34 3.62 12.68 6 12 C5.75 15.375 5.75 15.375 5 19 C2.15181318 20.96841356 -0.21571664 21.25021257 -3.625 21.1875 C-4.40101563 21.18105469 -5.17703125 21.17460937 -5.9765625 21.16796875 C-8 21 -8 21 -10 20 C-10 14.06 -10 8.12 -10 2 C-3 0 -3 0 0 0 Z " fill="#C1D8EA" transform="translate(206,115)"/>
<path d="M0 0 C0 12.21 0 24.42 0 37 C-0.33 37 -0.66 37 -1 37 C-1.33 25.12 -1.66 13.24 -2 1 C-6.29 3.31 -10.58 5.62 -15 8 C-15.66 8 -16.32 8 -17 8 C-16.96447021 8.68513672 -16.92894043 9.37027344 -16.89233398 10.07617188 C-16.73353631 13.21713156 -16.58544221 16.35851104 -16.4375 19.5 C-16.38142578 20.57765625 -16.32535156 21.6553125 -16.26757812 22.765625 C-15.85373968 31.81489243 -15.85373968 31.81489243 -16.46484375 36.04296875 C-17.17788586 41.3153166 -17.14740255 46.49869576 -17.125 51.8125 C-17.12306641 52.96065186 -17.12113281 54.10880371 -17.11914062 55.29174805 C-17.08144186 62.97653677 -16.84306383 70.63614697 -16.5 78.3125 C-15.93785538 91.16615296 -15.88619796 104.01095842 -15.875 116.875 C-15.87250244 117.88446686 -15.87000488 118.89393372 -15.86743164 119.93399048 C-15.86153684 122.82842441 -15.8630314 125.72275237 -15.8671875 128.6171875 C-15.86421158 129.9264193 -15.86421158 129.9264193 -15.86117554 131.26210022 C-15.87662982 135.30659723 -15.98606778 139.05402147 -17 143 C-17.33 143 -17.66 143 -18 143 C-17.99476318 141.69256836 -17.98952637 140.38513672 -17.98413086 139.03808594 C-17.77393271 109.54325048 -17.77393271 109.54325048 -18.5 80.0625 C-19.07971846 66.72897552 -19.18608187 53.4191166 -19.03541565 40.07627869 C-18.98925607 35.43131888 -19.05762094 30.79690031 -19.16015625 26.15234375 C-19.17128146 23.72657089 -19.18049532 21.30078826 -19.1875 18.875 C-19.23213379 17.77341553 -19.27676758 16.67183105 -19.32275391 15.53686523 C-19.29207749 12.33671149 -19.1505256 9.99125304 -18 7 C-12.96167376 2.31597073 -6.89539221 -1.72384805 0 0 Z " fill="#DAE7F2" transform="translate(305,53)"/>
<path d="M0 0 C0.3125 2.3125 0.3125 2.3125 0 5 C-2 6.5625 -2 6.5625 -5 8 C-5.56976563 8.31839844 -6.13953125 8.63679687 -6.7265625 8.96484375 C-12.24278436 11.9726602 -17.92669667 13.50162297 -24 15 C-24.74894531 15.20753906 -25.49789062 15.41507813 -26.26953125 15.62890625 C-30.27506478 16.72410949 -33.85057713 17.20747114 -38 17 C-38 16.34 -38 15.68 -38 15 C-36.3767313 14.3291288 -34.75132422 13.66342971 -33.125 13 C-32.22007812 12.62875 -31.31515625 12.2575 -30.3828125 11.875 C-28 11 -28 11 -26 11 C-26 10.34 -26 9.68 -26 9 C-25.071875 8.608125 -24.14375 8.21625 -23.1875 7.8125 C-18.95717438 6.0118115 -14.80456946 4.05087095 -10.6484375 2.0859375 C-7.02908038 0.60189432 -3.90420101 0 0 0 Z " fill="#CBDEED" transform="translate(273,234)"/>
<path d="M0 0 C0.99 0.33 1.98 0.66 3 1 C2.34 1.9075 1.68 2.815 1 3.75 C-1.34939828 6.93175815 -1.34939828 6.93175815 -1 11 C1.24224658 11.58963678 1.24224658 11.58963678 4 11 C5.68766907 9.35549382 7.06828085 7.61721748 8.47265625 5.7265625 C10.24734868 3.72038845 11.47329135 2.89177952 14 2 C17.25 1.875 17.25 1.875 20 2 C19.03644647 19.85649203 19.03644647 19.85649203 18 28 C16.54980469 28.05607422 16.54980469 28.05607422 15.0703125 28.11328125 C5.71162857 28.58584846 -2.56280446 29.60046914 -11 34 C-11 35.65 -11 37.3 -11 39 C-11.66 38.34 -12.32 37.68 -13 37 C-12.79518821 34.33744676 -12.36143198 32.54214797 -10.875 30.3125 C-8.14462047 28.40123433 -5.2004572 27.82974816 -2 27 C-1.67 26.67 -1.34 26.34 -1 26 C1.86469325 25.92669669 4.69893674 25.90782169 7.5625 25.9375 C10.346875 25.958125 13.13125 25.97875 16 26 C16.33 18.74 16.66 11.48 17 4 C13.4393243 6.13640542 11.39682535 7.4494774 8.625 10.1875 C5.83428808 12.64845602 5.0953953 12.98748914 1.1875 13.5 C-2 13 -2 13 -4 11 C-4.52981019 7.02642355 -4.31881474 5.45829619 -2 2.125 C-1.34 1.42375 -0.68 0.7225 0 0 Z " fill="#E5EEF6" transform="translate(142,196)"/>
<path d="M0 0 C2.31 0.33 4.62 0.66 7 1 C7.90238747 3.70716242 8.11851302 5.23776768 8.09765625 8.01171875 C8.09443359 8.76904297 8.09121094 9.52636719 8.08789062 10.30664062 C8.07951172 11.09232422 8.07113281 11.87800781 8.0625 12.6875 C8.05798828 13.48478516 8.05347656 14.28207031 8.04882812 15.10351562 C8.0370585 17.06904257 8.01912348 19.03453085 8 21 C5.08517222 21.80967438 3.53886783 22.21845993 0.6875 21.0625 C-0.1478125 20.5365625 -0.1478125 20.5365625 -1 20 C-1.12910853 13.25766581 -0.797837 6.69613196 0 0 Z " fill="#FCFDFE" transform="translate(171,172)"/>
<path d="M0 0 C3.28440793 0.56627723 4.90095516 1.39958035 7 4 C7.37231445 5.96118164 7.37231445 5.96118164 7.36328125 8.16015625 C7.36263672 8.95357422 7.36199219 9.74699219 7.36132812 10.56445312 C7.34521484 11.38880859 7.32910156 12.21316406 7.3125 13.0625 C7.31572266 13.89072266 7.31894531 14.71894531 7.32226562 15.57226562 C7.26712592 21.73287408 7.26712592 21.73287408 5 24 C1.875 24.125 1.875 24.125 -1 24 C-1.02720824 21.31243045 -1.0469388 18.62514202 -1.0625 15.9375 C-1.07087891 15.18533203 -1.07925781 14.43316406 -1.08789062 13.65820312 C-1.10808341 8.99366882 -0.77595959 4.60076827 0 0 Z " fill="#F1F6FA" transform="translate(168,235)"/>
<path d="M0 0 C4 1 4 1 6 4 C6.22705078 6.63549805 6.22705078 6.63549805 6.1953125 9.76171875 C6.18886719 10.87998047 6.18242187 11.99824219 6.17578125 13.15039062 C6.15902344 14.31763672 6.14226562 15.48488281 6.125 16.6875 C6.11597656 17.86634766 6.10695312 19.04519531 6.09765625 20.25976562 C6.07406423 23.17338026 6.0411454 26.08658892 6 29 C3.69 28.34 1.38 27.68 -1 27 C-0.67 18.09 -0.34 9.18 0 0 Z " fill="#F9FBFD" transform="translate(170,200)"/>
<path d="M0 0 C1.32 0.33 2.64 0.66 4 1 C4 1.99 4 2.98 4 4 C5.32 4.66 6.64 5.32 8 6 C8 10.95 8 15.9 8 21 C1 20 1 20 0 19 C-0.08651611 17.58429877 -0.10704904 16.164405 -0.09765625 14.74609375 C-0.09443359 13.89208984 -0.09121094 13.03808594 -0.08789062 12.15820312 C-0.07951172 11.26037109 -0.07113281 10.36253906 -0.0625 9.4375 C-0.05798828 8.53580078 -0.05347656 7.63410156 -0.04882812 6.70507812 C-0.03700225 4.46998686 -0.0205222 2.23502563 0 0 Z " fill="#F5F9FB" transform="translate(171,146)"/>
<path d="M0 0 C-1 3 -1 3 -3.4765625 4.28125 C-4.51554687 4.6834375 -5.55453125 5.085625 -6.625 5.5 C-7.71425781 5.93054688 -8.80351562 6.36109375 -9.92578125 6.8046875 C-10.94027344 7.19914063 -11.95476562 7.59359375 -13 8 C-14.27399797 8.53418097 -15.54560825 9.0741775 -16.8125 9.625 C-17.864375 10.07875 -18.91625 10.5325 -20 11 C-21.175625 11.556875 -22.35125 12.11375 -23.5625 12.6875 C-27.00724961 14.00276803 -29.35562859 14.26666132 -33 14 C-32.02551631 11.54327534 -31.39919155 10.24597488 -29.1171875 8.83984375 C-28.37726563 8.54207031 -27.63734375 8.24429688 -26.875 7.9375 C-26.070625 7.6075 -25.26625 7.2775 -24.4375 6.9375 C-21.5996932 5.84603585 -18.76279099 4.75745636 -15.90234375 3.7265625 C-14.04198075 3.01603371 -12.23723251 2.16500487 -10.4375 1.3125 C-6.71495102 -0.10883688 -3.94931919 -0.24179505 0 0 Z " fill="#BFD7E9" transform="translate(271,208)"/>
<path d="M0 0 C4.66700256 1.16675064 5.54414874 1.97392526 8 6 C8.390625 9.55078125 8.390625 9.55078125 8.25 13.3125 C8.21390625 14.56675781 8.1778125 15.82101563 8.140625 17.11328125 C8.07101563 18.54220703 8.07101563 18.54220703 8 20 C5.36 19.67 2.72 19.34 0 19 C0 12.73 0 6.46 0 0 Z " fill="#F1F6FA" transform="translate(172,121)"/>
<path d="M0 0 C1.58294782 -0.05437607 3.16644256 -0.09296271 4.75 -0.125 C5.63171875 -0.14820313 6.5134375 -0.17140625 7.421875 -0.1953125 C10.1135858 0.00860498 11.69904974 0.63448279 14 2 C14.06058594 3.24136719 14.12117188 4.48273438 14.18359375 5.76171875 C14.26803623 7.40365577 14.35268236 9.04558232 14.4375 10.6875 C14.47681641 11.50412109 14.51613281 12.32074219 14.55664062 13.16210938 C14.73052884 16.4659855 14.91643978 19.5997905 15.59375 22.84375 C16.22065676 26.17117821 15.05064866 28.84805401 14 32 C12.35 32 10.7 32 9 32 C8.67 32.99 8.34 33.98 8 35 C5.92578125 35.703125 5.92578125 35.703125 3.3125 36.25 C-1.46740899 37.55796937 -3.97295468 39.20803155 -6.94921875 43.1484375 C-8.4049384 45.71353457 -8.85727761 48.07419105 -9 51 C-7.35 51.33 -5.7 51.66 -4 52 C-4 52.33 -4 52.66 -4 53 C-6.875 53.125 -6.875 53.125 -10 53 C-10.66 52.34 -11.32 51.68 -12 51 C-11.71262715 44.74746354 -8.75390237 41.66907536 -4.6171875 37.28125 C0.33600761 32.96383814 5.46505339 31 12 31 C12 21.76 12 12.52 12 3 C6.06 2.01 6.06 2.01 0 1 C0 0.67 0 0.34 0 0 Z " fill="#DDE9F3" transform="translate(145,230)"/>
<path d="M0 0 C-1.01497436 3.04492309 -1.5821057 4.0298639 -4 6 C-4.66 6.144375 -5.32 6.28875 -6 6.4375 C-8.18074954 6.83077817 -8.18074954 6.83077817 -9.4375 8.9375 C-11.37280353 11.49210066 -13.05313307 11.85000315 -16 13 C-17.35432675 14.31200404 -18.68733482 15.64631404 -20 17 C-22.625 18.8125 -22.625 18.8125 -25 20 C-25.66 19.67 -26.32 19.34 -27 19 C-24.42799744 16.94239795 -21.85640063 14.88903685 -19.25 12.875 C-16.93200395 11.19802359 -16.93200395 11.19802359 -16 9 C-18.31 9.33 -20.62 9.66 -23 10 C-23 10.66 -23 11.32 -23 12 C-29.96428571 14.27678571 -29.96428571 14.27678571 -34 13 C-30.67083939 11.65605607 -27.33700016 10.3243571 -24 9 C-22.84177734 8.53787109 -22.84177734 8.53787109 -21.66015625 8.06640625 C-18.63421191 6.88871097 -16.27669121 6 -13 6 C-13 5.34 -13 4.68 -13 4 C-11.2097939 3.32942113 -9.41778511 2.6636531 -7.625 2 C-6.62726563 1.62875 -5.62953125 1.2575 -4.6015625 0.875 C-2 0 -2 0 0 0 Z " fill="#DAE8F2" transform="translate(210,91)"/>
<path d="M0 0 C-2.62467778 3.93701667 -5.60834934 4.42721076 -9.9375 5.6875 C-10.66646484 5.91244141 -11.39542969 6.13738281 -12.14648438 6.36914062 C-15.188033 7.28634456 -17.80691218 8 -21 8 C-21 8.66 -21 9.32 -21 10 C-23.31 10 -25.62 10 -28 10 C-28 8.68 -28 7.36 -28 6 C-27.39414063 5.81824219 -26.78828125 5.63648438 -26.1640625 5.44921875 C-25.32617188 5.19785156 -24.48828125 4.94648438 -23.625 4.6875 C-22.71234375 4.41679687 -21.7996875 4.14609375 -20.859375 3.8671875 C-19.02929276 3.31216256 -17.20542458 2.73593452 -15.390625 2.1328125 C-10.02662536 0.38368218 -5.6427643 -0.31348691 0 0 Z " fill="#BFD6E9" transform="translate(223,163)"/>
<path d="M0 0 C-3.77252383 2.67727498 -7.14941247 3.60705474 -11.62109375 4.375 C-14.6718236 5.17650538 -17.21451074 6.5270076 -20 8 C-27.36601723 11.87856659 -34.74416524 15.17531718 -42.56787109 17.99536133 C-45.19579594 18.94268216 -47.7452936 19.86547197 -50.21875 21.171875 C-52 22 -52 22 -56 22 C-56 21.34 -56 20.68 -56 20 C-54.14453125 19.31640625 -52.2890625 18.6328125 -50.43359375 17.94921875 C-48.49902062 17.19464207 -46.58827437 16.37904049 -44.6875 15.54296875 C-41.02099573 14.00878529 -37.35714574 12.80169556 -33.5625 11.625 C-29.44405385 10.30965596 -25.61722954 9.0232232 -22.0625 6.5 C-18.21717391 3.810841 -14.06287972 2.51857718 -9.625 1.125 C-8.55197632 0.7837207 -8.55197632 0.7837207 -7.45727539 0.43554688 C-2.259265 -1.1296325 -2.259265 -1.1296325 0 0 Z " fill="#D9E7F2" transform="translate(241,278)"/>
<path d="M0 0 C-0.57344937 2.86724686 -0.8614515 3.8614515 -3 6 C-4.99508067 6.68124706 -6.99638693 7.34427209 -9 8 C-10.48269785 8.70091171 -11.9616658 9.4097493 -13.4375 10.125 C-17.56160168 12.01230077 -20.50591317 12.38247547 -25 12 C-22.98267327 9.50800816 -21.48210258 8.78193793 -18.4375 7.5 C-14.79596415 6.27976695 -14.79596415 6.27976695 -13 3 C-10.72265625 2.05078125 -10.72265625 2.05078125 -8.0625 1.3125 C-7.18722656 1.06113281 -6.31195313 0.80976563 -5.41015625 0.55078125 C-3 0 -3 0 0 0 Z " fill="#BDD5E9" transform="translate(273,234)"/>
<path d="M0 0 C-1 3 -1 3 -3.51953125 4.5 C-12.29452954 8.49715225 -21.19276728 12.31980107 -31 12 C-28.49889617 8.24834425 -25.98218557 7.74054173 -21.875 6.5 C-20.5113581 6.06884733 -19.14807288 5.63656485 -17.78515625 5.203125 C-16.53605469 4.80609375 -15.28695312 4.4090625 -14 4 C-12.43203322 3.43152467 -10.86787263 2.85207973 -9.3125 2.25 C-3.35 0 -3.35 0 0 0 Z " fill="#BDD5E9" transform="translate(229,177)"/>
<path d="M0 0 C0 0.99 0 1.98 0 3 C-3.32068884 4.69275895 -6.65827316 6.34921371 -10 8 C-11.40185547 8.71542969 -11.40185547 8.71542969 -12.83203125 9.4453125 C-18.55655157 12.24752524 -22.6204401 13.60184527 -29 13 C-27.68 12.34 -26.36 11.68 -25 11 C-25 10.34 -25 9.68 -25 9 C-23.42798828 8.51080078 -23.42798828 8.51080078 -21.82421875 8.01171875 C-20.44515825 7.57079465 -19.06626038 7.12936168 -17.6875 6.6875 C-16.99720703 6.47416016 -16.30691406 6.26082031 -15.59570312 6.04101562 C-11.98302725 4.87169541 -9.49269246 3.87990682 -7 1 C-4 0 -4 0 0 0 Z " fill="#E2EDF7" transform="translate(186,305)"/>
<path d="M0 0 C0.66 0.33 1.32 0.66 2 1 C1.67 1.33 1.34 1.66 1 2 C-1.83638544 20.12965292 -1.83638544 20.12965292 1 38 C1.66 38.66 2.32 39.32 3 40 C3.99 39.01 4.98 38.02 6 37 C5.67 38.32 5.34 39.64 5 41 C5.66 41.33 6.32 41.66 7 42 C6.505 42.495 6.505 42.495 6 43 C8.64 43.33 11.28 43.66 14 44 C14 44.33 14 44.66 14 45 C12.39592672 45.02708567 10.7917215 45.04643483 9.1875 45.0625 C8.29417969 45.07410156 7.40085938 45.08570313 6.48046875 45.09765625 C4 45 4 45 1 44 C-6.78037745 32.05620987 -2.89269575 14.30413143 -1 1 C-0.67 0.67 -0.34 0.34 0 0 Z " fill="#E0EBF4" transform="translate(236,136)"/>
<path d="M0 0 C0.66 0.33 1.32 0.66 2 1 C-3.14384713 6.53590865 -10.49961565 8.65558141 -17.484375 11.0703125 C-19.97545922 11.92762269 -19.97545922 11.92762269 -22.09375 13.109375 C-25.02069811 14.47688354 -27.82446841 14.12213583 -31 14 C-31.66 12.68 -32.32 11.36 -33 10 C-29.71195019 7.08772731 -27.40114397 5.50298788 -23 5 C-25.14800843 7.36280927 -27.16680467 8.58340234 -30 10 C-30.33 10.66 -30.66 11.32 -31 12 C-25.65936413 11.48515721 -21.43909784 10.08611629 -16.625 7.6875 C-15.3113701 7.0556315 -13.99756843 6.42411997 -12.68359375 5.79296875 C-11.7397583 5.33349854 -11.7397583 5.33349854 -10.77685547 4.86474609 C-7.21846808 3.13297801 -3.66669139 1.49153548 0 0 Z " fill="#DDE9F3" transform="translate(269,224)"/>
<path d="M0 0 C2.5625 0.5625 2.5625 0.5625 3.5625 1.5625 C3.94485426 7.96131105 3.51727011 14.23714804 2.5625 20.5625 C2.2325 20.5625 1.9025 20.5625 1.5625 20.5625 C1.5625 14.6225 1.5625 8.6825 1.5625 2.5625 C-4.31476031 4.52158677 -6.75951157 5.54212083 -9.6875 10.8125 C-9.935 11.39 -10.1825 11.9675 -10.4375 12.5625 C-11.695625 12.60375 -12.95375 12.645 -14.25 12.6875 C-14.95769531 12.71070313 -15.66539062 12.73390625 -16.39453125 12.7578125 C-18.4375 12.5625 -18.4375 12.5625 -21.4375 10.5625 C-21.0625 8.125 -21.0625 8.125 -20.4375 5.5625 C-19.7775 5.2325 -19.1175 4.9025 -18.4375 4.5625 C-18.7675 6.2125 -19.0975 7.8625 -19.4375 9.5625 C-13.8893638 9.58014395 -13.8893638 9.58014395 -9.3359375 6.71484375 C-7.99803051 5.25037799 -6.6633338 3.78297224 -5.33203125 2.3125 C-3.4375 0.5625 -3.4375 0.5625 0 0 Z " fill="#E1ECF4" transform="translate(160.4375,142.4375)"/>
<path d="M0 0 C2 2 2 2 2.04345703 4.15478516 C1.94919434 5.02409668 1.85493164 5.8934082 1.7578125 6.7890625 C1.66113281 7.73007813 1.56445312 8.67109375 1.46484375 9.640625 C1.29662109 11.11789063 1.29662109 11.11789063 1.125 12.625 C1.02058594 13.61757812 0.91617188 14.61015625 0.80859375 15.6328125 C0.5487258 18.08974586 0.27880162 20.54515492 0 23 C0.99 23.33 1.98 23.66 3 24 C3 29.94 3 35.88 3 42 C2.67 42 2.34 42 2 42 C1.67 36.39 1.34 30.78 1 25 C0.01 24.67 -0.98 24.34 -2 24 C-2 23.34 -2 22.68 -2 22 C-5.3 22.66 -8.6 23.32 -12 24 C-12 22.68 -12 21.36 -12 20 C-11.34 19.67 -10.68 19.34 -10 19 C-9.67 18.01 -9.34 17.02 -9 16 C-8.34 16 -7.68 16 -7 16 C-7.33 17.32 -7.66 18.64 -8 20 C-5.69 20.33 -3.38 20.66 -1 21 C-1.01160156 20.154375 -1.02320313 19.30875 -1.03515625 18.4375 C-1.08489687 12.18439382 -0.96940246 6.17994069 0 0 Z " fill="#D9E7F2" transform="translate(254,77)"/>
<path d="M0 0 C-0.27657492 3.31889905 -0.78366908 4.76400263 -3.0625 7.25 C-6.85762944 9.51092818 -9.61658852 9.70281956 -14 10 C-14 10.66 -14 11.32 -14 12 C-21.55695694 15.27039868 -27.71323376 17.70226833 -36 17 C-35.67 16.34 -35.34 15.68 -35 15 C-32.51308326 14.64213766 -30.05202642 14.55629663 -27.54296875 14.44140625 C-24.5623875 13.92403961 -23.36573113 12.83400489 -21 11 C-19.01716235 10.28389994 -17.01474249 9.62069085 -15 9 C-12.88707315 8.18913508 -10.78263176 7.35579479 -8.6875 6.5 C-7.63949219 6.0771875 -6.59148437 5.654375 -5.51171875 5.21875 C-2.87279635 4.25348337 -2.87279635 4.25348337 -2 2 C-7.55053286 2.74359673 -7.55053286 2.74359673 -13 4 C-12.34 3.67 -11.68 3.34 -11 3 C-11 2.34 -11 1.68 -11 1 C-3.375 0 -3.375 0 0 0 Z " fill="#DFEBF4" transform="translate(273,206)"/>
<path d="M0 0 C2.31 0.33 4.62 0.66 7 1 C7.90238747 3.70716242 8.11851302 5.23776768 8.09765625 8.01171875 C8.09443359 8.76904297 8.09121094 9.52636719 8.08789062 10.30664062 C8.07951172 11.09232422 8.07113281 11.87800781 8.0625 12.6875 C8.05798828 13.48478516 8.05347656 14.28207031 8.04882812 15.10351562 C8.0370585 17.06904257 8.01912348 19.03453085 8 21 C5.08517222 21.80967438 3.53886783 22.21845993 0.6875 21.0625 C-0.1478125 20.5365625 -0.1478125 20.5365625 -1 20 C-1.12910853 13.25766581 -0.797837 6.69613196 0 0 Z M1 1 C1 6.94 1 12.88 1 19 C2.32 19.33 3.64 19.66 5 20 C6.924352 18.075648 6.44083951 14.69798515 6.625 12.125 C6.72039062 10.86945313 6.81578125 9.61390625 6.9140625 8.3203125 C7.18869107 4.99829348 7.18869107 4.99829348 6 2 C4.35 1.67 2.7 1.34 1 1 Z " fill="#DFEBF4" transform="translate(171,172)"/>
<path d="M0 0 C0.18451025 9.41002278 0.18451025 9.41002278 -1 14 C1.31 13.34 3.62 12.68 6 12 C5.67 12.99 5.34 13.98 5 15 C2.69 15 0.38 15 -2 15 C-2 10.71 -2 6.42 -2 2 C-4.31 2.33 -6.62 2.66 -9 3 C-9 7.95 -9 12.9 -9 18 C-1.78495794 19.22975177 -1.78495794 19.22975177 5 17 C5 17.66 5 18.32 5 19 C1.99060247 20.73830497 -0.15942665 21.251248 -3.625 21.1875 C-4.40101563 21.18105469 -5.17703125 21.17460937 -5.9765625 21.16796875 C-8 21 -8 21 -10 20 C-10 14.06 -10 8.12 -10 2 C-3 0 -3 0 0 0 Z " fill="#D8E6F2" transform="translate(206,115)"/>
<path d="M0 0 C-0.52234147 3.76085859 -1.12362287 6.41126058 -4 9 C-7.6875 9.25 -7.6875 9.25 -11 9 C-8.95145092 1.90886858 -7.67109219 -0.51140615 0 0 Z " fill="#BDD5E9" transform="translate(206,203)"/>
<path d="M0 0 C0.33 0 0.66 0 1 0 C0.72100633 10.08562115 -0.54405857 18.46803132 -4 28 C-3.01 28.33 -2.02 28.66 -1 29 C-5 29 -5 29 -8 27 C-8 26.34 -8 25.68 -8 25 C-7.34 24.67 -6.68 24.34 -6 24 C-5.38297191 21.78425456 -5.38297191 21.78425456 -5 19.1875 C-4.42473468 15.71022661 -3.57397627 13.12965049 -2 10 C-1.57336714 8.26186612 -1.19923141 6.51011335 -0.875 4.75 C-0.62363281 3.41195312 -0.62363281 3.41195312 -0.3671875 2.046875 C-0.24601562 1.37140625 -0.12484375 0.6959375 0 0 Z " fill="#D0E1EF" transform="translate(43,227)"/>
<path d="M0 0 C0 12.21 0 24.42 0 37 C-0.33 37 -0.66 37 -1 37 C-1.33 25.12 -1.66 13.24 -2 1 C-6.29 3.31 -10.58 5.62 -15 8 C-15.66 8 -16.32 8 -17 8 C-17 7.34 -17 6.68 -17 6 C-15.5839401 5.20724852 -14.16712447 4.41584688 -12.75 3.625 C-11.56664062 2.96371094 -11.56664062 2.96371094 -10.359375 2.2890625 C-9.58078125 1.86367188 -8.8021875 1.43828125 -8 1 C-7.32453125 0.59523437 -6.6490625 0.19046875 -5.953125 -0.2265625 C-4 -1 -4 -1 0 0 Z " fill="#E4EEF6" transform="translate(305,53)"/>
<path d="M0 0 C-0.66 0.66 -1.32 1.32 -2 2 C-0.02 2.66 1.96 3.32 4 4 C4 4.66 4 5.32 4 6 C3.01 6 2.02 6 1 6 C1 5.34 1 4.68 1 4 C-1.31 4.33 -3.62 4.66 -6 5 C-6.33 5.99 -6.66 6.98 -7 8 C-9.87109375 9.38671875 -9.87109375 9.38671875 -13.4375 10.6875 C-15.19900391 11.34298828 -15.19900391 11.34298828 -16.99609375 12.01171875 C-20 13 -20 13 -22 13 C-22 12.34 -22 11.68 -22 11 C-20.22934889 10.35366725 -18.45847247 9.7079517 -16.6875 9.0625 C-15.70136719 8.70285156 -14.71523437 8.34320313 -13.69921875 7.97265625 C-11.8079437 7.29114035 -9.90715671 6.6357189 -8 6 C-7.9071875 4.824375 -7.9071875 4.824375 -7.8125 3.625 C-7 1 -7 1 -4.5625 -0.375 C-2 -1 -2 -1 0 0 Z " fill="#C9DDED" transform="translate(185,301)"/>
<path d="M0 0 C0.33 0 0.66 0 1 0 C1.02465288 4.68139254 1.04283739 9.36274759 1.05493164 14.04418945 C1.05997157 15.63794614 1.0668035 17.23169819 1.07543945 18.82543945 C1.08751999 21.11150253 1.09323155 23.39750467 1.09765625 25.68359375 C1.10281754 26.40026718 1.10797882 27.11694061 1.11329651 27.85533142 C1.11349263 29.57063672 1.06192007 31.28581266 1 33 C0.505 33.495 0.505 33.495 0 34 C-0.23427778 36.01594582 -0.41336124 38.038474 -0.5625 40.0625 C-0.68818359 41.71958984 -0.68818359 41.71958984 -0.81640625 43.41015625 C-0.87699219 44.26480469 -0.93757812 45.11945313 -1 46 C-1.33 46 -1.66 46 -2 46 C-2.10142486 35.5081613 -2.05039459 25.04529027 -1.5625 14.5625 C-1.52326416 13.68182861 -1.48402832 12.80115723 -1.44360352 11.89379883 C-1.23857115 7.83998225 -0.96751701 3.95950237 0 0 Z " fill="#D7E6F1" transform="translate(184,214)"/>
<path d="M0 0 C0 0.33 0 0.66 0 1 C-0.96679688 1.03738281 -1.93359375 1.07476562 -2.9296875 1.11328125 C-12.28837143 1.58584846 -20.56280446 2.60046914 -29 7 C-29 8.65 -29 10.3 -29 12 C-29.66 11.34 -30.32 10.68 -31 10 C-30.78832599 7.24823788 -30.46009983 5.54941332 -28.671875 3.4140625 C-21.80793185 -2.39142213 -8.41516674 -0.1634013 0 0 Z " fill="#D7E6F1" transform="translate(160,223)"/>
<path d="M0 0 C1.32 0 2.64 0 4 0 C4 2 4 2 1.8125 4.5 C-0.88623757 6.89887784 -2.70894922 7.73421124 -6 9 C-7.35432675 10.31200404 -8.68733482 11.64631404 -10 13 C-12.625 14.8125 -12.625 14.8125 -15 16 C-15.66 15.67 -16.32 15.34 -17 15 C-12 11 -12 11 -9.5 9.0625 C-6.82406123 6.85485051 -4.41899778 4.4843761 -2 2 C-1.34 1.34 -0.68 0.68 0 0 Z " fill="#E4EEF6" transform="translate(200,95)"/>
<path d="M0 0 C0.66 0.33 1.32 0.66 2 1 C1.34644531 1.66644531 0.69289062 2.33289063 0.01953125 3.01953125 C-2.55792456 6.82339737 -2.44177412 9.13615947 -2.3125 13.6875 C-2.29799805 14.70166992 -2.29799805 14.70166992 -2.28320312 15.73632812 C-2.22048217 19.49532536 -2.22048217 19.49532536 -1 23 C-1.66 23.33 -2.32 23.66 -3 24 C-3.66 24.99 -4.32 25.98 -5 27 C-5 23.04 -5 19.08 -5 15 C-7.97 14.505 -7.97 14.505 -11 14 C-11 13.67 -11 13.34 -11 13 C-10.05125 12.814375 -9.1025 12.62875 -8.125 12.4375 C-7.09375 11.963125 -6.0625 11.48875 -5 11 C-3.73741634 7.62280804 -3.73741634 7.62280804 -3 4 C-1.375 1.5625 -1.375 1.5625 0 0 Z " fill="#DAE8F3" transform="translate(235,94)"/>
<path d="M0 0 C2.64 0 5.28 0 8 0 C7.67 1.65 7.34 3.3 7 5 C6.34 5 5.68 5 5 5 C5 5.66 5 6.32 5 7 C0.37739606 8.82471208 -3.92009819 9.38952244 -8.828125 9.75390625 C-11.0444726 9.87904151 -11.0444726 9.87904151 -13 11 C-12.67 10.01 -12.34 9.02 -12 8 C-9.35318212 7.19470418 -6.82466794 6.55401881 -4.125 6 C2.21771143 4.94507595 2.21771143 4.94507595 7 1 C4.36 1.33 1.72 1.66 -1 2 C-0.67 1.34 -0.34 0.68 0 0 Z " fill="#DCE9F3" transform="translate(263,188)"/>
<path d="M0 0 C2.64 0 5.28 0 8 0 C8 1.32 8 2.64 8 4 C7.01 4 6.02 4 5 4 C5 4.99 5 5.98 5 7 C2.03 6.505 2.03 6.505 -1 6 C-0.67 4.02 -0.34 2.04 0 0 Z " fill="#D7E6F1" transform="translate(239,106)"/>
<path d="M0 0 C-1.65 0.66 -3.3 1.32 -5 2 C-3.35 2.33 -1.7 2.66 0 3 C-1 5 -1 5 -4.3125 6.1875 C-7.57562063 6.90649268 -8.99282882 7.20286847 -12 6 C-11.01 5.67 -10.02 5.34 -9 5 C-8.67 4.34 -8.34 3.68 -8 3 C-9.98 3 -11.96 3 -14 3 C-14 2.34 -14 1.68 -14 1 C-12.41913952 0.63495397 -10.83516093 0.28339494 -9.25 -0.0625 C-8.36828125 -0.25972656 -7.4865625 -0.45695312 -6.578125 -0.66015625 C-4.01320972 -0.99825872 -2.42908361 -0.81158635 0 0 Z " fill="#E4EEF5" transform="translate(214,268)"/>
<path d="M0 0 C0.99 0.33 1.98 0.66 3 1 C2.67 5.29 2.34 9.58 2 14 C1.34 14 0.68 14 0 14 C-1.46876252 9.59371244 -2.41393552 6.49888575 -1 2 C-0.67 1.34 -0.34 0.68 0 0 Z " fill="#D2E2EF" transform="translate(315,230)"/>
<path d="M0 0 C0.99 0.33 1.98 0.66 3 1 C2.071875 1.7425 1.14375 2.485 0.1875 3.25 C-4.43488358 7.14195976 -6.30077024 9.84677808 -7 16 C-5.35 16.33 -3.7 16.66 -2 17 C-2 17.33 -2 17.66 -2 18 C-4.875 18.125 -4.875 18.125 -8 18 C-8.66 17.34 -9.32 16.68 -10 16 C-9.83180798 10.77873466 -7.98357577 8.32090996 -4.4375 4.625 C-3.61121094 3.75101562 -2.78492188 2.87703125 -1.93359375 1.9765625 C-1.29550781 1.32429688 -0.65742188 0.67203125 0 0 Z " fill="#E1ECF5" transform="translate(143,265)"/>
<path d="M0 0 C0 0.66 0 1.32 0 2 C2.97 1.34 5.94 0.68 9 0 C8.67 0.66 8.34 1.32 8 2 C5.93359375 2.6328125 5.93359375 2.6328125 3.4375 3.125 C2.19806641 3.37636719 2.19806641 3.37636719 0.93359375 3.6328125 C0.29550781 3.75398438 -0.34257812 3.87515625 -1 4 C-1 4.66 -1 5.32 -1 6 C-2.98 6.66 -4.96 7.32 -7 8 C-6.01 6.35 -5.02 4.7 -4 3 C-5.65 3 -7.3 3 -9 3 C-6.38997624 -0.48003168 -4.1689578 -0.27793052 0 0 Z " fill="#D1E2EF" transform="translate(228,267)"/>
<path d="M0 0 C0 0.99 0 1.98 0 3 C-7.55025752 6.90995479 -14.48491385 10.11301186 -23 11 C-22.67 10.34 -22.34 9.68 -22 9 C-20.3269676 8.49809028 -18.6509252 8.00396617 -16.9609375 7.5625 C-13.84625644 6.66904567 -10.95493658 5.31916812 -8 4 C-6.70877763 3.45727506 -5.41712127 2.91558135 -4.125 2.375 C-1.18661668 1.3074321 -1.18661668 1.3074321 0 0 Z " fill="#E1ECF5" transform="translate(272,237)"/>
<path d="M0 0 C0.33 0 0.66 0 1 0 C1.50449402 2.58252893 2.00374301 5.16588703 2.5 7.75 C2.64308594 8.47960937 2.78617187 9.20921875 2.93359375 9.9609375 C3.58888879 13.39343532 4 16.49169491 4 20 C0.04 20.495 0.04 20.495 -4 21 C-3.67 20.34 -3.34 19.68 -3 19 C-0.9375 18.375 -0.9375 18.375 1 18 C0.835 16.700625 0.67 15.40125 0.5 14.0625 C-0.0315638 9.34580713 -0.07529541 4.74361065 0 0 Z " fill="#E6EFF6" transform="translate(279,222)"/>
<path d="M0 0 C1.134375 0.020625 2.26875 0.04125 3.4375 0.0625 C3.1075 1.7125 2.7775 3.3625 2.4375 5.0625 C0.4575 5.0625 -1.5225 5.0625 -3.5625 5.0625 C-4.125 3.125 -4.125 3.125 -4.5625 1.0625 C-3.5625 0.0625 -3.5625 0.0625 0 0 Z " fill="#D1E2EF" transform="translate(196.5625,215.9375)"/>
<path d="M0 0 C2.0625 0.4375 2.0625 0.4375 4 1 C4.06058594 1.97582031 4.12117187 2.95164062 4.18359375 3.95703125 C4.26738281 5.22933594 4.35117188 6.50164062 4.4375 7.8125 C4.51871094 9.07707031 4.59992188 10.34164063 4.68359375 11.64453125 C4.87184547 14.99181893 4.87184547 14.99181893 6 18 C5.01 18 4.02 18 3 18 C2.67 12.72 2.34 7.44 2 2 C1.01 1.67 0.02 1.34 -1 1 C-0.67 0.67 -0.34 0.34 0 0 Z " fill="#D5E4F1" transform="translate(156,268)"/>
<path d="M0 0 C0.8971875 0.309375 0.8971875 0.309375 1.8125 0.625 C1.1525 1.285 0.4925 1.945 -0.1875 2.625 C0.8025 3.285 1.7925 3.945 2.8125 4.625 C-0.4875 4.955 -3.7875 5.285 -7.1875 5.625 C-4.02960526 -0.69078947 -4.02960526 -0.69078947 0 0 Z " fill="#CDDFEE" transform="translate(245.1875,216.375)"/>
<path d="M0 0 C2.10633718 1.70828921 2.93801608 2.52148416 3.29296875 5.26171875 C3.25816406 6.06222656 3.22335937 6.86273438 3.1875 7.6875 C3.16042969 8.49574219 3.13335937 9.30398437 3.10546875 10.13671875 C3.07066406 10.75160156 3.03585937 11.36648437 3 12 C2.01 12 1.02 12 0 12 C-0.76173392 7.6835078 -1.16063604 4.25566547 0 0 Z " fill="#F4F8FB" transform="translate(262,83)"/>
<path d="M0 0 C-5.0500701 3.3667134 -11.02187 5.03578548 -17 6 C-12.66171097 0.64093708 -6.55278785 -0.40119109 0 0 Z " fill="#D6E5F1" transform="translate(315,245)"/>
<path d="M0 0 C0 0.66 0 1.32 0 2 C-1.63631892 3.04892238 -3.30485863 4.04906703 -5 5 C-5.33 5.33 -5.66 5.66 -6 6 C-7.99958364 6.04080783 -10.00045254 6.04254356 -12 6 C-12.33 5.34 -12.66 4.68 -13 4 C-11.2097939 3.32942113 -9.41778511 2.6636531 -7.625 2 C-6.62726563 1.62875 -5.62953125 1.2575 -4.6015625 0.875 C-2 0 -2 0 0 0 Z " fill="#D2E9F5" transform="translate(208,83)"/>
<path d="M0 0 C0.66 0.33 1.32 0.66 2 1 C1.67 1.33 1.34 1.66 1 2 C3.31 2 5.62 2 8 2 C7.01 2.495 7.01 2.495 6 3 C6 3.66 6 4.32 6 5 C3.03 5 0.06 5 -3 5 C-3 3.68 -3 2.36 -3 1 C-2.01 0.67 -1.02 0.34 0 0 Z " fill="#CDDFEE" transform="translate(198,186)"/>
<path d="M0 0 C2.31 0 4.62 0 7 0 C6.67 0.99 6.34 1.98 6 3 C5.29875 3.12375 4.5975 3.2475 3.875 3.375 C0.92892938 3.94642786 0.92892938 3.94642786 -2.0625 5.125 C-5.00047707 6.0001421 -6.19888659 6.07735131 -9 5 C-5.86501708 3.14223235 -3.62528568 2.79859524 0 3 C0 2.01 0 1.02 0 0 Z " fill="#D2E3F0" transform="translate(165,112)"/>
<path d="M0 0 C0.928125 0.0825 1.85625 0.165 2.8125 0.25 C2.1525 2.23 1.4925 4.21 0.8125 6.25 C2.7925 6.25 4.7725 6.25 6.8125 6.25 C6.8125 6.58 6.8125 6.91 6.8125 7.25 C4.5025 7.25 2.1925 7.25 -0.1875 7.25 C-0.1875 6.26 -0.1875 5.27 -0.1875 4.25 C-2.1675 4.25 -4.1475 4.25 -6.1875 4.25 C-4.36434338 1.00883268 -3.82500054 0.30000004 0 0 Z " fill="#ECF3F8" transform="translate(172.1875,107.75)"/>
<path d="M0 0 C0.33 0.66 0.66 1.32 1 2 C-1.51830747 5.12270126 -2.7261549 5.94523098 -6.75 6.75 C-8.35875 6.87375 -8.35875 6.87375 -10 7 C-9 4 -9 4 -6.93359375 2.83203125 C-6.10988281 2.49558594 -5.28617187 2.15914063 -4.4375 1.8125 C-3.61121094 1.46832031 -2.78492188 1.12414062 -1.93359375 0.76953125 C-1.29550781 0.51558594 -0.65742188 0.26164062 0 0 Z " fill="#FAFBFD" transform="translate(291,262)"/>
<path d="M0 0 C0.99 0.33 1.98 0.66 3 1 C2.360625 1.9075 1.72125 2.815 1.0625 3.75 C-0.61428953 6.39221381 -1.53689998 7.9898499 -2 11 C-2.66 11 -3.32 11 -4 11 C-4.36630156 7.06225823 -4.30233203 5.43460229 -2 2.125 C-1.34 1.42375 -0.68 0.7225 0 0 Z " fill="#D5E4F1" transform="translate(142,196)"/>
<path d="M0 0 C-0.57344937 2.86724686 -0.8614515 3.8614515 -3 6 C-3.99 5.67 -4.98 5.34 -6 5 C-5.01 4.01 -4.02 3.02 -3 2 C-3.62648438 2.22816406 -4.25296875 2.45632812 -4.8984375 2.69140625 C-5.71570313 2.97886719 -6.53296875 3.26632813 -7.375 3.5625 C-8.59316406 3.99755859 -8.59316406 3.99755859 -9.8359375 4.44140625 C-12 5 -12 5 -14 4 C-9.22613086 1.44653511 -5.42119013 0 0 0 Z " fill="#CFE0EE" transform="translate(273,234)"/>
<path d="M0 0 C0.99 0.33 1.98 0.66 3 1 C2.67 3.64 2.34 6.28 2 9 C1.01 9 0.02 9 -1 9 C-1.125 2.25 -1.125 2.25 0 0 Z " fill="#E3EDF5" transform="translate(221,112)"/>
<path d="M0 0 C0.99 0.33 1.98 0.66 3 1 C0.53846154 5.8 0.53846154 5.8 -2.1875 6.8125 C-2.785625 6.874375 -3.38375 6.93625 -4 7 C-4.33 6.01 -4.66 5.02 -5 4 C-2.6875 1.9375 -2.6875 1.9375 0 0 Z " fill="#E5F4F9" transform="translate(279,34)"/>
<path d="M0 0 C0.598125 0.20625 1.19625 0.4125 1.8125 0.625 C0.4925 1.615 -0.8275 2.605 -2.1875 3.625 C-0.5375 3.955 1.1125 4.285 2.8125 4.625 C2.8125 4.955 2.8125 5.285 2.8125 5.625 C-0.1575 5.625 -3.1275 5.625 -6.1875 5.625 C-5.19901979 1.67107916 -4.54281955 -0.77876907 0 0 Z " fill="#D3E3F0" transform="translate(203.1875,157.375)"/>
<path d="M0 0 C0.99 0.33 1.98 0.66 3 1 C3 3.97 3 6.94 3 10 C2.01 10.495 2.01 10.495 1 11 C0.67 8.36 0.34 5.72 0 3 C-1.32 3.33 -2.64 3.66 -4 4 C-2.68 2.68 -1.36 1.36 0 0 Z " fill="#E6EFF7" transform="translate(278,46)"/>
<path d="M0 0 C0.33 0.99 0.66 1.98 1 3 C-1.14026162 6.21039243 -2.08544035 6.76444483 -5.5 8.25 C-6.69109375 8.78367188 -6.69109375 8.78367188 -7.90625 9.328125 C-10 10 -10 10 -12 9 C-9.68907862 7.13348658 -7.5694505 5.79333624 -4.875 4.5 C-1.76702397 3.17172516 -1.76702397 3.17172516 0 0 Z " fill="#E1ECF5" transform="translate(286,240)"/>
<path d="M0 0 C0 0.99 0 1.98 0 3 C-1.98 3.66 -3.96 4.32 -6 5 C-6.66 4.34 -7.32 3.68 -8 3 C-6.23110084 -0.53779831 -3.70375662 0 0 0 Z " fill="#E3EDF4" transform="translate(186,305)"/>
<path d="M0 0 C0.99 0.495 0.99 0.495 2 1 C2.4140625 3.72265625 2.4140625 3.72265625 2.625 7.0625 C2.69976562 8.16722656 2.77453125 9.27195312 2.8515625 10.41015625 C2.90054688 11.26480469 2.94953125 12.11945313 3 13 C2.01 12.67 1.02 12.34 0 12 C0 8.04 0 4.08 0 0 Z " fill="#D4E4F0" transform="translate(192,257)"/>
<path d="M0 0 C0 0.99 0 1.98 0 3 C-3.96 3.99 -7.92 4.98 -12 6 C-11.34 4.68 -10.68 3.36 -10 2 C-7.87109375 1.42578125 -7.87109375 1.42578125 -5.4375 1.3125 C-2.41906099 1.37731549 -2.41906099 1.37731549 0 0 Z " fill="#E5EFF6" transform="translate(249,199)"/>
<path d="M0 0 C-4.84241633 1.33583899 -8.93437617 2.25328119 -14 2 C-14 1.34 -14 0.68 -14 0 C-9.30204596 -3.07173918 -5.07712783 -1.28022404 0 0 Z " fill="#E3EDF5" transform="translate(249,249)"/>
<path d="M0 0 C1.32 0.33 2.64 0.66 4 1 C3.34 1.66 2.68 2.32 2 3 C1.6936141 5.73434962 1.4886664 8.38279821 1.375 11.125 C1.33632812 11.87910156 1.29765625 12.63320312 1.2578125 13.41015625 C1.16348969 15.27303184 1.08065338 17.13648255 1 19 C0.67 19 0.34 19 0 19 C0 12.73 0 6.46 0 0 Z " fill="#DFEAF4" transform="translate(171,146)"/>
<path d="M0 0 C3.96 0.33 7.92 0.66 12 1 C11.67 1.66 11.34 2.32 11 3 C7.04 3 3.08 3 -1 3 C-0.67 2.01 -0.34 1.02 0 0 Z " fill="#ECF3F8" transform="translate(232,117)"/>
<path d="M0 0 C0.66 0.33 1.32 0.66 2 1 C-3.00577428 4.14648669 -6.98122677 6.3439299 -13 6 C-10.33113316 2.54617232 -7.10793888 2.02698472 -3 1 C-2.01 0.67 -1.02 0.34 0 0 Z " fill="#D7E6F1" transform="translate(196,276)"/>
<path d="M0 0 C0.66 0.33 1.32 0.66 2 1 C1.67 1.33 1.34 1.66 1 2 C3.64 2.33 6.28 2.66 9 3 C9 3.33 9 3.66 9 4 C4.38 4.33 -0.24 4.66 -5 5 C-4.67 4.34 -4.34 3.68 -4 3 C-3.34 3 -2.68 3 -2 3 C-2 2.34 -2 1.68 -2 1 C-1.34 0.67 -0.68 0.34 0 0 Z " fill="#F0F5FA" transform="translate(215,158)"/>
<path d="M0 0 C1.3271261 3.9813783 1.06915913 7.85045227 1 12 C1.66 12.33 2.32 12.66 3 13 C1.68 13.33 0.36 13.66 -1 14 C-1.02705729 12.22925083 -1.04642195 10.45838289 -1.0625 8.6875 C-1.07410156 7.70136719 -1.08570313 6.71523438 -1.09765625 5.69921875 C-1 3 -1 3 0 0 Z " fill="#DCE9F3" transform="translate(178,271)"/>
<path d="M0 0 C0.66 0.33 1.32 0.66 2 1 C-1.15557744 5.67025461 -3.8641579 7.12344231 -9 9 C-7.66073876 4.98221628 -5.50865531 4.21976152 -2 2 C-1.34 1.34 -0.68 0.68 0 0 Z " fill="#E4EEF6" transform="translate(153,270)"/>
<path d="M0 0 C-9.41002278 4.59225513 -9.41002278 4.59225513 -14 4 C-9.68030697 0.34487513 -5.55645743 -1.67651733 0 0 Z " fill="#D0E1EF" transform="translate(273,265)"/>
<path d="M0 0 C2.31 0 4.62 0 7 0 C6.34 2.64 5.68 5.28 5 8 C4.34 7.67 3.68 7.34 3 7 C3.33 5.68 3.66 4.36 4 3 C2.35 3 0.7 3 -1 3 C-0.67 2.01 -0.34 1.02 0 0 Z " fill="#F0F5FA" transform="translate(196,213)"/>
<path d="M0 0 C0.99 0 1.98 0 3 0 C3 2.64 3 5.28 3 8 C2.01 8.495 2.01 8.495 1 9 C0.67 6.03 0.34 3.06 0 0 Z " fill="#E1ECF5" transform="translate(160,288)"/>
<path d="M0 0 C-0.598125 0.28875 -1.19625 0.5775 -1.8125 0.875 C-4.19327792 2.04742026 -4.19327792 2.04742026 -7 4 C-9.32387947 4.39387788 -11.65793749 4.73486085 -14 5 C-10.39689122 0.59620038 -5.480803 -0.32240018 0 0 Z " fill="#E5EEF6" transform="translate(257,172)"/>
<path d="M0 0 C0.99 0.33 1.98 0.66 3 1 C-1.75 5 -1.75 5 -4 5 C-4.33 6.98 -4.66 8.96 -5 11 C-5.33 11 -5.66 11 -6 11 C-5.75579333 6.76708435 -5.598306 4.62979579 -2.625 1.5 C-1.75875 1.005 -0.8925 0.51 0 0 Z " fill="#CADDED" transform="translate(144,168)"/>
<path d="M0 0 C0.66 0 1.32 0 2 0 C1.79375 0.61875 1.5875 1.2375 1.375 1.875 C1.25125 2.57625 1.1275 3.2775 1 4 C1.66 4.66 2.32 5.32 3 6 C1.02 6.66 -0.96 7.32 -3 8 C-3 6.68 -3 5.36 -3 4 C-2.34 3.67 -1.68 3.34 -1 3 C-0.67 2.01 -0.34 1.02 0 0 Z " fill="#E7F0F7" transform="translate(245,93)"/>
<path d="M0 0 C3.63 0 7.26 0 11 0 C10.67 1.32 10.34 2.64 10 4 C9.01 4.495 9.01 4.495 8 5 C8 3.68 8 2.36 8 1 C5.36 1 2.72 1 0 1 C0 0.67 0 0.34 0 0 Z " fill="#EEF4F9" transform="translate(263,187)"/>
<path d="M0 0 C2.97 0.495 2.97 0.495 6 1 C6 1.66 6 2.32 6 3 C4.35 3.66 2.7 4.32 1 5 C0.67 3.35 0.34 1.7 0 0 Z " fill="#F5F8FB" transform="translate(240,107)"/>
<path d="M0 0 C0.66 0 1.32 0 2 0 C2 4.29 2 8.58 2 13 C1.67 13 1.34 13 1 13 C0.92652344 12.06027344 0.92652344 12.06027344 0.8515625 11.1015625 C0.77679688 10.28429688 0.70203125 9.46703125 0.625 8.625 C0.55539062 7.81289063 0.48578125 7.00078125 0.4140625 6.1640625 C0.17107412 3.79665809 0.17107412 3.79665809 -2 2 C-1.34 1.34 -0.68 0.68 0 0 Z " fill="#CBDEED" transform="translate(280,43)"/>
<path d="M0 0 C-3.69172595 3.53790403 -7.09390595 3.59115883 -12 4 C-11 2 -11 2 -8.25 0.875 C-5.29813104 0.08026605 -3.02780163 -0.17810598 0 0 Z " fill="#D6E5F1" transform="translate(270,121)"/>
<path d="M0 0 C-2.26185454 2.26185454 -3.96983561 3.03921617 -7 4 C-7.99 3.67 -8.98 3.34 -10 3 C-6.48812804 0.59185923 -4.27343092 -0.36629408 0 0 Z " fill="#FEFFFF" transform="translate(172,314)"/>
<path d="M0 0 C0 0.66 0 1.32 0 2 C-1.98 2.66 -3.96 3.32 -6 4 C-6.33 3.01 -6.66 2.02 -7 1 C-4 0 -4 0 0 0 Z " fill="#F1F7FC" transform="translate(180,309)"/>
<path d="M0 0 C-0.61875 0.4125 -1.2375 0.825 -1.875 1.25 C-4.06768281 3.05573879 -4.92788417 4.4090534 -6 7 C-6 4.69 -6 2.38 -6 0 C-3.50907189 -1.24546405 -2.58919267 -0.7767578 0 0 Z " fill="#EBF2F8" transform="translate(206,236)"/>
<path d="M0 0 C-0.33 0.99 -0.66 1.98 -1 3 C-3.64 2.67 -6.28 2.34 -9 2 C-5.5647952 -0.29013653 -4.014669 -0.17842973 0 0 Z " fill="#EDF4F9" transform="translate(228,146)"/>
<path d="M0 0 C-1.28650706 0.69710731 -2.57940665 1.38242876 -3.875 2.0625 C-4.95394531 2.63677734 -4.95394531 2.63677734 -6.0546875 3.22265625 C-6.69664062 3.47917969 -7.33859375 3.73570312 -8 4 C-8.66 3.67 -9.32 3.34 -10 3 C-3.94594595 -1.97297297 -3.94594595 -1.97297297 0 0 Z " fill="#DCE9F3" transform="translate(254,135)"/>
</svg>
