<?xml version="1.0" encoding="UTF-8"?>
<svg version="1.1" xmlns="http://www.w3.org/2000/svg" width="350" height="350">
<path d="M0 0 C2.11925604 2.11925604 1.41831017 6.6196093 1.5625 9.5625 C1.60568359 10.36880859 1.64886719 11.17511719 1.69335938 12.00585938 C1.79975262 14.00368805 1.90040888 16.0018207 2 18 C3.01320313 17.48308594 4.02640625 16.96617188 5.0703125 16.43359375 C6.4214664 15.76739981 7.7730521 15.10208113 9.125 14.4375 C10.12273437 13.92413086 10.12273437 13.92413086 11.140625 13.40039062 C15.49583625 11.28683223 18.15107239 10.61782904 23 12 C23.7298491 16.6727559 24.17360537 21.24100004 24.34130859 25.96630859 C24.36595593 26.63282566 24.39060328 27.29934273 24.41599751 27.98605728 C24.49712508 30.20673619 24.57283106 32.42756426 24.6484375 34.6484375 C24.70584511 36.2569577 24.76353639 37.86546779 24.82148743 39.47396851 C24.97822976 43.8567593 25.12985985 48.23971323 25.28023911 52.62272644 C25.37513542 55.37893308 25.4713585 58.13509022 25.56802368 60.89123535 C26.6387908 91.43901325 27.63078985 121.98939558 28.58686066 152.54096222 C28.68704197 155.73539507 28.78799596 158.92980275 28.88909912 162.12420654 C29.0492134 167.19198537 29.20650619 172.25984464 29.36165428 177.32777786 C29.41885972 179.18581263 29.47685083 181.04382341 29.53573036 182.90180588 C29.71581604 188.60073517 29.87450562 194.29959987 30 200 C30.02720816 201.16511864 30.02720816 201.16511864 30.05496597 202.35377502 C30.10197739 204.58644918 30.13357582 206.81874931 30.15942383 209.05175781 C30.18677361 210.95867401 30.18677361 210.95867401 30.2146759 212.90411377 C30 216 30 216 28 219 C25.57939361 220.18062835 23.21428695 221.21136528 20.71484375 222.1953125 C19.96376846 222.49985855 19.21269318 222.8044046 18.43885803 223.11817932 C16.80310104 223.78019535 15.16560205 224.43791935 13.52661133 225.09188843 C10.90303113 226.13875383 8.28400809 227.19632413 5.66601562 228.25708008 C2.91707233 229.37077578 0.16787574 230.48379332 -2.58267212 231.59352112 C-12.41493279 235.56119091 -22.20891587 239.6195177 -32 243.6875 C-33.72873101 244.40469171 -35.45749069 245.12181433 -37.1862793 245.83886719 C-46.95402191 249.89224418 -56.71101224 253.97055244 -66.45953369 258.06991577 C-71.97041181 260.38617737 -77.48492535 262.69375094 -83 265 C-84.18787109 265.49757813 -85.37574219 265.99515625 -86.59960938 266.5078125 C-115.93255848 278.76061355 -115.93255848 278.76061355 -131 283 C-131.76256104 283.25587891 -132.52512207 283.51175781 -133.31079102 283.77539062 C-137.14522129 284.09565171 -139.84305025 282.54701282 -143.16015625 280.8359375 C-143.85347549 280.49268936 -144.54679474 280.14944122 -145.26112366 279.79579163 C-146.75433538 279.054767 -148.24445808 278.30749165 -149.73175049 277.55465698 C-152.89097787 275.95568437 -156.06470723 274.38658747 -159.23815918 272.81608582 C-160.85160592 272.01744926 -162.46431524 271.21732123 -164.07629395 270.41572571 C-171.03527555 266.96037951 -178.0607241 263.67270661 -185.125 260.4375 C-196.9227936 255.01099593 -208.61446656 249.38325615 -220.28564453 243.69067383 C-226.26607569 240.77476277 -232.24694417 237.86644382 -238.27734375 235.0546875 C-239.17767334 234.63477539 -240.07800293 234.21486328 -241.00561523 233.78222656 C-242.61322354 233.03640456 -244.22325001 232.29576214 -245.83618164 231.56152344 C-250.8913693 229.21726139 -250.8913693 229.21726139 -252 227 C-252.03786476 225.24770618 -252.00590242 223.49373326 -251.94139099 221.74221802 C-251.90230905 220.62928816 -251.8632271 219.5163583 -251.82296085 218.36970329 C-251.7490193 216.52985202 -251.7490193 216.52985202 -251.67358398 214.65283203 C-251.62511794 213.36273287 -251.5766519 212.07263371 -251.52671719 210.74344063 C-250.93020633 195.17115687 -250.14043515 179.60727785 -249.34903646 164.04393148 C-249.17673043 160.65011099 -249.00587998 157.25621776 -248.83498853 153.86232579 C-248.4309208 145.83828528 -248.0244829 137.81436738 -247.61645508 129.79052734 C-247.20016986 121.60350494 -246.78790682 113.41628698 -246.37762266 105.22896183 C-246.02066197 98.1085752 -245.66117752 90.98831887 -245.2997703 83.86815655 C-245.08595213 79.65526392 -244.87297752 75.44233383 -244.66246223 71.22927475 C-243.88045268 55.60139414 -243.0693826 39.97539251 -242.00561523 24.36376953 C-241.93435708 23.23140303 -241.86309893 22.09903652 -241.78968143 20.93235588 C-241.71575389 19.90845316 -241.64182634 18.88455044 -241.56565857 17.82962036 C-241.5045008 16.93921618 -241.44334303 16.04881199 -241.38033199 15.13142586 C-241 13 -241 13 -239 11 C-231.87023233 9.86659943 -226.28640416 13.26319752 -220 16.3125 C-218.85297607 16.85648438 -217.70595215 17.40046875 -216.52416992 17.9609375 C-214.15576238 19.08615544 -211.79012084 20.2172134 -209.42724609 21.35400391 C-206.28868875 22.86135208 -203.1413207 24.34746543 -199.98828125 25.82421875 C-190.5198538 30.2765233 -181.18203199 34.91230912 -171.9375 39.8125 C-162.90628112 44.58961604 -153.75316337 49.04901686 -144.5 53.375 C-143.88518768 53.66396149 -143.27037537 53.95292297 -142.63693237 54.25064087 C-139.6442696 55.65445317 -136.64281865 57.02815683 -133.61962891 58.36523438 C-131.11635864 59.49580889 -128.7223437 60.65766743 -126.29833984 61.93164062 C-120.56111435 64.79945663 -115.77018006 66.80216888 -109.27005005 64.87176514 C-105.97044611 63.66802511 -102.80505272 62.2364202 -99.625 60.75 C-98.25660207 60.15360054 -96.88596101 59.56232277 -95.51318359 58.97607422 C-93.48755701 58.10926629 -91.4647558 57.23863977 -89.4503479 56.34603882 C-85.23778555 54.48248993 -81.05521238 52.9817421 -76.63525391 51.70898438 C-66.57366425 48.78606447 -59.64560561 42.5639004 -51.93115234 35.68945312 C-49.23079923 33.32707088 -46.4224074 31.16735768 -43.5625 29 C-42.53253906 28.21625 -41.50257813 27.4325 -40.44140625 26.625 C-39.89887207 26.2125 -39.35633789 25.8 -38.79736328 25.375 C-35.96570406 23.20875377 -33.15451592 21.01639812 -30.3425293 18.82470703 C-28.78971732 17.61514823 -27.23520909 16.40776368 -25.67895508 15.20263672 C-22.14576202 12.46519428 -18.63114359 9.71328885 -15.171875 6.8828125 C-14.58921875 6.41359375 -14.0065625 5.944375 -13.40625 5.4609375 C-11.86199411 4.21533487 -10.32896867 2.95584459 -8.796875 1.6953125 C-5.5604583 -0.26642612 -3.72069726 -0.44089187 0 0 Z " fill="#FDFDFE" transform="translate(288,33)"/>
<path d="M0 0 C4.12179324 1.30796504 8.01495396 2.83463238 11.9375 4.65234375 C13.63471191 5.43798706 13.63471191 5.43798706 15.36621094 6.23950195 C16.577629 6.80516938 17.78888851 7.37117648 19 7.9375 C19.61782349 8.22523285 20.23564697 8.5129657 20.87219238 8.80941772 C32.69427865 14.31804981 44.37066087 20.09561634 56 26 C72.32927789 34.25916712 88.79491579 42.21323091 105.5 49.6875 C106.47332275 50.13399902 107.44664551 50.58049805 108.44946289 51.04052734 C109.82026001 51.64501709 109.82026001 51.64501709 111.21875 52.26171875 C112.02248047 52.62225342 112.82621094 52.98278809 113.65429688 53.35424805 C118.45004024 54.67447507 122.65584085 52.45926561 127.10546875 50.6796875 C128.25337891 50.22722656 129.40128906 49.77476563 130.58398438 49.30859375 C132.99913048 48.3477714 135.41318456 47.38419985 137.82617188 46.41796875 C138.97021484 45.96808594 140.11425781 45.51820312 141.29296875 45.0546875 C142.3399292 44.63687012 143.38688965 44.21905273 144.46557617 43.78857422 C147 43 147 43 149 44 C146.25119925 46.27228816 143.50075004 48.54257212 140.75 50.8125 C139.97269531 51.45509766 139.19539062 52.09769531 138.39453125 52.75976562 C137.64042969 53.38173828 136.88632813 54.00371094 136.109375 54.64453125 C135.41811523 55.21534424 134.72685547 55.78615723 134.01464844 56.37426758 C132.64493345 57.47956716 131.23353668 58.53471232 129.79003906 59.54174805 C127.42168699 61.4711216 127.32046163 63.03572989 127 66 C124.03 66 121.06 66 118 66 C117.505 62.535 117.505 62.535 117 59 C115.68 59 114.36 59 113 59 C112.67 61.31 112.34 63.62 112 66 C111.26136719 66.21914062 110.52273437 66.43828125 109.76171875 66.6640625 C102.30231813 68.99571759 95.72453017 72.02882076 89 76 C89 77.32 89 78.64 89 80 C95.7691452 79.66709122 100.64716005 78.07110056 106.71484375 75.05859375 C109 74 109 74 111 74 C111 76.31 111 78.62 111 81 C110.24976563 81.13535156 109.49953125 81.27070313 108.7265625 81.41015625 C99.86630639 83.27371138 91.97786404 86.6181352 86.375 94.0625 C84.85544563 97.3088207 84.66264325 99.45775417 85 103 C86.65 103.33 88.3 103.66 90 104 C90.23976563 103.26136719 90.47953125 102.52273437 90.7265625 101.76171875 C92.18071191 98.60808798 93.75257301 97.06465075 96.375 94.8125 C97.53128906 93.80123047 97.53128906 93.80123047 98.7109375 92.76953125 C102.8951957 89.53494257 104.49151737 89 110 89 C110 96.59 110 104.18 110 112 C107.03 112.99 104.06 113.98 101 115 C93.95488165 117.7236835 85.98581475 121.12007258 81 127 C80.74930087 129.62570704 80.74930087 129.62570704 81 132 C86.81805617 131.75242314 89.95439268 129.90762335 94.65625 126.56640625 C98.99676356 123.66549636 103.71427485 121 109 121 C109 125.95 109 130.9 109 136 C106.1228125 136.7734375 106.1228125 136.7734375 103.1875 137.5625 C96.55144956 139.61218918 90.17559385 142.24912092 85 147 C84.13808979 149.6174346 84.13808979 149.6174346 84 152 C87.28579416 153.07740714 88.57037529 153.21542963 91.71875 151.63671875 C93.09546875 150.67185547 93.09546875 150.67185547 94.5 149.6875 C102.71399594 144 102.71399594 144 108 144 C108.18978245 167.12134139 108.18978245 167.12134139 107.5625 177.9375 C107.52326416 178.64575928 107.48402832 179.35401855 107.44360352 180.08374023 C107.13039735 184.86960265 107.13039735 184.86960265 106 186 C104.54364629 186.22174933 103.08477044 186.42698698 101.625 186.625 C91.07759288 188.69842191 81.3249578 196.466109 75 205 C74.6379795 207.70552814 74.6379795 207.70552814 75 210 C79.9644926 209.60902348 82.50594791 207.05219931 85.875 203.6875 C90.88050337 198.72797895 95.59070688 194.21646306 102.9375 193.75 C103.948125 193.8325 104.95875 193.915 106 194 C106 198.29 106 202.58 106 207 C104.72125 207.37125 103.4425 207.7425 102.125 208.125 C93.30663704 211.10605037 84.97737704 215.88155977 80 224 C79.40869572 227.34065953 79.40869572 227.34065953 80 230 C83.96360587 228.65557833 86.42528485 226.94585033 89.4375 224.0625 C94.42743822 219.49459635 98.30128168 217.33974366 105 216 C105 226.56 105 237.12 105 248 C106.32 248.33 107.64 248.66 109 249 C110.98427917 247.01572083 110.39276941 243.19014982 110.53515625 240.46484375 C110.59962196 239.33496788 110.59962196 239.33496788 110.66539001 238.18226624 C110.80214722 235.76756711 110.93238981 233.35256554 111.0625 230.9375 C111.15386922 229.30401248 111.24566053 227.67054851 111.33789062 226.03710938 C111.56349933 222.02499685 111.78326464 218.01260125 112 214 C114.31 214 116.62 214 119 214 C119 221.92 119 229.84 119 238 C123.53840729 237.24359879 126.85637877 236.45251414 131.05078125 234.84765625 C132.21085693 234.40631348 133.37093262 233.9649707 134.56616211 233.51025391 C135.81508509 233.02804124 137.06386067 232.54544666 138.3125 232.0625 C139.61784245 231.56148431 140.92326355 231.06067349 142.22875977 230.56005859 C146.15657027 229.05044134 150.07881765 227.52673523 154 226 C155.09473633 225.57477051 156.18947266 225.14954102 157.31738281 224.71142578 C179.29193903 216.14266553 201.25111737 207.21275851 222.25 196.4375 C223.21437988 195.94910645 224.17875977 195.46071289 225.17236328 194.95751953 C226.04876465 194.49587402 226.92516602 194.03422852 227.828125 193.55859375 C228.5902832 193.15954834 229.35244141 192.76050293 230.13769531 192.34936523 C232.37469769 190.72850628 233.12603259 189.61417328 234 187 C234.04070311 184.66705816 234.04070311 184.66705816 233.65625 182.08984375 C233.06638006 176.3637681 232.83203135 170.69205886 232.71875 164.94140625 C232.69047119 163.56714981 232.69047119 163.56714981 232.66162109 162.16513062 C232.60482615 159.29763417 232.55189548 156.43008903 232.5 153.5625 C232.29474562 142.41066485 232.05432847 131.27281207 231.484375 120.1328125 C231.0303919 111.18957318 230.76225451 102.26731963 230.75 93.3125 C230.74699387 92.20219421 230.74699387 92.20219421 230.743927 91.06945801 C230.73439145 76.28506389 231.64850297 61.59956161 232.88427734 46.87109375 C233.5134902 39.30870552 234.10112887 31.84650156 233.96484375 24.25390625 C233.71872151 9.64358115 233.71872151 9.64358115 236.27783203 6.36083984 C240.13404845 3.11145712 244.89592255 1 250 1 C250.73630358 5.69082534 251.16693771 10.26434887 251.31007385 15.00920105 C251.33134604 15.6789404 251.35261823 16.34867975 251.37453502 17.03871423 C251.44426091 19.26423741 251.5083955 21.48988481 251.57250977 23.71557617 C251.62158856 25.31961561 251.67100545 26.92364474 251.72073364 28.52766418 C251.85448647 32.87545675 251.98329125 37.22338296 252.1110394 41.57135558 C252.24602065 46.14247857 252.38501813 50.71347973 252.52342224 55.28450012 C252.7556054 62.9736842 252.98459561 70.66295838 253.21166992 78.35229492 C253.47280171 87.19367108 253.73881946 96.03488963 254.00755268 104.87603778 C254.26719154 113.42154565 254.5233802 121.96715372 254.77802849 130.51281166 C254.88579395 134.12751896 254.99470429 137.74218893 255.10458565 141.3568325 C256.20176439 177.52770387 256.20176439 177.52770387 256 194 C255.17669189 194.31163589 254.35338379 194.62327179 253.50512695 194.9443512 C232.64753594 202.84889925 212.07483143 211.34396032 191.54882812 220.06884766 C180.3877185 224.81087503 169.19992763 229.48982006 158.00897217 234.16088867 C155.90020418 235.04168291 153.79212152 235.92410437 151.68408203 236.80664062 C122.7782442 248.89856594 122.7782442 248.89856594 110.25 253.5 C109.47696533 253.79696777 108.70393066 254.09393555 107.9074707 254.39990234 C101.91684489 256.51536556 98.70656575 255.21925385 93.10107422 252.6940918 C92.0957666 252.20078369 91.09045898 251.70747559 90.0546875 251.19921875 C88.91040283 250.64121582 87.76611816 250.08321289 86.5871582 249.50830078 C85.98360504 249.21215881 85.38005188 248.91601685 84.75820923 248.61090088 C81.50092823 247.01374636 78.23695168 245.43041405 74.97265625 243.84765625 C74.30346664 243.52307434 73.63427704 243.19849243 72.94480896 242.86407471 C66.43367835 239.7130275 59.87957889 236.65760615 53.3125 233.625 C41.17667052 228.01923281 29.07505614 222.34387045 16.98364258 216.64306641 C15.62843343 216.00419896 14.27320907 215.3653638 12.91796875 214.7265625 C12.26534561 214.41892975 11.61272247 214.111297 10.94032288 213.79434204 C3.96907764 210.51054183 -3.01502642 207.25447716 -10 204 C-10.23138283 187.15449115 -9.5577093 170.40985935 -8.65235949 153.59130788 C-8.45822678 149.96102962 -8.27082821 146.33040273 -8.08261108 142.69981384 C-7.72476076 135.81585855 -7.36118996 128.9322185 -6.99540555 122.04868072 C-6.54664855 113.59846883 -6.1053475 105.14787041 -5.6640625 96.69726562 C-5.19983284 87.81153334 -4.73466744 78.92585426 -4.26446533 70.04043579 C-3.61555753 57.77361498 -2.96882403 45.50680097 -2.36230469 33.23779297 C-2.31567625 32.30062533 -2.26904781 31.3634577 -2.22100639 30.39789104 C-2.01489327 26.25364026 -1.81144298 22.10930733 -1.6144104 17.96461487 C-1.54564899 16.57202488 -1.47676023 15.17944117 -1.40771484 13.78686523 C-1.3522348 12.62920151 -1.29675476 11.47153778 -1.23959351 10.27879333 C-0.98680893 6.81948267 -0.52871064 3.42709835 0 0 Z " fill="#FEFEFE" transform="translate(54,53)"/>
<path d="M0 0 C2.11925604 2.11925604 1.41831017 6.6196093 1.5625 9.5625 C1.60568359 10.36880859 1.64886719 11.17511719 1.69335938 12.00585938 C1.79975262 14.00368805 1.90040888 16.0018207 2 18 C3.01320313 17.48308594 4.02640625 16.96617188 5.0703125 16.43359375 C6.4214664 15.76739981 7.7730521 15.10208113 9.125 14.4375 C10.12273437 13.92413086 10.12273437 13.92413086 11.140625 13.40039062 C15.49583625 11.28683223 18.15107239 10.61782904 23 12 C23.7298491 16.6727559 24.17360537 21.24100004 24.34130859 25.96630859 C24.36595593 26.63282566 24.39060328 27.29934273 24.41599751 27.98605728 C24.49712508 30.20673619 24.57283106 32.42756426 24.6484375 34.6484375 C24.70584511 36.2569577 24.76353639 37.86546779 24.82148743 39.47396851 C24.97822976 43.8567593 25.12985985 48.23971323 25.28023911 52.62272644 C25.37513542 55.37893308 25.4713585 58.13509022 25.56802368 60.89123535 C26.6387908 91.43901325 27.63078985 121.98939558 28.58686066 152.54096222 C28.68704197 155.73539507 28.78799596 158.92980275 28.88909912 162.12420654 C29.0492134 167.19198537 29.20650619 172.25984464 29.36165428 177.32777786 C29.41885972 179.18581263 29.47685083 181.04382341 29.53573036 182.90180588 C29.71581604 188.60073517 29.87450562 194.29959987 30 200 C30.02720816 201.16511864 30.02720816 201.16511864 30.05496597 202.35377502 C30.10197739 204.58644918 30.13357582 206.81874931 30.15942383 209.05175781 C30.18677361 210.95867401 30.18677361 210.95867401 30.2146759 212.90411377 C30 216 30 216 28 219 C25.57939361 220.18062835 23.21428695 221.21136528 20.71484375 222.1953125 C19.96376846 222.49985855 19.21269318 222.8044046 18.43885803 223.11817932 C16.80310104 223.78019535 15.16560205 224.43791935 13.52661133 225.09188843 C10.90303113 226.13875383 8.28400809 227.19632413 5.66601562 228.25708008 C2.91707233 229.37077578 0.16787574 230.48379332 -2.58267212 231.59352112 C-12.41493279 235.56119091 -22.20891587 239.6195177 -32 243.6875 C-33.72873101 244.40469171 -35.45749069 245.12181433 -37.1862793 245.83886719 C-46.95402191 249.89224418 -56.71101224 253.97055244 -66.45953369 258.06991577 C-71.97041181 260.38617737 -77.48492535 262.69375094 -83 265 C-84.18787109 265.49757813 -85.37574219 265.99515625 -86.59960938 266.5078125 C-115.93255848 278.76061355 -115.93255848 278.76061355 -131 283 C-131.76256104 283.25587891 -132.52512207 283.51175781 -133.31079102 283.77539062 C-137.14522129 284.09565171 -139.84305025 282.54701282 -143.16015625 280.8359375 C-143.85347549 280.49268936 -144.54679474 280.14944122 -145.26112366 279.79579163 C-146.75433538 279.054767 -148.24445808 278.30749165 -149.73175049 277.55465698 C-152.89097787 275.95568437 -156.06470723 274.38658747 -159.23815918 272.81608582 C-160.85160592 272.01744926 -162.46431524 271.21732123 -164.07629395 270.41572571 C-171.03527555 266.96037951 -178.0607241 263.67270661 -185.125 260.4375 C-196.9227936 255.01099593 -208.61446656 249.38325615 -220.28564453 243.69067383 C-226.26607569 240.77476277 -232.24694417 237.86644382 -238.27734375 235.0546875 C-239.17767334 234.63477539 -240.07800293 234.21486328 -241.00561523 233.78222656 C-242.61322354 233.03640456 -244.22325001 232.29576214 -245.83618164 231.56152344 C-250.8913693 229.21726139 -250.8913693 229.21726139 -252 227 C-252.03786476 225.24770618 -252.00590242 223.49373326 -251.94139099 221.74221802 C-251.90230905 220.62928816 -251.8632271 219.5163583 -251.82296085 218.36970329 C-251.7490193 216.52985202 -251.7490193 216.52985202 -251.67358398 214.65283203 C-251.62511794 213.36273287 -251.5766519 212.07263371 -251.52671719 210.74344063 C-250.93020633 195.17115687 -250.14043515 179.60727785 -249.34903646 164.04393148 C-249.17673043 160.65011099 -249.00587998 157.25621776 -248.83498853 153.86232579 C-248.4309208 145.83828528 -248.0244829 137.81436738 -247.61645508 129.79052734 C-247.20016986 121.60350494 -246.78790682 113.41628698 -246.37762266 105.22896183 C-246.02066197 98.1085752 -245.66117752 90.98831887 -245.2997703 83.86815655 C-245.08595213 79.65526392 -244.87297752 75.44233383 -244.66246223 71.22927475 C-243.88045268 55.60139414 -243.0693826 39.97539251 -242.00561523 24.36376953 C-241.93435708 23.23140303 -241.86309893 22.09903652 -241.78968143 20.93235588 C-241.71575389 19.90845316 -241.64182634 18.88455044 -241.56565857 17.82962036 C-241.5045008 16.93921618 -241.44334303 16.04881199 -241.38033199 15.13142586 C-241 13 -241 13 -239 11 C-231.87023233 9.86659943 -226.28640416 13.26319752 -220 16.3125 C-218.85297607 16.85648438 -217.70595215 17.40046875 -216.52416992 17.9609375 C-214.15576238 19.08615544 -211.79012084 20.2172134 -209.42724609 21.35400391 C-206.28868875 22.86135208 -203.1413207 24.34746543 -199.98828125 25.82421875 C-190.5198538 30.2765233 -181.18203199 34.91230912 -171.9375 39.8125 C-162.90628112 44.58961604 -153.75316337 49.04901686 -144.5 53.375 C-143.88518768 53.66396149 -143.27037537 53.95292297 -142.63693237 54.25064087 C-139.6442696 55.65445317 -136.64281865 57.02815683 -133.61962891 58.36523438 C-131.11635864 59.49580889 -128.7223437 60.65766743 -126.29833984 61.93164062 C-120.56111435 64.79945663 -115.77018006 66.80216888 -109.27005005 64.87176514 C-105.97044611 63.66802511 -102.80505272 62.2364202 -99.625 60.75 C-98.25660207 60.15360054 -96.88596101 59.56232277 -95.51318359 58.97607422 C-93.48755701 58.10926629 -91.4647558 57.23863977 -89.4503479 56.34603882 C-85.23778555 54.48248993 -81.05521238 52.9817421 -76.63525391 51.70898438 C-66.57366425 48.78606447 -59.64560561 42.5639004 -51.93115234 35.68945312 C-49.23079923 33.32707088 -46.4224074 31.16735768 -43.5625 29 C-42.53253906 28.21625 -41.50257813 27.4325 -40.44140625 26.625 C-39.89887207 26.2125 -39.35633789 25.8 -38.79736328 25.375 C-35.96570406 23.20875377 -33.15451592 21.01639812 -30.3425293 18.82470703 C-28.78971732 17.61514823 -27.23520909 16.40776368 -25.67895508 15.20263672 C-22.14576202 12.46519428 -18.63114359 9.71328885 -15.171875 6.8828125 C-14.58921875 6.41359375 -14.0065625 5.944375 -13.40625 5.4609375 C-11.86199411 4.21533487 -10.32896867 2.95584459 -8.796875 1.6953125 C-5.5604583 -0.26642612 -3.72069726 -0.44089187 0 0 Z M-14.125 15.75 C-15.06508911 16.4927417 -15.06508911 16.4927417 -16.02416992 17.25048828 C-19.24922122 19.80246796 -22.46281361 22.36839888 -25.66796875 24.9453125 C-26.88277354 25.92192347 -28.09761752 26.89848568 -29.3125 27.875 C-29.92665771 28.36887207 -30.54081543 28.86274414 -31.17358398 29.37158203 C-35.95396673 33.20007237 -40.80856737 36.92327223 -45.6875 40.625 C-51.63612099 45.13997733 -57.41163821 49.78997369 -63.1171875 54.609375 C-67.20008833 57.9951952 -71.41167515 61.203251 -75.62890625 64.41796875 C-79.21978679 67.15784967 -82.76688681 69.95193294 -86.3125 72.75 C-91.15800103 76.5704912 -96.03941787 80.32916922 -101 84 C-101.12815365 86.3852733 -101.12815365 86.3852733 -100 89 C-98.00718316 90.30563862 -95.99515357 91.25211166 -93.8125 92.203125 C-92 93 -92 93 -91 94 C-90.95919217 95.99958364 -90.95745644 98.00045254 -91 100 C-91.99 100 -92.98 100 -94 100 C-95.33333333 98.66666667 -96.66666667 97.33333333 -98 96 C-99.32 95.67 -100.64 95.34 -102 95 C-102 98.3 -102 101.6 -102 105 C-100.68 105.66 -99.36 106.32 -98 107 C-97.25 110.625 -97.25 110.625 -97 114 C-98.65 113.67 -100.3 113.34 -102 113 C-102.89536406 118.37218439 -103.2215278 123.74666295 -103.375 129.1875 C-103.41302734 129.87650391 -103.45105469 130.56550781 -103.49023438 131.27539062 C-103.55559787 135.24718415 -103.19843728 136.77140026 -100.55859375 139.8125 C-99.71425781 140.534375 -98.86992187 141.25625 -98 142 C-96.6875 144.8125 -96.6875 144.8125 -96 147 C-99.71599191 147.20086443 -100.77208445 147.1519437 -104 145 C-104.10806144 147.91765891 -104.18732877 150.83131125 -104.25 153.75 C-104.28351563 154.575 -104.31703125 155.4 -104.3515625 156.25 C-104.53789047 161.23055596 -104.53789047 161.23055596 -101.984375 165.328125 C-101.32953125 165.87984375 -100.6746875 166.4315625 -100 167 C-100 168.32 -100 169.64 -100 171 C-101.65 170.67 -103.3 170.34 -105 170 C-105.91631822 174.85879662 -106.30699585 179.6360442 -106.5625 184.5625 C-106.6049585 185.34737793 -106.64741699 186.13225586 -106.69116211 186.94091797 C-107.02963252 193.63268909 -107.10654361 200.29959065 -107 207 C-106.030625 207.391875 -105.06125 207.78375 -104.0625 208.1875 C-101 210 -101 210 -100.125 212.6875 C-100.063125 213.8321875 -100.063125 213.8321875 -100 215 C-102.64 214.67 -105.28 214.34 -108 214 C-108 218.29 -108 222.58 -108 227 C-107.030625 227.4125 -106.06125 227.825 -105.0625 228.25 C-102 230 -102 230 -101.125 232.1875 C-101.08375 232.785625 -101.0425 233.38375 -101 234 C-103.64 234 -106.28 234 -109 234 C-109 239.28 -109 244.56 -109 250 C-54.54870511 234.58882254 -54.54870511 234.58882254 -7 207 C-6.98265313 203.87678416 -7.03170851 200.77712797 -7.12109375 197.65625 C-7.17044052 195.57552924 -7.21941089 193.49479954 -7.26806641 191.4140625 C-7.30978973 189.73038574 -7.30978973 189.73038574 -7.35235596 188.01269531 C-7.93073979 164.15094145 -8.11886619 140.296613 -8.12382889 116.42880249 C-8.12499397 114.01250717 -8.12834343 111.59622389 -8.1322937 109.17993164 C-8.13818915 105.32401828 -8.13842048 101.4681437 -8.13425636 97.61222839 C-8.13331424 96.19321204 -8.13388365 94.77419365 -8.13617516 93.35517883 C-8.14677114 85.32783485 -7.85513877 77.40719754 -7.22460938 69.40570068 C-6.85518009 63.80412872 -6.87673123 58.21307866 -6.90234375 52.6015625 C-6.9037587 51.40058929 -6.90517365 50.19961609 -6.90663147 48.96224976 C-6.91216148 45.18313951 -6.92470016 41.40409187 -6.9375 37.625 C-6.94252407 35.03906336 -6.94708537 32.45312579 -6.95117188 29.8671875 C-6.96210784 23.57810419 -6.97877433 17.28905657 -7 11 C-9.41435293 11 -12.22595488 14.23981787 -14.125 15.75 Z M-234 20 C-234.74143079 24.78636228 -235.20983143 29.50139288 -235.46192932 34.3374176 C-235.49953572 35.04249779 -235.53714211 35.74757798 -235.5758881 36.47402424 C-235.70017852 38.81920479 -235.81995141 41.16459311 -235.93969727 43.51000977 C-236.02825735 45.19947634 -236.11708059 46.88892914 -236.20614624 48.57836914 C-236.4467685 53.15970736 -236.6832878 57.74124857 -236.91875577 62.32285428 C-237.11644256 66.1635112 -237.31594736 70.00407291 -237.51538509 73.84463924 C-237.986839 82.92548687 -238.45476735 92.00651169 -238.9206543 101.08764648 C-239.39868357 110.40401873 -239.88320834 119.72003716 -240.37091595 129.03590733 C-240.79116314 137.06838814 -241.2069525 145.1010919 -241.61937374 153.13397831 C-241.86493515 157.91566103 -242.11214518 162.69724294 -242.36380196 167.47860909 C-243.86576941 195.72217238 -243.86576941 195.72217238 -244 224 C-231.27100353 230.15511457 -218.52107126 236.25328792 -205.6875 242.1875 C-195.40890992 246.94097518 -185.15335686 251.74061221 -174.91418457 256.57839966 C-172.58086008 257.67884103 -170.2452975 258.77439936 -167.90917969 259.86889648 C-161.35693206 262.94509315 -154.83804474 266.0406787 -148.4296875 269.41015625 C-147.48150146 269.89846924 -146.53331543 270.38678223 -145.55639648 270.88989258 C-143.88962302 271.7555209 -142.23600701 272.64734405 -140.60180664 273.57299805 C-136.20245322 275.83347168 -133.47193194 276.23541587 -128.640625 274.9921875 C-126.74916616 274.36088262 -124.86853511 273.69623194 -123 273 C-122.12029541 272.69449219 -121.24059082 272.38898438 -120.33422852 272.07421875 C-117.47309958 271.05618976 -114.6429269 269.97547952 -111.8125 268.875 C-110.71429932 268.45033447 -109.61609863 268.02566895 -108.48461914 267.58813477 C-96.48487152 262.88839019 -84.64733836 257.80765489 -72.79931641 252.74047852 C-47.36420655 241.86267029 -21.81164582 231.27014723 3.875 221 C4.63027985 220.6980069 5.38555969 220.39601379 6.16372681 220.08486938 C18.36690064 215.21103312 18.36690064 215.21103312 22 214 C22.22597908 195.55078618 21.5837783 177.1202943 21.0232861 158.68241286 C20.91278894 155.03612923 20.8041612 151.3897908 20.69550556 147.74345189 C20.43929069 139.14651162 20.18000685 130.5496678 19.91870117 121.95288086 C19.64977942 113.10384197 19.38597308 104.25466085 19.12464482 95.40539473 C18.8990446 87.77173715 18.67038475 80.13817543 18.43925327 72.50468332 C18.30168007 67.96028079 18.1652327 63.41585185 18.03170967 58.87132835 C17.90637624 54.61028169 17.77721053 50.34936799 17.6451149 46.08852577 C17.59739572 44.52892254 17.55101156 42.96927778 17.50608253 41.40959167 C17.44440494 39.27599784 17.37783492 37.14260913 17.31007385 35.00920105 C17.27412393 33.81748889 17.238174 32.62577673 17.20113468 31.39795208 C16.99340015 27.88850266 16.54495029 24.47175636 16 21 C13.97097793 21.57228828 11.97820098 22.27118911 10 23 C9.25218262 23.19948242 8.50436523 23.39896484 7.73388672 23.60449219 C4.78201828 24.70192708 3.14137536 25.66137525 1 28 C-0.45990444 33.81099218 -0.39593646 39.5974886 -0.4375 45.5625 C-0.4814524 47.29618709 -0.53016309 49.02975972 -0.58349609 50.76318359 C-0.66278419 53.38060627 -0.73831531 55.99762105 -0.79669189 58.61560059 C-0.95741031 65.81558026 -1.49416038 72.95160505 -2.125 80.125 C-2.97670329 90.90207707 -3.1883507 101.6332903 -3.1875 112.4375 C-3.18885956 113.52529755 -3.18885956 113.52529755 -3.19024658 114.6350708 C-3.1889062 124.05499152 -2.86831537 133.43419131 -2.38249207 142.84091187 C-1.81905589 154.03725818 -1.65058029 165.24188347 -1.44775391 176.44946289 C-1.39545308 179.28018527 -1.33949689 182.11080028 -1.28125 184.94140625 C-1.26368652 185.83300446 -1.24612305 186.72460266 -1.22802734 187.64321899 C-1.09528076 193.38012415 -0.73275283 199.04106214 -0.00585938 204.73803711 C0.00124729 207.48150697 -0.42324794 208.75577771 -2 211 C-4.07080078 212.46948242 -4.07080078 212.46948242 -6.6953125 213.85546875 C-7.70053955 214.3868042 -8.7057666 214.91813965 -9.74145508 215.46557617 C-10.8580249 216.03381104 -11.97459473 216.6020459 -13.125 217.1875 C-13.70478607 217.48524323 -14.28457214 217.78298645 -14.88192749 218.0897522 C-40.9278675 231.41471492 -68.30489067 242.08280007 -95.85742188 251.83007812 C-100.12543048 253.41897629 -104.28919241 255.22406477 -108.45019531 257.07324219 C-111 258 -111 258 -115 258 C-115 250.08 -115 242.16 -115 234 C-117.31 234 -119.62 234 -122 234 C-122.66 245.22 -123.32 256.44 -124 268 C-125.32 268.33 -126.64 268.66 -128 269 C-129 268 -129 268 -129.11352539 264.94897461 C-129.11336634 263.60008729 -129.10767612 262.25119386 -129.09765625 260.90234375 C-129.0962413 260.19348526 -129.09482635 259.48462677 -129.09336853 258.75428772 C-129.08775443 256.48198288 -129.07519963 254.20977525 -129.0625 251.9375 C-129.05748681 250.40039204 -129.05292359 248.86328255 -129.04882812 247.32617188 C-129.03778042 243.55074358 -129.02050641 239.77538829 -129 236 C-136.07827137 238.09573261 -136.07827137 238.09573261 -142.3125 241.9375 C-142.96347656 242.45570313 -143.61445313 242.97390625 -144.28515625 243.5078125 C-146.14146555 245.08145461 -146.14146555 245.08145461 -148.25 247.3125 C-150.16856047 249.16254045 -151.39309864 249.62758552 -154 250 C-154.5458642 246.880776 -154.46860878 244.76433276 -152.79296875 242.03125 C-146.19595006 233.9974099 -137.82806947 229.85331049 -128 227 C-128 222.71 -128 218.42 -128 214 C-133.81394226 213.2577946 -136.80489487 214.63029377 -141.52734375 218 C-145.39430483 221.12777895 -148.96703952 224.54783953 -152.51953125 228.0234375 C-155 230 -155 230 -159 230 C-159.3046875 227.83984375 -159.3046875 227.83984375 -159 225 C-151.68494437 215.44592544 -141.98273136 208.07237756 -129.93359375 206.32421875 C-127.99860034 206.19207978 -127.99860034 206.19207978 -127 205 C-126.74859979 202.63807955 -126.5687814 200.30730458 -126.4375 197.9375 C-126.3950415 197.20539307 -126.35258301 196.47328613 -126.30883789 195.71899414 C-125.76923164 185.1559575 -125.91321661 174.57288706 -126 164 C-130.83264274 164.51855481 -133.96703693 165.92117938 -138.0625 168.5 C-141.75330889 170.81803699 -144.65392402 172.4258395 -149 173 C-149.8125 171.3125 -149.8125 171.3125 -150 169 C-144.57226601 161.36096697 -133.88206094 157.70808864 -125 156 C-125 151.05 -125 146.1 -125 141 C-129.54466203 141.90893241 -133.00997289 143.2950179 -137.0625 145.375 C-137.67416016 145.67921875 -138.28582031 145.9834375 -138.91601562 146.296875 C-141.52026268 147.61448324 -143.93307746 148.94925907 -146.26171875 150.71484375 C-148.57043699 152.42173881 -150.2010123 152.23324898 -153 152 C-153.4375 149.875 -153.4375 149.875 -153 147 C-146.73950858 139.2604928 -136.4686654 135.8255406 -127.15234375 133.578125 C-125.03501343 133.20150412 -125.03501343 133.20150412 -124 132 C-123.91286169 130.29227642 -123.89299993 128.58101351 -123.90234375 126.87109375 C-123.90556641 125.83662109 -123.90878906 124.80214844 -123.91210938 123.73632812 C-123.92048828 122.64771484 -123.92886719 121.55910156 -123.9375 120.4375 C-123.94201172 119.34501953 -123.94652344 118.25253906 -123.95117188 117.12695312 C-123.96300174 114.41791505 -123.97948457 111.70898401 -124 109 C-132.12388314 109.83196394 -136.71930204 113.17868907 -142 119.25 C-144.19605723 121.70285076 -144.19605723 121.70285076 -144 124 C-145.65 123.67 -147.3 123.34 -149 123 C-149.39615392 118.84038386 -149.06941456 115.98165221 -146.5078125 112.578125 C-139.82626119 105.58499876 -132.36845101 102.69018446 -123 101 C-123 98.69 -123 96.38 -123 94 C-127.32348339 95.38233823 -131.57613903 96.75165739 -135.6875 98.6875 C-139.07775661 100.03080922 -141.39452953 100.26381491 -145 100 C-144.9453125 97.73046875 -144.9453125 97.73046875 -144 95 C-141.58423887 93.49692668 -139.46760447 92.3985242 -136.875 91.3125 C-136.22273438 91.01794922 -135.57046875 90.72339844 -134.8984375 90.41992188 C-130.67647983 88.55606159 -126.46055148 87.17596357 -122 86 C-121.67 83.69 -121.34 81.38 -121 79 C-119.68 79 -118.36 79 -117 79 C-116.505 82.465 -116.505 82.465 -116 86 C-113.03 86 -110.06 86 -107 86 C-106.74863281 84.71996094 -106.74863281 84.71996094 -106.4921875 83.4140625 C-104.41568847 78.66311969 -101.19081085 76.45494167 -97.125 73.375 C-95.68857507 72.25977922 -94.25363478 71.14264311 -92.8203125 70.0234375 C-92.15290039 69.50491211 -91.48548828 68.98638672 -90.79785156 68.45214844 C-88.71434074 66.76926925 -86.82533013 64.95912396 -85 63 C-92.44504733 64.96414565 -99.53600502 67.69765107 -106.66552734 70.57446289 C-107.41141113 70.87215576 -108.15729492 71.16984863 -108.92578125 71.4765625 C-109.59005127 71.74549316 -110.25432129 72.01442383 -110.9387207 72.29150391 C-116.79091315 74.30300011 -119.982311 73.57549768 -125.5546875 70.984375 C-126.28455368 70.65762787 -127.01441986 70.33088074 -127.7664032 69.99423218 C-130.14223343 68.92617519 -132.50858824 67.83874645 -134.875 66.75 C-136.5138603 66.00680848 -138.15310425 65.26446241 -139.79272461 64.52294922 C-144.53846315 62.37007027 -149.27128863 60.18998487 -154 58 C-154.6258197 57.71072632 -155.2516394 57.42145264 -155.89642334 57.12341309 C-167.02488145 51.97445417 -177.97493072 46.55774166 -188.7878418 40.77685547 C-198.69237204 35.51157918 -208.85104896 30.77130491 -219 26 C-220.42585213 25.32436831 -221.85164114 24.64860338 -223.27734375 23.97265625 C-228.42873727 21.18615153 -228.42873727 21.18615153 -234 20 Z " fill="#B8D3E7" transform="translate(288,33)"/>
<path d="M0 0 C3.27923563 3.27923563 2.96843337 7.13748831 3.1328125 11.62890625 C3.12461931 15.75417973 3.08262283 19.87566282 3 24 C2.98324219 25.25167969 2.96648437 26.50335938 2.94921875 27.79296875 C2.90410156 28.93378906 2.85898437 30.07460937 2.8125 31.25 C2.77769531 32.26578125 2.74289062 33.2815625 2.70703125 34.328125 C1.70666149 38.10852784 0.31231583 38.92193113 -3 41 C-6.32312849 42.68714352 -9.70862317 44.19988111 -13.125 45.6875 C-14.03121094 46.09033203 -14.93742187 46.49316406 -15.87109375 46.90820312 C-21.79304988 49.52702373 -26.36683868 51.48241173 -33 51 C-35.35310623 47.47034065 -35.44495186 44.75818761 -35.625 40.6640625 C-35.65859619 39.94769623 -35.69219238 39.23132996 -35.72680664 38.49325562 C-35.79257085 36.97880396 -35.8527393 35.46410041 -35.90771484 33.94921875 C-35.99947405 31.63824627 -36.13404037 29.33220211 -36.26953125 27.0234375 C-36.32818655 25.54958284 -36.3842608 24.07562274 -36.4375 22.6015625 C-36.48406738 21.91494537 -36.53063477 21.22832825 -36.57861328 20.52090454 C-36.62109375 18.54931641 -36.62109375 18.54931641 -36 15 C-33.06469412 11.99769676 -30.09358281 9.73307216 -26.23046875 8.0859375 C-25.57344971 7.80113525 -24.91643066 7.51633301 -24.23950195 7.22290039 C-23.22376099 6.8031897 -23.22376099 6.8031897 -22.1875 6.375 C-21.48262451 6.07650146 -20.77774902 5.77800293 -20.05151367 5.47045898 C-5.13007102 -0.77728349 -5.13007102 -0.77728349 0 0 Z " fill="#B8D3E7" transform="translate(272,199)"/>
<path d="M0 0 C2.23459241 3.35188861 2.27975591 4.61951818 2.37890625 8.55078125 C2.41306641 9.64197266 2.44722656 10.73316406 2.48242188 11.85742188 C2.50884766 12.99759766 2.53527344 14.13777344 2.5625 15.3125 C2.62279181 17.55869072 2.68648695 19.80479317 2.75390625 22.05078125 C2.77783447 23.04762939 2.8017627 24.04447754 2.82641602 25.0715332 C3.00637571 28.10756202 3.45512073 31.00976379 4 34 C4.41701025 36.96657926 4.34756056 38.92160648 4 42 C-0.47266691 45.68959747 -5.3445905 47.41995579 -10.8125 49.1875 C-11.56853516 49.44724609 -12.32457031 49.70699219 -13.10351562 49.97460938 C-18.4156128 51.72719387 -23.42543077 52.53961269 -29 53 C-31.56169259 49.15746112 -31.3236314 45.95826091 -31.3359375 41.5 C-31.3425943 40.66791016 -31.3492511 39.83582031 -31.35610962 38.97851562 C-31.36623005 37.22007457 -31.37092683 35.46159515 -31.37060547 33.703125 C-31.37498411 31.00977628 -31.411323 28.31805932 -31.44921875 25.625 C-31.45508592 23.91667228 -31.45905598 22.20833676 -31.4609375 20.5 C-31.47530853 19.69369141 -31.48967957 18.88738281 -31.50448608 18.05664062 C-31.4589994 12.50592544 -31.4589994 12.50592544 -29.28540039 10.11010742 C-28.53121826 9.74377197 -27.77703613 9.37743652 -27 9 C-26.20988525 8.61497314 -25.41977051 8.22994629 -24.60571289 7.83325195 C-21.76155384 6.65049318 -18.91566753 5.47339295 -16.0625 4.3125 C-15.07314453 3.89677734 -14.08378906 3.48105469 -13.06445312 3.05273438 C-12.10603516 2.66021484 -11.14761719 2.26769531 -10.16015625 1.86328125 C-9.29011963 1.50532471 -8.42008301 1.14736816 -7.52368164 0.77856445 C-4.80846735 -0.05908848 -2.81994475 -0.372265 0 0 Z " fill="#B9D3E7" transform="translate(226,145)"/>
<path d="M0 0 C0 7.59 0 15.18 0 23 C-2.660625 24.44375 -5.32125 25.8875 -8.0625 27.375 C-8.8862915 27.82665527 -9.71008301 28.27831055 -10.55883789 28.74365234 C-11.56805298 29.2843335 -11.56805298 29.2843335 -12.59765625 29.8359375 C-13.27320557 30.20251465 -13.94875488 30.5690918 -14.64477539 30.94677734 C-17.63928291 32.28587815 -20.84592792 33.09883655 -24 34 C-24 25.75 -24 17.5 -24 9 C-21.463125 7.700625 -18.92625 6.40125 -16.3125 5.0625 C-15.52270752 4.65394775 -14.73291504 4.24539551 -13.91918945 3.82446289 C-9.21286229 1.44362903 -5.344298 0 0 0 Z " fill="#FCFDFE" transform="translate(267,209)"/>
<path d="M0 0 C0.02505615 0.55872803 0.0501123 1.11745605 0.07592773 1.69311523 C0.19343105 4.27472428 0.3154438 6.85610236 0.4375 9.4375 C0.47681641 10.31599609 0.51613281 11.19449219 0.55664062 12.09960938 C0.82862668 17.76947262 1.31777645 23.36448953 2 29 C-0.37205861 29.98684881 -2.74723487 30.9645755 -5.125 31.9375 C-5.79015625 32.21529297 -6.4553125 32.49308594 -7.140625 32.77929688 C-7.79804688 33.04677734 -8.45546875 33.31425781 -9.1328125 33.58984375 C-9.72980957 33.83597412 -10.32680664 34.08210449 -10.94189453 34.33569336 C-13.55202293 35.17817964 -16.2945904 35.5490984 -19 36 C-19 26.43 -19 16.86 -19 7 C-14.854375 5.2675 -14.854375 5.2675 -10.625 3.5 C-9.75568848 3.13455078 -8.88637695 2.76910156 -7.99072266 2.39257812 C-7.3054248 2.10833984 -6.62012695 1.82410156 -5.9140625 1.53125 C-5.2123291 1.23798828 -4.5105957 0.94472656 -3.78759766 0.64257812 C-2 0 -2 0 0 0 Z " fill="#FDFDFE" transform="translate(221,154)"/>
<path d="M0 0 C-0.29179382 1.87559509 -0.29179382 1.87559509 -1 4 C-7.17398303 7.68900576 -13.91055789 9.85337395 -20.69921875 12.15234375 C-21.81126175 12.5343544 -22.92330475 12.91636505 -24.06904602 13.30995178 C-27.6067518 14.5244029 -31.14693726 15.73140606 -34.6875 16.9375 C-39.33833902 18.52675229 -43.98781008 20.11995476 -48.63671875 21.71484375 C-49.74264374 22.09264984 -50.84856873 22.47045593 -51.98800659 22.85971069 C-58.57932137 25.12331181 -65.079485 27.4981779 -71.49536133 30.22485352 C-74.42711106 31.13218419 -76.94872902 31.13794677 -80 31 C-80.33 30.01 -80.66 29.02 -81 28 C-77.83660243 24.35179426 -74.96008148 22.94774749 -70.4375 21.3359375 C-69.75478027 21.09007904 -69.07206055 20.84422058 -68.36865234 20.59091187 C-65.91696194 19.71395749 -63.45880284 18.85680445 -61 18 C-58.95179681 17.2777433 -56.90362139 16.55540786 -54.85546875 15.83300781 C-49.10866451 13.81474456 -43.35101093 11.82950556 -37.58837891 9.85693359 C-35.18000882 9.03011121 -32.77344612 8.19800686 -30.36865234 7.36083984 C-26.85389598 6.13755047 -23.33397544 4.93035207 -19.8125 3.7265625 C-18.74467285 3.3516568 -17.6768457 2.9767511 -16.57666016 2.59048462 C-10.79905088 0.63756548 -6.10153614 -0.43569352 0 0 Z " fill="#B9D3E7" transform="translate(275,186)"/>
<path d="M0 0 C-0.47140851 4.54787416 -0.47140851 4.54787416 -2.78051758 6.52294922 C-3.56064209 6.94592285 -4.3407666 7.36889648 -5.14453125 7.8046875 C-6.03575684 8.29839844 -6.92698242 8.79210937 -7.84521484 9.30078125 C-8.82441895 9.82027344 -9.80362305 10.33976562 -10.8125 10.875 C-11.8226416 11.42800781 -12.8327832 11.98101562 -13.87353516 12.55078125 C-17.23914433 14.38610358 -20.61841285 16.19430267 -24 18 C-25.22963136 18.66122267 -26.45895631 19.32301544 -27.68798828 19.98535156 C-34.7863741 23.81065996 -41.89204567 27.62134013 -49.02246094 31.38671875 C-52.42069479 33.22793958 -55.72866125 35.19916185 -59.00439453 37.25 C-61.63656965 38.23923929 -63.33618869 37.73978704 -66 37 C-65.63142761 34.50604906 -65.31038194 33.28550897 -63.42797852 31.55395508 C-57.10206972 27.51880201 -50.52977455 24.03397011 -43.83892822 20.64953613 C-40.61169903 19.01670506 -37.39335612 17.36660023 -34.17578125 15.71484375 C-33.5483905 15.39299103 -32.92099976 15.07113831 -32.27459717 14.73953247 C-26.70857943 11.8728061 -21.23671043 8.86096976 -15.83178711 5.7019043 C-6.00344791 0 -6.00344791 0 0 0 Z " fill="#B9D3E7" transform="translate(269,106)"/>
<path d="M0 0 C0.59039062 0.20496094 1.18078125 0.40992187 1.7890625 0.62109375 C1.72265625 2.828125 1.72265625 2.828125 0.7890625 5.62109375 C-1.51507818 7.42737004 -3.63582436 8.85508915 -6.1484375 10.30859375 C-6.86136963 10.73720703 -7.57430176 11.16582031 -8.30883789 11.60742188 C-14.26232487 15.15401483 -20.317391 18.52916533 -26.39916992 21.85009766 C-30.28555072 23.97436713 -34.12658818 26.14725122 -37.91796875 28.4375 C-38.68052979 28.89705078 -39.44309082 29.35660156 -40.22875977 29.83007812 C-41.67559897 30.70739154 -43.11783322 31.59236291 -44.55444336 32.48632812 C-48.45206662 34.84532757 -51.57301698 36.21059457 -56.2109375 36.62109375 C-56.2109375 32.62109375 -56.2109375 32.62109375 -54.86962891 31.15966797 C-48.96805669 27.00902974 -42.84445583 23.33260752 -36.5859375 19.74609375 C-34.99458984 18.82582397 -34.99458984 18.82582397 -33.37109375 17.88696289 C-26.59878748 13.97521181 -19.81072248 10.09058917 -13 6.24609375 C-10.46082725 4.76668778 -8.02735878 3.19212653 -5.5859375 1.55859375 C-2.2109375 -0.37890625 -2.2109375 -0.37890625 0 0 Z " fill="#B9D3E7" transform="translate(265.2109375,86.37890625)"/>
<path d="M0 0 C2.31 0.33 4.62 0.66 7 1 C7.06847788 10.11801947 6.86859131 19.20231738 6.5 28.3125 C6.42845703 30.15618164 6.42845703 30.15618164 6.35546875 32.03710938 C6.23921484 35.02483488 6.12069607 38.01245123 6 41 C3.36 41 0.72 41 -2 41 C-1.88088 36.44662856 -1.75658318 31.8934372 -1.62768555 27.34033203 C-1.58462851 25.79447169 -1.54293574 24.24857269 -1.50268555 22.70263672 C-1.44426697 20.46830639 -1.38078733 18.23416556 -1.31640625 16 C-1.29969376 15.31945557 -1.28298126 14.63891113 -1.26576233 13.93774414 C-1.12351806 9.23021652 -0.63933744 4.65965509 0 0 Z " fill="#FBFCFD" transform="translate(169,197)"/>
<path d="M0 0 C0.495 2.475 0.495 2.475 1 5 C-5.36938612 8.4396207 -11.76058441 10.68477756 -18.6875 12.75 C-20.21600586 13.22373047 -20.21600586 13.22373047 -21.77539062 13.70703125 C-26.33841438 15.08578663 -30.19776129 16.19211113 -35 16 C-35.33 14.35 -35.66 12.7 -36 11 C-29.45485505 7.01293057 -22.50421653 4.7851724 -15.1875 2.6875 C-14.26815674 2.42114746 -13.34881348 2.15479492 -12.40161133 1.88037109 C-8.1204922 0.68849751 -4.47263473 -0.1441507 0 0 Z " fill="#B9D3E7" transform="translate(226,222)"/>
<path d="M0 0 C0.495 2.475 0.495 2.475 1 5 C-5.24356704 7.81049456 -11.64406743 10.05041076 -18.125 12.25 C-19.19621094 12.62640625 -20.26742187 13.0028125 -21.37109375 13.390625 C-22.40621094 13.74125 -23.44132813 14.091875 -24.5078125 14.453125 C-25.90990967 14.93507324 -25.90990967 14.93507324 -27.34033203 15.42675781 C-30.25867641 16.05575291 -32.14646762 15.78945361 -35 15 C-34.66292973 12.55624053 -34.29892835 11.28878196 -32.50390625 9.5546875 C-28.93894147 7.34118363 -25.17158443 6.20295655 -21.1875 4.9375 C-20.40568359 4.68162109 -19.62386719 4.42574219 -18.81835938 4.16210938 C-5.06623313 -0.30704443 -5.06623313 -0.30704443 0 0 Z " fill="#B9D3E7" transform="translate(229,249)"/>
<path d="M0 0 C0.495 2.475 0.495 2.475 1 5 C-5.46774028 7.82651889 -12.10887166 10.1204001 -18.8125 12.3125 C-20.04867065 12.73039795 -20.04867065 12.73039795 -21.30981445 13.15673828 C-28.64596395 15.51022346 -28.64596395 15.51022346 -33 14 C-33 11.75 -33 11.75 -32 9 C-26.9255937 5.61706246 -21.22939601 4.01905193 -15.4375 2.25 C-14.35758789 1.91548828 -14.35758789 1.91548828 -13.25585938 1.57421875 C-8.67960746 0.24279322 -4.76395155 -0.22536433 0 0 Z " fill="#B9D3E7" transform="translate(226,236)"/>
<path d="M0 0 C-0.3681474 2.4031844 -0.65252863 3.68025241 -2.46875 5.3515625 C-4.96934645 6.91924412 -7.4735815 8.47388933 -10 10 C-10.66322266 10.41185547 -11.32644531 10.82371094 -12.00976562 11.24804688 C-14.24837377 12.63745905 -16.49744025 14.00833789 -18.75 15.375 C-19.48283203 15.8282666 -20.21566406 16.2815332 -20.97070312 16.74853516 C-27.51987165 20.65261712 -27.51987165 20.65261712 -32 20 C-32.33 18.68 -32.66 17.36 -33 16 C-26.85856987 11.83102018 -20.63608228 7.84627921 -14.25 4.0625 C-13.42628906 3.55654297 -12.60257812 3.05058594 -11.75390625 2.52929688 C-10.95339844 2.05685547 -10.15289062 1.58441406 -9.328125 1.09765625 C-8.6155957 0.66976807 -7.90306641 0.24187988 -7.16894531 -0.19897461 C-4.42944083 -1.21071642 -2.7681303 -0.78357609 0 0 Z " fill="#BAD3E8" transform="translate(270,131)"/>
<path d="M0 0 C-2.22296415 5.265506 -6.24767797 7.13114418 -11 10 C-11.62938477 10.38478516 -12.25876953 10.76957031 -12.90722656 11.16601562 C-15.01058428 12.44252248 -17.12756457 13.69300522 -19.25 14.9375 C-19.93529785 15.35153076 -20.6205957 15.76556152 -21.32666016 16.19213867 C-26.32090114 19.05599899 -26.32090114 19.05599899 -29.984375 18.75390625 C-30.64953125 18.50511719 -31.3146875 18.25632813 -32 18 C-31.70348977 15.23257115 -31.15615699 14.1464978 -29.10546875 12.22265625 C-24.77981135 9.12668259 -20.197064 6.6717106 -15.5 4.1875 C-14.56285156 3.67251953 -13.62570312 3.15753906 -12.66015625 2.62695312 C-11.75136719 2.14548828 -10.84257812 1.66402344 -9.90625 1.16796875 C-9.08447266 0.72735107 -8.26269531 0.2867334 -7.41601562 -0.16723633 C-4.53623833 -1.15985156 -2.88860015 -0.83693524 0 0 Z " fill="#B9D3E7" transform="translate(270,150)"/>
<path d="M0 0 C2.64 0.33 5.28 0.66 8 1 C8.02901394 4.4374823 8.04680335 7.87493312 8.0625 11.3125 C8.07087891 12.28896484 8.07925781 13.26542969 8.08789062 14.27148438 C8.09111328 15.20927734 8.09433594 16.14707031 8.09765625 17.11328125 C8.10289307 17.97735596 8.10812988 18.84143066 8.11352539 19.73168945 C8 22 8 22 7 25 C4.36 24.67 1.72 24.34 -1 24 C-0.67 16.08 -0.34 8.16 0 0 Z " fill="#F9FBFD" transform="translate(171,141)"/>
<path d="M0 0 C-0.36385394 2.63794108 -0.70322172 3.74559506 -2.7578125 5.50683594 C-6.56559247 8.04259185 -10.76714938 9.55685975 -15 11.25 C-15.90234375 11.62640625 -16.8046875 12.0028125 -17.734375 12.390625 C-18.60578125 12.74125 -19.4771875 13.091875 -20.375 13.453125 C-21.16648438 13.77442383 -21.95796875 14.09572266 -22.7734375 14.42675781 C-25.260284 15.06701171 -26.60297904 14.83594738 -29 14 C-28.80078125 11.65625 -28.80078125 11.65625 -28 9 C-25.91796875 7.59375 -25.91796875 7.59375 -23.1875 6.5 C-22.19878906 6.09523437 -21.21007812 5.69046875 -20.19140625 5.2734375 C-19.13824219 4.85320312 -18.08507812 4.43296875 -17 4 C-15.93652344 3.51789063 -14.87304688 3.03578125 -13.77734375 2.5390625 C-12.73707031 2.07242188 -11.69679688 1.60578125 -10.625 1.125 C-9.66851562 0.69445312 -8.71203125 0.26390625 -7.7265625 -0.1796875 C-4.69279197 -1.09242648 -3.00479542 -0.88504883 0 0 Z " fill="#BAD3E8" transform="translate(273,167)"/>
<path d="M0 0 C1.98 0 3.96 0 6 0 C7 1 7 1 7.09765625 4.81640625 C7.09098089 6.39846682 7.07901875 7.98051159 7.0625 9.5625 C7.05798828 10.36880859 7.05347656 11.17511719 7.04882812 12.00585938 C7.03700518 14.00393756 7.01906914 16.00197783 7 18 C4.23723823 17.47731534 1.6739124 16.89130413 -1 16 C-0.67 10.72 -0.34 5.44 0 0 Z " fill="#FCFDFE" transform="translate(170,173)"/>
<path d="M0 0 C2.31 0 4.62 0 7 0 C7 4.62 7 9.24 7 14 C4.69 14 2.38 14 0 14 C0 9.38 0 4.76 0 0 Z " fill="#F8FAFC" transform="translate(167,245)"/>
<path d="M0 0 C2.64 0 5.28 0 8 0 C8 3.3 8 6.6 8 10 C1.125 9.125 1.125 9.125 0 8 C-0.14115161 5.32941149 -0.04247107 2.67567762 0 0 Z " fill="#FAFBFD" transform="translate(172,126)"/>
</svg>
