<?xml version="1.0" encoding="UTF-8"?>
<svg version="1.1" xmlns="http://www.w3.org/2000/svg" width="350" height="350">
<path d="M0 0 C0.28571429 7.42857143 0.28571429 7.42857143 -2 11 C-2.66 11 -3.32 11 -4 11 C-4 12.65 -4 14.3 -4 16 C-4.66 16 -5.32 16 -6 16 C-6.2475 16.9075 -6.495 17.815 -6.75 18.75 C-8.09366368 22.24352556 -9.35882225 23.43428447 -12 26 C-13.31334477 28.09973022 -14.54950933 30.22665938 -15.75390625 32.390625 C-16.16511719 32.92171875 -16.57632813 33.4528125 -17 34 C-17.99 34 -18.98 34 -20 34 C-20 35.32 -20 36.64 -20 38 C-21.25 39.4375 -21.25 39.4375 -23 41 C-23.680625 41.886875 -24.36125 42.77375 -25.0625 43.6875 C-25.701875 44.450625 -26.34125 45.21375 -27 46 C-27.66 46 -28.32 46 -29 46 C-29 46.99 -29 47.98 -29 49 C-30.61838719 50.71358643 -32.29671681 52.3707726 -34 54 C-35.58262895 55.86123355 -37.13241277 57.74433137 -38.66796875 59.64453125 C-39.10753906 60.09183594 -39.54710937 60.53914063 -40 61 C-40.66 61 -41.32 61 -42 61 C-42.66 62.32 -43.32 63.64 -44 65 C-44.66 65 -45.32 65 -46 65 C-46 65.66 -46 66.32 -46 67 C-46.66 67 -47.32 67 -48 67 C-48 67.66 -48 68.32 -48 69 C-53.47619048 74 -53.47619048 74 -56 74 C-56.33 74.99 -56.66 75.98 -57 77 C-57.66 77 -58.32 77 -59 77 C-59 77.66 -59 78.32 -59 79 C-59.66 79 -60.32 79 -61 79 C-61 79.66 -61 80.32 -61 81 C-61.66 81 -62.32 81 -63 81 C-63 81.66 -63 82.32 -63 83 C-63.99 83 -64.98 83 -66 83 C-66 83.66 -66 84.32 -66 85 C-67.32 85 -68.64 85 -70 85 C-70.3403125 86.175625 -70.3403125 86.175625 -70.6875 87.375 C-72 90 -72 90 -74.625 91.3125 C-75.40875 91.539375 -76.1925 91.76625 -77 92 C-77 92.66 -77 93.32 -77 94 C-79.475 94.99 -79.475 94.99 -82 96 C-82 96.66 -82 97.32 -82 98 C-84.90548882 100.04169485 -86.40142046 101 -90 101 C-90.33 101.99 -90.66 102.98 -91 104 C-93.30984674 105.54677237 -95.58745728 106.9458941 -98 108.3125 C-99.3760818 109.11142083 -100.75108671 109.91219944 -102.125 110.71484375 C-103.12660156 111.29854736 -103.12660156 111.29854736 -104.1484375 111.89404297 C-106.49736826 113.2970831 -108.75127644 114.81729045 -111 116.375 C-113.60799106 118.17293323 -116.03916714 119.50274884 -119 120.625 C-122.14392314 121.65972384 -122.14392314 121.65972384 -122.9375 124.1875 C-122.958125 124.785625 -122.97875 125.38375 -123 126 C-122.34 126 -121.68 126 -121 126 C-120.505 129.465 -120.505 129.465 -120 133 C-119.01 133 -118.02 133 -117 133 C-117 134.65 -117 136.3 -117 138 C-116.01 138 -115.02 138 -114 138 C-113.67 139.98 -113.34 141.96 -113 144 C-112.01 144 -111.02 144 -110 144 C-109.34 145.32 -108.68 146.64 -108 148 C-107.33613281 147.60167969 -106.67226562 147.20335937 -105.98828125 146.79296875 C-98 142 -98 142 -95.66796875 140.61328125 C-94.78753906 140.08089844 -93.90710938 139.54851562 -93 139 C-92.1023291 138.45980225 -92.1023291 138.45980225 -91.18652344 137.90869141 C-86.25541629 134.89256565 -81.64620469 131.57943329 -77.0625 128.0625 C-72.0260612 124.23047787 -66.98632609 120.52048393 -61.6015625 117.18359375 C-59.70083595 115.91901381 -59.70083595 115.91901381 -58 113 C-57.34 113 -56.68 113 -56 113 C-55.63648438 112.11248047 -55.63648438 112.11248047 -55.265625 111.20703125 C-53.76464044 108.58957361 -52.19888161 107.43253638 -49.75 105.6875 C-46.06792832 102.93774776 -43.207023 100.11872687 -40.33203125 96.5546875 C-38.47328264 94.38523898 -36.23186939 92.77405003 -34 91 C-33.08427958 89.9334239 -32.18878795 88.8492033 -31.3125 87.75 C-30.1678125 86.38875 -30.1678125 86.38875 -29 85 C-28.34 85 -27.68 85 -27 85 C-26.6596875 83.9171875 -26.6596875 83.9171875 -26.3125 82.8125 C-25.04094425 80.08773769 -23.7369049 78.67755217 -21.5703125 76.66015625 C-17.54853347 72.40827544 -13.62173008 67.24346015 -11 62 C-10.34 62 -9.68 62 -9 62 C-8.773125 61.278125 -8.54625 60.55625 -8.3125 59.8125 C-7 57 -7 57 -4.75 54.8125 C-1.64125756 51.63310432 0.2450796 48.32913161 2.44921875 44.49609375 C4.2849903 41.54128765 6.4357774 39.09031677 8.7578125 36.515625 C10.39823749 34.51410017 11.13016462 32.42311283 12 30 C13.3227887 27.99301025 14.65783025 25.99408077 16 24 C17.27954536 21.69760819 18.52628563 19.38124794 19.75390625 17.05078125 C21.01291504 14.97874484 22.09454234 13.49984043 24 12 C27.6875 11.8125 27.6875 11.8125 31 12 C32.0257259 16.41062136 32.03684712 18.92630576 30 23 C29.34 23 28.68 23 28 23 C28 23.99 28 24.98 28 26 C27.34 26 26.68 26 26 26 C25.5978125 27.5778125 25.5978125 27.5778125 25.1875 29.1875 C24.12553785 32.59695742 23.04590182 35.10163909 21 38 C20.34 38.33 19.68 38.66 19 39 C18.0293031 40.87444919 17.06589896 42.75329726 16.15234375 44.65625 C14.2526903 48.51995194 12.11684052 52.2521512 10 56 C9.34 56 8.68 56 8 56 C7.62875 57.0209375 7.62875 57.0209375 7.25 58.0625 C5.75802092 61.56865083 3.93164489 64.71620368 2 68 C1.34 68 0.68 68 0 68 C-0.268125 68.5775 -0.53625 69.155 -0.8125 69.75 C-2.02929189 72.05550043 -3.30333879 74.02056192 -5 76 C-5.66 76 -6.32 76 -7 76 C-7.33 76.99 -7.66 77.98 -8 79 C-8.66 79 -9.32 79 -10 79 C-10.0825 79.61875 -10.165 80.2375 -10.25 80.875 C-11 83 -11 83 -13.0625 84.25 C-13.701875 84.4975 -14.34125 84.745 -15 85 C-14.67 85.99 -14.34 86.98 -14 88 C-14.66 88.66 -15.32 89.32 -16 90 C-16.99 90 -17.98 90 -19 90 C-19.1546875 90.9590625 -19.1546875 90.9590625 -19.3125 91.9375 C-19.6528125 92.9584375 -19.6528125 92.9584375 -20 94 C-20.99 94.33 -21.98 94.66 -23 95 C-23.33 95.99 -23.66 96.98 -24 98 C-24.99 98 -25.98 98 -27 98 C-27.268125 98.763125 -27.53625 99.52625 -27.8125 100.3125 C-28.9612484 102.91229902 -29.9685876 104.10215992 -32 106 C-31.26394531 105.97679688 -30.52789062 105.95359375 -29.76953125 105.9296875 C-28.30580078 105.90261719 -28.30580078 105.90261719 -26.8125 105.875 C-25.84957031 105.85179688 -24.88664063 105.82859375 -23.89453125 105.8046875 C-20.74485124 106.01721652 -18.75406045 106.45402321 -16 108 C-11.6123363 113.49674055 -11.97071894 120.24339591 -12 127 C-12.42536072 130.41564661 -13.07598625 133.68576887 -14 137 C-13.34 137 -12.68 137 -12 137 C-11.731875 136.401875 -11.46375 135.80375 -11.1875 135.1875 C-10.00082594 133.00152146 -8.90400887 131.58667406 -7 130 C-6.34 130 -5.68 130 -5 130 C-4.731875 129.21625 -4.46375 128.4325 -4.1875 127.625 C-3 125 -3 125 0 123 C1.01295836 121.34117718 2.01162318 119.67358568 3 118 C4.32038583 116.49060189 5.67750862 115.01284488 7.0625 113.5625 C12.20943058 107.94690582 16.53112101 101.89690241 20.85839844 95.64697266 C22.47379305 93.31646537 24.11446838 91.00390272 25.75 88.6875 C26.83502989 87.12617764 27.91844247 85.56372973 29 84 C29.52335937 83.25363281 30.04671875 82.50726563 30.5859375 81.73828125 C34.26149068 76.39287015 37.2330371 70.86449216 40 65 C40.66 65 41.32 65 42 65 C42.103125 64.21625 42.20625 63.4325 42.3125 62.625 C43 60 43 60 46 58 C48.6875 57.875 48.6875 57.875 51 58 C51.53449652 65.24539726 50.71607548 69.72912263 47 76 C46.34 76 45.68 76 45 76 C45 76.99 45 77.98 45 79 C44.34 79 43.68 79 43 79 C43 79.99 43 80.98 43 82 C42.34 82 41.68 82 41 82 C40.67 84.31 40.34 86.62 40 89 C39.34 89 38.68 89 38 89 C36.79371992 91.33214148 35.8345262 93.49642139 35 96 C34 97 33 98 32 99 C30.80400932 101.03232242 30.80400932 101.03232242 29.8125 103.1875 C29.46832031 103.90292969 29.12414062 104.61835937 28.76953125 105.35546875 C28.51558594 105.89816406 28.26164062 106.44085938 28 107 C27.34 107 26.68 107 26 107 C25.67 107.99 25.34 108.98 25 110 C24.34 110 23.68 110 23 110 C22.34 111.65 21.68 113.3 21 115 C20.34 115 19.68 115 19 115 C19 115.99 19 116.98 19 118 C18.34 118 17.68 118 17 118 C17 118.99 17 119.98 17 121 C16.34 121 15.68 121 15 121 C14.6596875 121.8353125 14.6596875 121.8353125 14.3125 122.6875 C12.64333462 125.62841043 10.3864325 127.6135675 8 130 C6.99431758 131.66324401 5.99335201 133.32936253 5 135 C2 137 2 137 0 138 C0 138.99 0 139.98 0 141 C-0.639375 141.103125 -1.27875 141.20625 -1.9375 141.3125 C-2.618125 141.539375 -3.29875 141.76625 -4 142 C-4.33 142.99 -4.66 143.98 -5 145 C-5.99 145 -6.98 145 -8 145 C-8.33 146.65 -8.66 148.3 -9 150 C-10.32 150 -11.64 150 -13 150 C-13 150.99 -13 151.98 -13 153 C-13.66 153 -14.32 153 -15 153 C-15.268125 153.598125 -15.53625 154.19625 -15.8125 154.8125 C-16.99917406 156.99847854 -18.09599113 158.41332594 -20 160 C-20.66 160 -21.32 160 -22 160 C-22 160.66 -22 161.32 -22 162 C-24.475 162.99 -24.475 162.99 -27 164 C-26.67 166.97 -26.34 169.94 -26 173 C-25.34 173 -24.68 173 -24 173 C-24 174.65 -24 176.3 -24 178 C-23.0409375 178.37125 -23.0409375 178.37125 -22.0625 178.75 C-20 180 -20 180 -19.4375 182.0625 C-19.2209375 183.0215625 -19.2209375 183.0215625 -19 184 C-18.01 184.33 -17.02 184.66 -16 185 C-15.67 185.66 -15.34 186.32 -15 187 C-14.34 187 -13.68 187 -13 187 C-12.34 185.68 -11.68 184.36 -11 183 C-10.34 183 -9.68 183 -9 183 C-8.731875 182.360625 -8.46375 181.72125 -8.1875 181.0625 C-7 179 -7 179 -4 178 C-2.41441619 176.36497064 -2.41441619 176.36497064 -0.9375 174.4375 C0.59765625 172.49609375 0.59765625 172.49609375 2 171 C2.66 171 3.32 171 4 171 C4.25595947 170.42258057 4.51191895 169.84516113 4.77563477 169.25024414 C6.122151 166.77550035 7.64745939 165.03372895 9.58984375 162.99609375 C10.29173828 162.25552734 10.99363281 161.51496094 11.71679688 160.75195312 C12.44962891 159.98818359 13.18246094 159.22441406 13.9375 158.4375 C14.66646484 157.66986328 15.39542969 156.90222656 16.14648438 156.11132812 C21.58696154 150.3915964 21.58696154 150.3915964 23.62719727 148.45727539 C25.68238602 146.27562473 26.74190838 143.69591062 28 141 C28.66 141 29.32 141 30 141 C30.37125 140.2265625 30.37125 140.2265625 30.75 139.4375 C32.39581616 136.22815849 34.1976096 133.12414336 36 130 C36.66 130 37.32 130 38 130 C38.268125 129.236875 38.53625 128.47375 38.8125 127.6875 C40 125 40 125 41.375 123.6875 C43.51508716 121.4651018 44.7463798 119.03461594 46.1875 116.3125 C46.71730469 115.31863281 47.24710937 114.32476562 47.79296875 113.30078125 C48.19128906 112.54152344 48.58960938 111.78226562 49 111 C49.66 111 50.32 111 51 111 C51.4021875 109.4221875 51.4021875 109.4221875 51.8125 107.8125 C52.88651306 104.3643528 54.07279167 102.00644499 56 99 C56.495 98.01 56.99 97.02 57.5 96 C61.91428571 87.17142857 61.91428571 87.17142857 65 85 C68.1875 84.8125 68.1875 84.8125 71 85 C71.125 91.625 71.125 91.625 70 95 C69.34 95 68.68 95 68 95 C68.07476562 95.68835938 68.14953125 96.37671875 68.2265625 97.0859375 C67.93201969 100.87436747 66.31899554 103.4621779 64.375 106.625 C63.63947547 107.85999318 62.90511454 109.09568006 62.171875 110.33203125 C61.80513672 110.9451416 61.43839844 111.55825195 61.06054688 112.18994141 C58.99158156 115.72108985 57.12180655 119.36190645 55.2265625 122.98828125 C54 125 54 125 52 126 C50.94952356 128.31104818 49.94992562 130.64583651 49 133 C48.67 133.66 48.34 134.32 48 135 C47.34 135 46.68 135 46 135 C45.67 136.32 45.34 137.64 45 139 C44.34 139 43.68 139 43 139 C42.62875 140.36125 42.62875 140.36125 42.25 141.75 C40.94010978 145.15571458 39.66019932 146.58919436 37 149 C36.34 149.99 35.68 150.98 35 152 C34.01 152 33.02 152 32 152 C32 152.99 32 153.98 32 155 C31.34 155 30.68 155 30 155 C29.34 156.98 28.68 158.96 28 161 C27.34 161 26.68 161 26 161 C25.7421875 161.57234375 25.484375 162.1446875 25.21875 162.734375 C23.88634058 165.21128995 22.34943882 167.1341166 20.5 169.25 C19.8915625 169.95640625 19.283125 170.6628125 18.65625 171.390625 C17 173 17 173 15 173 C15 173.99 15 174.98 15 176 C14.360625 176.28875 13.72125 176.5775 13.0625 176.875 C10.84793921 177.82823451 10.84793921 177.82823451 10 180 C9.01 180 8.02 180 7 180 C6.71125 180.639375 6.4225 181.27875 6.125 181.9375 C5 184 5 184 3 185 C1.86649466 187.01669827 1.86649466 187.01669827 1 189 C0.01 189 -0.98 189 -2 189 C-2.33 189.99 -2.66 190.98 -3 192 C-4.5159375 193.2065625 -4.5159375 193.2065625 -6.0625 194.4375 C-7.031875 195.283125 -8.00125 196.12875 -9 197 C-9 198.32 -9 199.64 -9 201 C-8.34 201 -7.68 201 -7 201 C-5.4140625 203.34375 -5.4140625 203.34375 -3.625 206.5 C-3.00109375 207.58925781 -2.3771875 208.67851562 -1.734375 209.80078125 C-0.32506863 212.40038017 0.92565092 214.98896457 2.125 217.6875 C3.64404137 221.20762183 3.64404137 221.20762183 6.75 222 C7.4925 222 8.235 222 9 222 C9.2475 221.38125 9.495 220.7625 9.75 220.125 C11.23740369 217.59641373 12.43678009 217.28160996 15 216 C15.67010087 214.6683893 16.3362002 213.33476292 17 212 C18.08574831 210.65484876 19.21368966 209.34298411 20.375 208.0625 C22.45328427 205.75089483 24.41188058 203.46566844 26.3125 201 C26.869375 200.34 27.42625 199.68 28 199 C28.66 199 29.32 199 30 199 C30.268125 198.42765625 30.53625 197.8553125 30.8125 197.265625 C32.04132636 194.92115366 33.42522176 192.87595062 35 190.75 C35.515625 190.04359375 36.03125 189.3371875 36.5625 188.609375 C37.2740625 187.81273437 37.2740625 187.81273437 38 187 C38.66 187 39.32 187 40 187 C40.2475 186.443125 40.495 185.88625 40.75 185.3125 C42.21775784 182.597148 44.06604916 180.40278741 46 178 C47.00432786 176.33593771 48.00343429 174.66872244 49 173 C50.53517829 170.5491384 52.12988651 168.14538252 53.75 165.75 C54.15476562 165.11320313 54.55953125 164.47640625 54.9765625 163.8203125 C57.43165352 160.23679456 58.38538727 159.1606664 62.765625 158.015625 C63.83296875 158.01046875 64.9003125 158.0053125 66 158 C67 159 67 159 67.1875 162.3125 C67.01798052 165.64638318 66.75557129 167.25691987 65 170 C64.34 170 63.68 170 63 170 C62.67 171.32 62.34 172.64 62 174 C61.34 174 60.68 174 60 174 C59.896875 174.639375 59.79375 175.27875 59.6875 175.9375 C59.460625 176.618125 59.23375 177.29875 59 178 C58.01 178.33 57.02 178.66 56 179 C55.26676204 181.01508358 55.26676204 181.01508358 55 183 C54.34 183 53.68 183 53 183 C52.855625 183.61875 52.71125 184.2375 52.5625 184.875 C52 187 52 187 51 189 C50.34 189 49.68 189 49 189 C48.855625 189.61875 48.71125 190.2375 48.5625 190.875 C48 193 48 193 47 195 C46.01 195 45.02 195 44 195 C43.89558594 195.57234375 43.79117187 196.1446875 43.68359375 196.734375 C42.88840501 199.36985768 41.72098509 201.06031308 40.0625 203.25 C39.53785156 203.95640625 39.01320313 204.6628125 38.47265625 205.390625 C37.74369141 206.18726563 37.74369141 206.18726563 37 207 C36.34 207 35.68 207 35 207 C35 207.66 35 208.32 35 209 C34.34 209.66 33.68 210.32 33 211 C32.505 211.70125 32.01 212.4025 31.5 213.125 C31.005 213.74375 30.51 214.3625 30 215 C29.34 215 28.68 215 28 215 C27.67 215.99 27.34 216.98 27 218 C26.34 218 25.68 218 25 218 C25 218.99 25 219.98 25 221 C23.6875 222.6875 23.6875 222.6875 22 224 C21.01 224 20.02 224 19 224 C18.34 225.32 17.68 226.64 17 228 C16.34 228 15.68 228 15 228 C13.04968392 232.94749352 13.04968392 232.94749352 14 238 C14.66 238 15.32 238 16 238 C19.27591952 243.81475715 21.7342166 248.24520726 21 255 C17.34745949 255.9392247 14.60112861 256.2652614 11 255 C9.6875 252.9375 9.6875 252.9375 9 251 C8.34 251 7.68 251 7 251 C5.375 249.6875 5.375 249.6875 4 248 C4 247.01 4 246.02 4 245 C3.34 245 2.68 245 2 245 C2 244.34 2 243.68 2 243 C1.01 243.33 0.02 243.66 -1 244 C-1.33 244.99 -1.66 245.98 -2 247 C-2.99 247 -3.98 247 -5 247 C-5.33 247.99 -5.66 248.98 -6 250 C-7.33333333 250.66666667 -8.66666667 251.33333333 -10 252 C-10.845625 252.845625 -11.69125 253.69125 -12.5625 254.5625 C-15 257 -15 257 -18 258 C-18 258.66 -18 259.32 -18 260 C-21 262 -21 262 -24 262 C-24.33 262.99 -24.66 263.98 -25 265 C-25.99 265 -26.98 265 -28 265 C-28.23203125 265.58523438 -28.4640625 266.17046875 -28.703125 266.7734375 C-32.19036359 272.76056399 -39.63798826 276.04245793 -46 278 C-46.33 278.99 -46.66 279.98 -47 281 C-48.87358655 282.00370708 -50.75571376 282.99506632 -52.6796875 283.8984375 C-55.04504838 285.02138661 -57.33337902 286.23378231 -59.625 287.5 C-60.31851563 287.8815625 -61.01203125 288.263125 -61.7265625 288.65625 C-64.12141948 290.03039485 -64.12141948 290.03039485 -66.73828125 291.93359375 C-70.53944167 294.34175407 -74.38234034 295.93789646 -78.5625 297.5625 C-84.17390855 299.71498976 -84.17390855 299.71498976 -89.46484375 302.52734375 C-98.33128066 307.67780094 -109.67827882 309.53688857 -119.48779297 312.28320312 C-121.59518446 312.88449578 -123.69169528 313.52374467 -125.78515625 314.171875 C-146.24867163 320.28038705 -176.70583695 325.13045521 -197 316 C-197 315.34 -197 314.68 -197 314 C-196.38906494 314.07798828 -195.77812988 314.15597656 -195.14868164 314.23632812 C-189.13586876 314.93146431 -183.46119288 315.05293015 -177.4375 314.5 C-176.06646118 314.3750415 -176.06646118 314.3750415 -174.66772461 314.24755859 C-165.68135423 313.29157737 -156.89025444 311.51263778 -148.0625 309.625 C-147.37533905 309.47828857 -146.6881781 309.33157715 -145.98019409 309.18041992 C-130.92604316 305.93674884 -115.6551467 302.60881319 -101.6171875 296.1484375 C-98.45080761 294.7590111 -95.22940941 293.54827823 -92 292.3125 C-80.45111828 287.81305095 -68.59411463 281.97854869 -58.625 274.5625 C-55.85894762 272.55622166 -53.01157144 270.88520881 -50.01953125 269.23046875 C-46.38637358 267.01684271 -43.01744052 264.42698918 -39.59375 261.90625 C-31.55737705 256 -31.55737705 256 -29 256 C-28.66935547 255.13181641 -28.66935547 255.13181641 -28.33203125 254.24609375 C-26.5886912 251.30644411 -24.50131643 249.98533802 -21.6875 248.0625 C-17.73922107 245.28636637 -14.32443331 242.51440093 -11 239 C-9.03334097 237.28862844 -7.02233655 235.64608789 -5 234 C-5.433125 233.18595703 -5.433125 233.18595703 -5.875 232.35546875 C-6.24625 231.64003906 -6.6175 230.92460937 -7 230.1875 C-7.37125 229.47980469 -7.7425 228.77210938 -8.125 228.04296875 C-9 226 -9 226 -9 223 C-9.99 223 -10.98 223 -12 223 C-12.95921722 221.25048432 -13.91733817 219.50036756 -14.875 217.75 C-15.40867188 216.77546875 -15.94234375 215.8009375 -16.4921875 214.796875 C-18 212 -18 212 -19.0078125 209.703125 C-19.95365185 207.64848098 -19.95365185 207.64848098 -23 207 C-23 207.66 -23 208.32 -23 209 C-24.32 209 -25.64 209 -27 209 C-27.66 210.32 -28.32 211.64 -29 213 C-29.99 213 -30.98 213 -32 213 C-32.33 213.99 -32.66 214.98 -33 216 C-35.5625 217.1875 -35.5625 217.1875 -38 218 C-38 218.66 -38 219.32 -38 220 C-38.639375 220.103125 -39.27875 220.20625 -39.9375 220.3125 C-40.618125 220.539375 -41.29875 220.76625 -42 221 C-42.33 221.99 -42.66 222.98 -43 224 C-43.99 224 -44.98 224 -46 224 C-46 224.66 -46 225.32 -46 226 C-46.969375 226.53625 -47.93875 227.0725 -48.9375 227.625 C-52.74009134 229.78134753 -56.30983397 232.22093147 -59.88671875 234.73046875 C-61.95665769 235.97396257 -63.64103076 236.55802608 -66 237 C-66 237.66 -66 238.32 -66 239 C-67.64548828 239.81404297 -67.64548828 239.81404297 -69.32421875 240.64453125 C-70.77869939 241.3670797 -72.2331235 242.08974196 -73.6875 242.8125 C-74.40873047 243.16892578 -75.12996094 243.52535156 -75.87304688 243.89257812 C-79.6855781 245.79013933 -83.35682824 247.79059261 -87 250 C-89.34503462 251.25444578 -91.69221823 252.48350746 -94.0625 253.6875 C-94.67416016 254.00783203 -95.28582031 254.32816406 -95.91601562 254.65820312 C-99.29028281 256.36904778 -101.1276724 257 -105 257 C-105 257.66 -105 258.32 -105 259 C-106.50626953 259.54527344 -106.50626953 259.54527344 -108.04296875 260.1015625 C-115.96577913 263.00338063 -123.64504786 266.09083855 -131.23046875 269.80078125 C-133.84883175 270.93454351 -136.18999295 271.56334443 -139 272 C-139.268125 272.886875 -139.53625 273.77375 -139.8125 274.6875 C-141.76456619 280.13273727 -143.94077169 284.00576284 -149 287 C-153.54871955 288.36078267 -158.41486703 289.78720215 -163.078125 288.3671875 C-165.51638861 286.86398615 -166.83841768 285.4154974 -167.875 282.75 C-167.91625 282.1725 -167.9575 281.595 -168 281 C-168.72098877 281.3079248 -169.44197754 281.61584961 -170.18481445 281.93310547 C-186.87601743 288.25871097 -206.46736338 287.55925476 -224 287 C-224.33 286.34 -224.66 285.68 -225 285 C-223.14761719 284.76216797 -223.14761719 284.76216797 -221.2578125 284.51953125 C-206.60334832 282.53841084 -192.8164889 279.27380176 -179 274 C-174.84995647 272.6635453 -171.36783355 271.73528281 -167 272 C-166.87625 271.071875 -166.7525 270.14375 -166.625 269.1875 C-166 266 -166 266 -164 263 C-163.34 263 -162.68 263 -162 263 C-162 262.01 -162 261.02 -162 260 C-160.25 258.39453125 -160.25 258.39453125 -158 256.8125 C-157.2575 256.28269531 -156.515 255.75289062 -155.75 255.20703125 C-155.1725 254.80871094 -154.595 254.41039062 -154 254 C-154.495 253.0925 -154.99 252.185 -155.5 251.25 C-157 248 -157 248 -157 244 C-157.66 244 -158.32 244 -159 244 C-159.66 242.68 -160.32 241.36 -161 240 C-162.39664108 240.11562606 -163.79231199 240.242992 -165.1875 240.375 C-165.96480469 240.44460938 -166.74210937 240.51421875 -167.54296875 240.5859375 C-170.02239891 240.90908256 -170.02239891 240.90908256 -172.28076172 241.94750977 C-175.17486922 243.06768371 -177.91637502 243.68092545 -180.96484375 244.25390625 C-182.09470703 244.46853516 -183.22457031 244.68316406 -184.38867188 244.90429688 C-185.55978516 245.12150391 -186.73089844 245.33871094 -187.9375 245.5625 C-189.68836914 245.89411133 -189.68836914 245.89411133 -191.47460938 246.23242188 C-194.64818607 246.8309711 -197.82207998 247.4249577 -201 248 C-202.50397339 248.2769873 -202.50397339 248.2769873 -204.03833008 248.55957031 C-208.9330196 249.28745918 -213.81008245 249.18446565 -218.75 249.1875 C-219.78382813 249.19974609 -220.81765625 249.21199219 -221.8828125 249.22460938 C-228.32476903 249.23677932 -234.8374122 249.08096863 -241 247 C-241.33 246.34 -241.66 245.68 -242 245 C-240.85789063 244.92523438 -239.71578125 244.85046875 -238.5390625 244.7734375 C-225.14026964 243.74438322 -212.41606316 241.05406307 -199.38720703 237.83642578 C-194.78514924 236.70000874 -190.17643755 235.59197711 -185.56713867 234.48535156 C-183.40886347 233.96623451 -181.25142269 233.4436317 -179.0949707 232.91699219 C-174.41260708 231.77938794 -169.77437425 230.69017315 -165 230 C-165.33 228.02 -165.66 226.04 -166 224 C-166.66 224 -167.32 224 -168 224 C-170.87884807 217.40721817 -173.50865808 211.04998001 -175 204 C-175.66 204 -176.32 204 -177 204 C-178.76462683 200.91190305 -179 199.76687864 -179 196 C-179.66 196 -180.32 196 -181 196 C-181.33 195.01 -181.66 194.02 -182 193 C-189.52123225 193.61478217 -196.96614955 194.51224447 -204.4375 195.5625 C-212.35341704 196.64249416 -220.00103649 197.46445595 -228 197 C-228 196.34 -228 195.68 -228 195 C-227.14019531 194.82984375 -226.28039062 194.6596875 -225.39453125 194.484375 C-212.44920592 191.83037155 -200.27597419 187.90235303 -188 183 C-188.49113281 182.06929687 -188.98226562 181.13859375 -189.48828125 180.1796875 C-190.97635597 177.0497319 -191.29894199 175.38800918 -191 172 C-192.65 172 -194.3 172 -196 172 C-195.57781184 170.3501725 -195.13675575 168.70516335 -194.6875 167.0625 C-194.44386719 166.14597656 -194.20023438 165.22945312 -193.94921875 164.28515625 C-193.63597656 163.53105469 -193.32273438 162.77695313 -193 162 C-192.01 161.67 -191.02 161.34 -190 161 C-188.79117904 158.99983534 -188.79117904 158.99983534 -188 157 C-187.34 157 -186.68 157 -186 157 C-185.34 155.68 -184.68 154.36 -184 153 C-183.34 153 -182.68 153 -182 153 C-181.67 151.35 -181.34 149.7 -181 148 C-181.62519531 148.25394531 -182.25039062 148.50789062 -182.89453125 148.76953125 C-190.98830442 151.66248632 -198.98276177 152.80415886 -207.5 153.75 C-209.18959839 153.94106323 -209.18959839 153.94106323 -210.91333008 154.13598633 C-218.63086546 154.93431347 -226.2444734 155.14385767 -234 155 C-234 154.34 -234 153.68 -234 153 C-232.42025391 152.67128906 -232.42025391 152.67128906 -230.80859375 152.3359375 C-221.92947339 150.41091934 -213.71666842 147.95616259 -205.3671875 144.3671875 C-201.94400448 142.977264 -198.55438189 142.00616349 -195 141 C-189.98373614 139.30501928 -184.99907197 137.51857013 -180.00976562 135.74609375 C-179.01009766 135.39417969 -178.01042969 135.04226562 -176.98046875 134.6796875 C-176.07192139 134.35726074 -175.16337402 134.03483398 -174.22729492 133.70263672 C-172 133 -172 133 -170 133 C-169.731875 131.948125 -169.46375 130.89625 -169.1875 129.8125 C-168 126 -168 126 -166.5625 123.625 C-164.81047675 120.68160093 -163.91081891 117.84159033 -162.8828125 114.58984375 C-161.52984794 110.62074861 -159.84371439 106.80131623 -158.19140625 102.94921875 C-156.82723873 99.57234506 -155.79109079 96.16589922 -154.87109375 92.64453125 C-154 91 -154 91 -152.05078125 90.234375 C-149.77193326 89.97393523 -148.17090066 90.3022105 -146 91 C-145.87625 91.639375 -145.7525 92.27875 -145.625 92.9375 C-145.41875 93.618125 -145.2125 94.29875 -145 95 C-144.34 95.33 -143.68 95.66 -143 96 C-143 96.66 -143 97.32 -143 98 C-141.515 98.495 -141.515 98.495 -140 99 C-137.8125 100.875 -137.8125 100.875 -136 103 C-136 103.99 -136 104.98 -136 106 C-135.34 106 -134.68 106 -134 106 C-134 106.99 -134 107.98 -134 109 C-133.34 109 -132.68 109 -132 109 C-131.34 110.32 -130.68 111.64 -130 113 C-129.278125 112.71125 -128.55625 112.4225 -127.8125 112.125 C-125.96960354 111.38784142 -124.11535859 110.67831222 -122.25 110 C-119.84296517 109.21568639 -119.84296517 109.21568639 -119 107 C-117.11870126 106.05935063 -115.23472104 105.12358548 -113.3359375 104.21875 C-109.993161 102.4746927 -106.96248533 100.3394496 -103.8828125 98.171875 C-102 97 -102 97 -100 97 C-100 96.34 -100 95.68 -100 95 C-98.48828125 93.80859375 -98.48828125 93.80859375 -96.3125 92.4375 C-92.20683111 89.78741801 -88.14940185 87.08376086 -84.125 84.3125 C-83.28642456 83.74196899 -83.28642456 83.74196899 -82.4309082 83.15991211 C-80.21299912 81.6325571 -78.1435046 80.1444613 -76.2421875 78.23046875 C-75 77 -75 77 -73 77 C-72.67 76.01 -72.34 75.02 -72 74 C-71.34 74 -70.68 74 -70 74 C-69.67 73.01 -69.34 72.02 -69 71 C-67.38542921 69.56418526 -65.70780925 68.19855217 -64 66.875 C-59.23020743 63.08777226 -54.9583846 59.07532549 -50.77734375 54.65234375 C-49 53 -49 53 -47 53 C-46.731875 52.360625 -46.46375 51.72125 -46.1875 51.0625 C-45 49 -45 49 -42 48 C-41.67 47.01 -41.34 46.02 -41 45 C-40.34 45 -39.68 45 -39 45 C-38.67 43.68 -38.34 42.36 -38 41 C-37.34 41 -36.68 41 -36 41 C-35.7525 40.443125 -35.505 39.88625 -35.25 39.3125 C-32.71028463 34.61402657 -28.89693638 30.66325367 -25.5 26.5625 C-21.90100101 22.16372345 -18.63844917 17.74917698 -15.7265625 12.86328125 C-15.05753906 11.75533203 -15.05753906 11.75533203 -14.375 10.625 C-13.97023437 9.93664063 -13.56546875 9.24828125 -13.1484375 8.5390625 C-12.76945313 8.03117187 -12.39046875 7.52328125 -12 7 C-11.34 7 -10.68 7 -10 7 C-9.855625 6.38125 -9.71125 5.7625 -9.5625 5.125 C-9 3 -9 3 -8 1 C-5.14829211 0.01665245 -3.10359391 0 0 0 Z M-148 103 C-148.12117188 103.72445312 -148.24234375 104.44890625 -148.3671875 105.1953125 C-149.25378862 110.31031896 -150.32018836 115.08055162 -152 120 C-152 121.32 -152 122.64 -152 124 C-152.66 124 -153.32 124 -154 124 C-154 124.66 -154 125.32 -154 126 C-147.74373931 124.86929168 -147.74373931 124.86929168 -143 121 C-142.01 120.67 -141.02 120.34 -140 120 C-140.33 118.35 -140.66 116.7 -141 115 C-141.66 115 -142.32 115 -143 115 C-143.12375 113.4221875 -143.12375 113.4221875 -143.25 111.8125 C-144.05320762 107.72952791 -145.19334709 105.9877273 -148 103 Z M-33 118 C-33 118.66 -33 119.32 -33 120 C-33.66 120 -34.32 120 -35 120 C-36.59970447 122.14176336 -36.59970447 122.14176336 -38.125 124.8125 C-38.66382813 125.70582031 -39.20265625 126.59914063 -39.7578125 127.51953125 C-41.22388837 129.98471897 -41.22388837 129.98471897 -41 133 C-41.66 133 -42.32 133 -43 133 C-43.45732667 138.71658336 -42.52273754 141.48649253 -39 146 C-35.06403588 146.0803258 -33.01512746 145.94690097 -30.08203125 143.2109375 C-24.88932309 136.76710775 -21.54204143 131.0906399 -22.1875 122.6875 C-22.59286149 119.24462979 -23.01040267 117.984396 -25 115 C-28.08009879 115 -30.31135136 116.5972268 -33 118 Z M-53 122 C-53.86625 123.3921875 -53.86625 123.3921875 -54.75 124.8125 C-57.52541702 128.74434078 -59.78470501 129.77738991 -64 132 C-65.70921589 133.5412312 -65.70921589 133.5412312 -67 135 C-67.99 135.66 -68.98 136.32 -70 137 C-70 137.66 -70 138.32 -70 139 C-70.53625 139.103125 -71.0725 139.20625 -71.625 139.3125 C-74.68903103 140.19945635 -77.24761134 141.38446752 -80 143 C-80.309375 143.680625 -80.61875 144.36125 -80.9375 145.0625 C-82 147 -82 147 -85.625 148.25 C-86.73875 148.4975 -87.8525 148.745 -89 149 C-89 149.66 -89 150.32 -89 151 C-90.134375 151.28875 -91.26875 151.5775 -92.4375 151.875 C-93.613125 152.24625 -94.78875 152.6175 -96 153 C-96.33 153.66 -96.66 154.32 -97 155 C-98.485 155.495 -98.485 155.495 -100 156 C-100 156.66 -100 157.32 -100 158 C-101.32 158 -102.64 158 -104 158 C-104 158.99 -104 159.98 -104 161 C-103.01 161.66 -102.02 162.32 -101 163 C-100.29508733 165.32206525 -99.62787571 167.65593068 -99 170 C-98.34 170.66 -97.68 171.32 -97 172 C-96.835 172.845625 -96.67 173.69125 -96.5 174.5625 C-96.335 175.366875 -96.17 176.17125 -96 177 C-95.34 177.33 -94.68 177.66 -94 178 C-93.65657551 179.33076989 -93.32380126 180.66431979 -93 182 C-92.34 182.66 -91.68 183.32 -91 184 C-90.24785002 185.5207704 -89.54332588 187.06557295 -88.875 188.625 C-88.52179688 189.44226563 -88.16859375 190.25953125 -87.8046875 191.1015625 C-87.53914063 191.72804688 -87.27359375 192.35453125 -87 193 C-84.66834966 193.33498301 -84.66834966 193.33498301 -82 193 C-80.6434836 191.69026002 -79.31442362 190.35197858 -78 189 C-76.11710325 188.10810154 -74.23384233 187.2169522 -72.34765625 186.33203125 C-68.36816143 184.07411489 -65.02140509 181.0442944 -61.53125 178.10546875 C-58.80474272 175.83758692 -55.99909711 173.89073513 -53 172 C-51.3729308 170.91977691 -49.74805872 169.83623961 -48.125 168.75 C-46.75 167.83333333 -45.375 166.91666667 -44 166 C-44.50797009 161.6822542 -45.19682779 157.96697886 -47 154 C-47.66 154 -48.32 154 -49 154 C-49.20496094 153.36191406 -49.40992188 152.72382813 -49.62109375 152.06640625 C-49.89050781 151.24011719 -50.15992188 150.41382813 -50.4375 149.5625 C-50.70433594 148.73878906 -50.97117188 147.91507813 -51.24609375 147.06640625 C-51.82155494 145.03780412 -51.82155494 145.03780412 -53 144 C-53.2847786 138.49428045 -52.72957884 134.29047645 -51 129 C-50.65772583 127.66893378 -50.32248257 126.33599921 -50 125 C-49.66666667 123.66666667 -49.33333333 122.33333333 -49 121 C-50.36893239 120.94729537 -50.36893239 120.94729537 -53 122 Z M-141.1875 131 C-142.08855469 131.37125 -142.98960937 131.7425 -143.91796875 132.125 C-144.60503906 132.41375 -145.29210937 132.7025 -146 133 C-146 133.66 -146 134.32 -146 135 C-147.65 135 -149.3 135 -151 135 C-151 135.66 -151 136.32 -151 137 C-152.6396875 137.185625 -152.6396875 137.185625 -154.3125 137.375 C-158.07381802 137.75464801 -158.07381802 137.75464801 -161 140 C-161.33 140.825 -161.66 141.65 -162 142.5 C-163 145 -163 145 -166 147 C-166 147.66 -166 148.32 -166 149 C-166.66 149 -167.32 149 -168 149 C-168.99 151.97 -169.98 154.94 -171 158 C-171.99 158 -172.98 158 -174 158 C-174.495 160.475 -174.495 160.475 -175 163 C-175.99 163 -176.98 163 -178 163 C-178 163.99 -178 164.98 -178 166 C-179.32 166.66 -180.64 167.32 -182 168 C-182.33498301 170.33165034 -182.33498301 170.33165034 -182 173 C-180.16666667 175.16666667 -180.16666667 175.16666667 -178 177 C-177.34 177.99 -176.68 178.98 -176 180 C-168.64564108 177.38672359 -161.30239027 174.75561897 -154 172 C-152.515 171.505 -152.515 171.505 -151 171 C-151 170.34 -151 169.68 -151 169 C-150.1646875 168.85304688 -150.1646875 168.85304688 -149.3125 168.703125 C-144.4645893 167.75319655 -140.41122369 166.41811593 -136.0625 164.0859375 C-132.46737476 162.19304959 -128.72387974 160.62057729 -125 159 C-125 158.34 -125 157.68 -125 157 C-124.360625 156.896875 -123.72125 156.79375 -123.0625 156.6875 C-122.381875 156.460625 -121.70125 156.23375 -121 156 C-119.694761 152.08428299 -120.67760152 150.96107003 -122.4375 147.3125 C-122.91058594 146.31863281 -123.38367188 145.32476562 -123.87109375 144.30078125 C-124.24363281 143.54152344 -124.61617187 142.78226563 -125 142 C-125.99 142 -126.98 142 -128 142 C-128.495 139.03 -128.495 139.03 -129 136 C-129.66 136 -130.32 136 -131 136 C-131 134.68 -131 133.36 -131 132 C-131.66 132 -132.32 132 -133 132 C-133 131.01 -133 130.02 -133 129 C-136.29657856 129 -138.16364428 129.74333269 -141.1875 131 Z M-121 166.8125 C-121.845625 167.16957031 -122.69125 167.52664062 -123.5625 167.89453125 C-124.7690625 168.44173828 -124.7690625 168.44173828 -126 169 C-126.7425 169.33386719 -127.485 169.66773438 -128.25 170.01171875 C-130.17470718 170.88365983 -130.17470718 170.88365983 -131 173 C-133.5625 173.625 -133.5625 173.625 -136 174 C-136 174.66 -136 175.32 -136 176 C-136.59425781 176.08636719 -137.18851563 176.17273438 -137.80078125 176.26171875 C-143.82358324 177.2826914 -148.83308739 179.12676513 -154.328125 181.765625 C-158.12034211 183.51758495 -162.01632497 184.76475193 -166 186 C-167.175625 186.391875 -168.35125 186.78375 -169.5625 187.1875 C-170.366875 187.455625 -171.17125 187.72375 -172 188 C-171.67 189.32 -171.34 190.64 -171 192 C-170.34 192 -169.68 192 -169 192 C-168.90203125 192.59167969 -168.8040625 193.18335938 -168.703125 193.79296875 C-167.71896617 198.9937391 -166.51439285 201.93648327 -163 206 C-161.75 209.3125 -161.75 209.3125 -161 212 C-160.34 212 -159.68 212 -159 212 C-158.89042969 212.59167969 -158.78085938 213.18335938 -158.66796875 213.79296875 C-158.50941406 214.58316406 -158.35085937 215.37335938 -158.1875 216.1875 C-158.03667969 216.96480469 -157.88585937 217.74210937 -157.73046875 218.54296875 C-156.89302341 221.35983034 -155.5931728 223.54258551 -154 226 C-146.02858998 223.46741661 -138.39453545 220.96135828 -131 217 C-129.29590695 216.2650208 -127.5913825 215.53097554 -125.88232422 214.80761719 C-122.82980144 213.49792259 -119.82086595 212.09479935 -116.8125 210.6875 C-115.84944946 210.2378186 -115.84944946 210.2378186 -114.86694336 209.77905273 C-108.85732645 206.95872727 -102.91778122 204.00848095 -97 201 C-97 199.02 -97 197.04 -97 195 C-97.66 195 -98.32 195 -99 195 C-99 194.01 -99 193.02 -99 192 C-99.66 192 -100.32 192 -101 192 C-101 190.68 -101 189.36 -101 188 C-101.66 188 -102.32 188 -103 188 C-103 186.02 -103 184.04 -103 182 C-103.99 182 -104.98 182 -106 182 C-106.12375 181.071875 -106.2475 180.14375 -106.375 179.1875 C-106.81533082 175.86074765 -106.81533082 175.86074765 -109 173 C-109.66 173 -110.32 173 -111 173 C-111.495 169.535 -111.495 169.535 -112 166 C-115.60678206 164.68920189 -117.53159537 165.31622178 -121 166.8125 Z M-39 174 C-39.33 174.99 -39.66 175.98 -40 177 C-40.99 177 -41.98 177 -43 177 C-43 177.66 -43 178.32 -43 179 C-43.763125 179.268125 -44.52625 179.53625 -45.3125 179.8125 C-47.94364126 180.9750973 -49.05737652 181.97291463 -51 184 C-53.1875 185.1875 -53.1875 185.1875 -55 186 C-55 186.66 -55 187.32 -55 188 C-55.85078125 188.15855469 -55.85078125 188.15855469 -56.71875 188.3203125 C-59.37600715 189.11202953 -61.21891606 190.30480181 -63.5 191.875 C-64.62921875 192.64457031 -64.62921875 192.64457031 -65.78125 193.4296875 C-67.2562752 194.47363139 -68.71014018 195.54815565 -70.140625 196.65234375 C-72.10882792 198.07887738 -73.62615135 198.57609845 -76 199 C-76 199.99 -76 200.98 -76 202 C-77.98 202.33 -79.96 202.66 -82 203 C-81.76023438 203.89460938 -81.52046875 204.78921875 -81.2734375 205.7109375 C-79.24642932 213.97760564 -77.91873216 221.23791789 -82.08203125 229.0234375 C-83.28081109 231.24141888 -83.28081109 231.24141888 -83 235 C-79.08072846 233.56699395 -75.72098412 231.71353049 -72.1875 229.5 C-71.63634521 229.15614258 -71.08519043 228.81228516 -70.51733398 228.45800781 C-69.31941189 227.7100337 -68.12259422 226.96028853 -66.92675781 226.20898438 C-64.88948055 224.93065226 -62.84754081 223.66002536 -60.8046875 222.390625 C-59.39050143 221.51061521 -57.976437 220.63040991 -56.5625 219.75 C-55.90080811 219.33814453 -55.23911621 218.92628906 -54.55737305 218.50195312 C-52.70043895 217.34157501 -50.84989793 216.17155144 -49 215 C-48.40429199 214.63197266 -47.80858398 214.26394531 -47.19482422 213.88476562 C-45.76138372 212.97643027 -44.37499753 211.99458863 -43 211 C-43 210.34 -43 209.68 -43 209 C-41.824375 208.8453125 -41.824375 208.8453125 -40.625 208.6875 C-37.66954819 208.22404978 -37.66954819 208.22404978 -36 205 C-35.01 204.67 -34.02 204.34 -33 204 C-30.26185953 201.46221127 -28.07404293 199.1110644 -26 196 C-26.66 196 -27.32 196 -28 196 C-28.19335938 195.31292969 -28.38671875 194.62585938 -28.5859375 193.91796875 C-28.97652344 192.56638672 -28.97652344 192.56638672 -29.375 191.1875 C-29.63023437 190.29417969 -29.88546875 189.40085938 -30.1484375 188.48046875 C-30.95266661 185.79532104 -30.95266661 185.79532104 -33 183 C-33.66 183 -34.32 183 -35 183 C-34.9175 182.2575 -34.835 181.515 -34.75 180.75 C-35.07105184 177.21842973 -36.35265617 176.23369636 -39 174 Z M-109 218 C-113.26330514 219.93786597 -117.53677908 221.58483239 -122 223 C-122 223.66 -122 224.32 -122 225 C-123.07314453 225.19916016 -123.07314453 225.19916016 -124.16796875 225.40234375 C-126.94188322 225.98773535 -129.60299275 226.73158444 -132.3125 227.5625 C-133.19550781 227.83191406 -134.07851562 228.10132813 -134.98828125 228.37890625 C-135.65214844 228.58386719 -136.31601563 228.78882813 -137 229 C-137 229.66 -137 230.32 -137 231 C-138.03125 231.103125 -139.0625 231.20625 -140.125 231.3125 C-143.95083945 231.99127797 -146.63370025 233.11158795 -150 235 C-149.50755486 237.56071474 -148.76039663 239.46878921 -147.5625 241.8125 C-145.89598555 245.21218948 -144.94979856 248.34692863 -144 252 C-143.34 252 -142.68 252 -142 252 C-142 252.66 -142 253.32 -142 254 C-141.319375 254.680625 -141.319375 254.680625 -140.625 255.375 C-138.87079621 257.12920379 -138.05354071 258.77382267 -137 261 C-128.64486608 257.94938021 -120.37461581 254.86494632 -112.31640625 251.08203125 C-110.3599289 250.16812868 -108.37032476 249.32565163 -106.375 248.5 C-98.61320306 245.50429577 -98.61320306 245.50429577 -93 240 C-95.64 240 -98.28 240 -101 240 C-103.58831191 231.10267782 -103.58831191 223.89732218 -101 215 C-104.67165265 215 -105.89389544 216.09398129 -109 218 Z " fill="#B7D2E7" transform="translate(267,17)"/>
<path d="M0 0 C0.66 0.66 1.32 1.32 2 2 C0.88121617 3.17262904 -0.24523051 4.33795138 -1.375 5.5 C-2.00148438 6.1496875 -2.62796875 6.799375 -3.2734375 7.46875 C-5 9 -5 9 -7 9 C-7 8.34 -7 7.68 -7 7 C-6.34 7 -5.68 7 -5 7 C-4.34 5.68 -3.68 4.36 -3 3 C-2.34 3 -1.68 3 -1 3 C-0.67 2.01 -0.34 1.02 0 0 Z " fill="#B6DFEC" transform="translate(259,197)"/>
<path d="M0 0 C2.97 0.33 5.94 0.66 9 1 C8.67 1.99 8.34 2.98 8 4 C2.25 3.125 2.25 3.125 0 2 C0 1.34 0 0.68 0 0 Z " fill="#AEDAED" transform="translate(70,331)"/>
</svg>
