<?xml version="1.0" encoding="UTF-8"?>
<svg version="1.1" xmlns="http://www.w3.org/2000/svg" width="350" height="350">
<path d="M0 0 C2.0625 1.625 2.0625 1.625 4 4 C3.01486624 18.02366881 -12.91548123 32.93152334 -22.0625 42.87890625 C-23.72133629 44.69493066 -25.31415199 46.53753917 -26.875 48.4375 C-30.22891566 52.48192771 -30.22891566 52.48192771 -32 54 C-32.66 54 -33.32 54 -34 54 C-34 54.66 -34 55.32 -34 56 C-35.50390625 57.48046875 -35.50390625 57.48046875 -37.5625 59.1875 C-40.27482613 61.48728702 -42.84966643 63.81054465 -45.3125 66.375 C-49.03268584 70.16297965 -53.12129566 73.42875282 -57.25390625 76.75390625 C-59.6743574 78.73364937 -62.00119141 80.77028882 -64.3125 82.875 C-79.80790832 96.75230373 -97.03582477 108.57989343 -115 119 C-115.92296875 119.57621094 -116.8459375 120.15242188 -117.796875 120.74609375 C-120 122 -120 122 -122 122 C-116.29702493 134.43158755 -110.34406939 146.45171697 -103 158 C-92.49169955 151.71863389 -82.76438703 144.36240878 -73 137 C-71.90631104 136.17653076 -71.90631104 136.17653076 -70.79052734 135.33642578 C-68.81083151 133.83836503 -66.84075049 132.32879562 -64.875 130.8125 C-64.28936279 130.36745117 -63.70372559 129.92240234 -63.1003418 129.46386719 C-60.4073009 127.35914964 -59.10598745 126.31796235 -58 123 C-59.24103211 120.38884498 -60.54088122 117.89967929 -61.9375 115.375 C-67.79357325 104.10463185 -67.79357325 104.10463185 -66 98 C-62.60261448 88.8466124 -57.35023053 80.33848182 -48.3125 75.9375 C-44.84988619 74.95751496 -43.29050081 74.57708073 -40 76 C-35.62942535 80.37057465 -34.2310398 84.68960197 -33.625 90.75 C-33.80731623 97.09460468 -36.47841417 103.27500699 -40.1875 108.375 C-43.7596498 111.70900648 -47.45817771 113.3178436 -52 115 C-51.34 116.32 -50.68 117.64 -50 119 C-49.37955811 118.40928711 -49.37955811 118.40928711 -48.74658203 117.80664062 C-46.87754113 116.03260012 -45.00140701 114.26624613 -43.125 112.5 C-42.14853516 111.56994141 -42.14853516 111.56994141 -41.15234375 110.62109375 C-40.52714844 110.03457031 -39.90195313 109.44804687 -39.2578125 108.84375 C-38.39373779 108.02680664 -38.39373779 108.02680664 -37.51220703 107.19335938 C-36 106 -36 106 -34 106 C-34 105.34 -34 104.68 -34 104 C-32.53125 102.5546875 -32.53125 102.5546875 -30.5 100.875 C-22.80625164 94.73088433 -22.80625164 94.73088433 -17 87 C-16.34 87 -15.68 87 -15 87 C-14.76152344 86.44054687 -14.52304687 85.88109375 -14.27734375 85.3046875 C-12.71408485 82.48412863 -10.78418849 80.46399365 -8.5625 78.125 C-1.20364242 70.20337472 5.32601814 61.67658772 11.703125 52.953125 C12.3331543 52.09138672 12.96318359 51.22964844 13.61230469 50.34179688 C14.85273652 48.63868975 16.08793495 46.9317563 17.31738281 45.22070312 C17.88295898 44.44146484 18.44853516 43.66222656 19.03125 42.859375 C19.53205078 42.16295898 20.03285156 41.46654297 20.54882812 40.74902344 C22 39 22 39 25 37 C28.07547814 41.42868852 28.07547814 41.42868852 27.74609375 43.921875 C19.6054552 66.59632373 -6.03296984 89.07632214 -22.6875 105.8125 C-23.88185669 107.01398682 -23.88185669 107.01398682 -25.1003418 108.23974609 C-31.42390874 114.54556682 -37.95961518 120.49969936 -45 126 C-44.07053586 130.28599299 -42.0380091 133.7888715 -39.875 137.5625 C-39.47482666 138.26761719 -39.07465332 138.97273437 -38.66235352 139.69921875 C-35.29364877 145.5892648 -31.73372905 151.33337585 -28 157 C-23.83347737 153.59421886 -20.35751491 150.22798174 -17 146 C-16.34 146 -15.68 146 -15 146 C-14.74347656 145.41347656 -14.48695313 144.82695312 -14.22265625 144.22265625 C-12.88826104 141.79687071 -11.45514672 140.32471299 -9.4375 138.4375 C-5.39514062 134.49711004 -1.85834446 130.29010475 1.66796875 125.88671875 C3.18308433 124.01122392 4.72620826 122.15789433 6.30078125 120.33203125 C17.40031094 107.45221693 27.01275564 93.31060778 35.44897461 78.56005859 C35.86026611 77.85703613 36.27155762 77.15401367 36.6953125 76.4296875 C37.04609863 75.81335449 37.39688477 75.19702148 37.75830078 74.56201172 C39.27151226 72.65844762 40.7821182 71.93885078 43 71 C45.08329932 75.16659864 45.19247732 77.51006367 44 82 C42.38739761 85.13222051 40.49230591 88.05523938 38.5625 91 C38.02334961 91.836521 37.48419922 92.67304199 36.92871094 93.53491211 C30.36767075 103.63810304 23.45052458 113.40512784 15.8203125 122.734375 C13.50929778 125.61074525 11.35728851 128.5899777 9.2265625 131.6015625 C8.82179688 132.06304687 8.41703125 132.52453125 8 133 C7.34 133 6.68 133 6 133 C5.78730469 133.53109375 5.57460938 134.0621875 5.35546875 134.609375 C3.47761519 137.92132422 0.92004393 140.50988934 -1.6875 143.25 C-2.773101 144.40404036 -3.85773952 145.55898689 -4.94140625 146.71484375 C-5.72862061 147.55378174 -5.72862061 147.55378174 -6.53173828 148.40966797 C-9.01228154 151.09644196 -11.36219409 153.89219933 -13.6953125 156.70703125 C-15 158 -15 158 -17 158 C-17.33 158.99 -17.66 159.98 -18 161 C-18.66 161 -19.32 161 -20 161 C-20 161.66 -20 162.32 -20 163 C-20.66 163 -21.32 163 -22 163 C-21.43476326 167.18068108 -20.05711327 169.83043236 -17.69140625 173.30078125 C-17.02689453 174.27724609 -16.36238281 175.25371094 -15.67773438 176.25976562 C-14.97970703 177.26716797 -14.28167969 178.27457031 -13.5625 179.3125 C-12.86833984 180.33923828 -12.17417969 181.36597656 -11.45898438 182.42382812 C-8.83519161 186.29103081 -8.83519161 186.29103081 -6 190 C-3.82448229 190.22018632 -3.82448229 190.22018632 -2.08203125 188.3125 C-1.33308594 187.549375 -0.58414063 186.78625 0.1875 186 C0.92355469 185.2575 1.65960938 184.515 2.41796875 183.75 C8.09886895 177.69954048 13.42547747 171.3525223 18.6875 164.9375 C19.28836426 164.2050708 19.88922852 163.4726416 20.50830078 162.71801758 C21.74177975 161.21196541 22.97420769 159.70505181 24.20556641 158.19726562 C25.3625075 156.78060306 26.52092598 155.36514511 27.68115234 153.95117188 C33.62533631 146.69786287 39.21394191 139.42425688 44.30859375 131.54296875 C46.34428079 128.48238616 48.56052552 125.74440879 51 123 C52.32 123.66 53.64 124.32 55 125 C51.44859263 138.73210848 41.71507371 150.09924114 33 161 C32.27039063 161.91265625 31.54078125 162.8253125 30.7890625 163.765625 C20.95771729 175.90396457 10.6777988 187.60277504 0 199 C0.72316406 200.08667969 0.72316406 200.08667969 1.4609375 201.1953125 C2.09257812 202.16210938 2.72421875 203.12890625 3.375 204.125 C4.00148438 205.07632813 4.62796875 206.02765625 5.2734375 207.0078125 C6.97681069 209.95981219 8.04193409 212.73870494 9 216 C6.525 216.99 6.525 216.99 4 218 C0.0747975 214.29909479 -2.94580156 210.45040344 -6 206 C-9.97796143 208.82073628 -13.76953974 211.63465972 -17.125 215.1875 C-27.58431509 225.92886404 -40.79848677 234.38830331 -53 243 C-53.63518555 243.45262207 -54.27037109 243.90524414 -54.92480469 244.37158203 C-82.30792077 263.78696176 -112.29442297 273.89626457 -145 280 C-145.86044922 280.16274414 -146.72089844 280.32548828 -147.60742188 280.49316406 C-159.26996073 282.62745477 -170.91915301 283.36634407 -182.75 283.75 C-183.4419043 283.77332397 -184.13380859 283.79664795 -184.84667969 283.82067871 C-200.20187902 284.30760882 -200.20187902 284.30760882 -207 283 C-209.0625 279.9375 -209.0625 279.9375 -210 277 C-208.17400815 275.17400815 -205.27140549 275.82591877 -202.81640625 275.7890625 C-201.50937744 275.76295898 -200.20234863 275.73685547 -198.85571289 275.70996094 C-198.15624542 275.69670776 -197.45677795 275.68345459 -196.7361145 275.6697998 C-123.33242693 274.15689544 -65.09919088 247.57777857 -12 198 C-15.58830398 191.07086128 -19.83035366 184.76160592 -24.34106445 178.41015625 C-24.8124585 177.73984375 -25.28385254 177.06953125 -25.76953125 176.37890625 C-26.19854736 175.7763501 -26.62756348 175.17379395 -27.06958008 174.55297852 C-28 173 -28 173 -28 171 C-33.58468449 175.47206843 -39.03252756 179.97920631 -44.25 184.875 C-69.89700224 208.40903899 -120.14181568 245 -156 245 C-156.226875 245.886875 -156.45375 246.77375 -156.6875 247.6875 C-158.42668314 252.07686696 -160.52109294 254.89603329 -164.9296875 256.859375 C-168.52414672 257.97162276 -170.32800877 258.2775616 -173.875 256.8125 C-176 255 -176 255 -178 252 C-184.39255184 252.48486421 -190.76519759 253.0755711 -197.13623047 253.78613281 C-204.4673831 254.60022588 -211.61078055 255.24226949 -219 255 C-220.4606285 252.35261084 -221 251.10551666 -221 248 C-220.16984375 247.90203125 -219.3396875 247.8040625 -218.484375 247.703125 C-214.94984291 247.27424872 -211.41863923 246.82539878 -207.88769531 246.36816406 C-205.76807947 246.09792559 -203.64748227 245.83535559 -201.52636719 245.57714844 C-197.72341628 245.11105687 -193.9243337 244.61963937 -190.125 244.125 C-188.87041992 243.97579102 -187.61583984 243.82658203 -186.32324219 243.67285156 C-184.55835449 243.43646973 -184.55835449 243.43646973 -182.7578125 243.1953125 C-181.6970752 243.06141113 -180.63633789 242.92750977 -179.54345703 242.78955078 C-176.87316428 242.25612174 -176.87316428 242.25612174 -175.72338867 240.0546875 C-175.48467041 239.37664062 -175.24595215 238.69859375 -175 238 C-174.09954237 236.60046175 -173.16036788 235.22520714 -172.1875 233.875 C-171.70667969 233.19179688 -171.22585937 232.50859375 -170.73046875 231.8046875 C-168.67043872 229.65630404 -166.76234076 229.02463472 -164 228 C-164.176521 227.36497559 -164.35304199 226.72995117 -164.53491211 226.07568359 C-165.33893883 223.17632251 -166.13825748 220.27568338 -166.9375 217.375 C-167.21529297 216.37597656 -167.49308594 215.37695312 -167.77929688 214.34765625 C-169.08846114 209.58419109 -170.33855304 204.90642933 -171 200 C-171.52094238 200.1858667 -172.04188477 200.3717334 -172.57861328 200.56323242 C-216.43566833 216.06270352 -216.43566833 216.06270352 -235 214 C-237.125 211.625 -237.125 211.625 -238 209 C-237.505 208.01 -237.505 208.01 -237 207 C-234.48168945 206.40917969 -234.48168945 206.40917969 -231.11328125 205.921875 C-229.87481445 205.73359131 -228.63634766 205.54530762 -227.36035156 205.35131836 C-226.36944519 205.20483353 -226.36944519 205.20483353 -225.35852051 205.0553894 C-215.03042381 203.51381576 -204.82633069 201.72663546 -194.75 198.9375 C-193.47829956 198.58800293 -193.47829956 198.58800293 -192.1809082 198.23144531 C-186.2921024 196.53667274 -180.65052829 194.36385917 -175 192 C-176.4906365 188.17610973 -177.98408506 184.3533303 -179.47998047 180.53149414 C-179.98691137 179.23523615 -180.49311556 177.9386937 -180.99853516 176.6418457 C-183.62360805 169.90762404 -186.25572232 163.19863828 -189.32714844 156.65209961 C-190 155 -190 155 -190 153 C-190.71430176 153.17128418 -191.42860352 153.34256836 -192.16455078 153.51904297 C-231.74249259 162.96240237 -231.74249259 162.96240237 -241 160 C-240.9375 158.1875 -240.9375 158.1875 -240 156 C-234.19498398 152.93514161 -228.31262256 152.00318391 -221.875 151 C-214.27594343 149.7555552 -206.79867815 148.39325066 -199.328125 146.515625 C-197 146 -197 146 -194 146 C-194.350625 144.783125 -194.70125 143.56625 -195.0625 142.3125 C-196.05234426 138.87715814 -196.36834473 136.36656243 -195 133 C-192.68885553 131.72434806 -190.64449354 130.82946435 -188.1875 129.9375 C-173.82198057 124.1762172 -160.73218026 115.71561563 -148.49194336 106.30175781 C-144.18485047 103 -144.18485047 103 -142 103 C-141.01 101.02 -141.01 101.02 -140 99 C-137.8125 98.5 -137.8125 98.5 -135 99 C-132.92030269 101.4374295 -131.48122719 104.16988894 -130 107 C-129.401875 108.11375 -128.80375 109.2275 -128.1875 110.375 C-127 113 -127 113 -127 115 C-99.78873743 100.60366069 -76.06840583 81.77473825 -53.35546875 61.13671875 C-51.76279904 59.69195867 -50.16093144 58.25728381 -48.55078125 56.83203125 C-39.47560233 48.78261824 -30.74265405 40.35375176 -23 31 C-22.56574707 30.47954102 -22.13149414 29.95908203 -21.68408203 29.42285156 C-15.11622063 21.51859604 -9.13478802 13.48155104 -3.7421875 4.73046875 C-2 2 -2 2 0 0 Z M-50 87 C-54.90890871 92.68082556 -58.3496359 97.30801018 -58 105 C-55.78223378 106.30514736 -55.78223378 106.30514736 -53 107 C-48.55943552 105.44580243 -46.31945899 102.25019935 -44.0078125 98.33203125 C-42.29722009 94.37379998 -41.88836069 90.29013919 -42 86 C-42.33 85.34 -42.66 84.68 -43 84 C-46.10810059 84 -47.47835933 85.16607951 -50 87 Z M-143.5859375 113.125 C-147.70520683 116.8154495 -152.0132702 119.95729762 -156.625 123 C-157.40335205 123.51618896 -158.1817041 124.03237793 -158.98364258 124.56420898 C-167.89349135 130.37442533 -177.21728266 134.85311227 -187 139 C-186.67 140.32 -186.34 141.64 -186 143 C-175.52699113 139.78731245 -165.85454272 135.81225952 -156.0625 130.9375 C-154.8018534 130.31880268 -153.54078593 129.70096217 -152.27929688 129.08398438 C-146.16940434 126.08990559 -140.08114468 123.05198876 -134 120 C-134.56302958 116.05879291 -135.6791945 113.2491277 -138 110 C-140.81208353 110 -141.54490824 111.23008813 -143.5859375 113.125 Z M-130 126 C-130.79277344 126.44988281 -131.58554688 126.89976562 -132.40234375 127.36328125 C-148.5198305 136.31770383 -165.65548457 143.75873302 -183 150 C-181.02289408 155.34206266 -179.01872984 160.67353086 -177 166 C-176.62536621 166.98967773 -176.25073242 167.97935547 -175.86474609 168.99902344 C-174.66799334 172.1483728 -173.46030994 175.29333858 -172.25 178.4375 C-171.66714233 179.97482788 -171.66714233 179.97482788 -171.07250977 181.54321289 C-170.70311279 182.49703857 -170.33371582 183.45086426 -169.953125 184.43359375 C-169.62473633 185.29009521 -169.29634766 186.14659668 -168.95800781 187.02905273 C-168.16376117 189.17184039 -168.16376117 189.17184039 -166 190 C-163.61004252 189.2760656 -163.61004252 189.2760656 -160.890625 188.078125 C-159.83601074 187.63484863 -158.78139648 187.19157227 -157.69482422 186.73486328 C-155.98963623 185.99985596 -155.98963623 185.99985596 -154.25 185.25 C-153.08871582 184.7535498 -151.92743164 184.25709961 -150.73095703 183.74560547 C-143.0109756 180.40487478 -135.40118453 176.88158398 -127.875 173.125 C-126.99489258 172.68575195 -126.11478516 172.24650391 -125.20800781 171.79394531 C-119.95824639 169.12344095 -114.9355165 166.21418426 -110 163 C-114.36523003 154.15979952 -118.80894295 145.36337318 -123.375 136.625 C-123.80345215 135.79895264 -124.2319043 134.97290527 -124.67333984 134.12182617 C-125.07762207 133.35201416 -125.4819043 132.58220215 -125.8984375 131.7890625 C-126.25599121 131.10537598 -126.61354492 130.42168945 -126.98193359 129.71728516 C-128.00512036 127.82977324 -128.00512036 127.82977324 -130 126 Z M-53 132 C-54.79460784 133.37111015 -56.58906112 134.74242172 -58.38330078 136.11401367 C-59.93463716 137.2996239 -61.48640335 138.48467193 -63.03857422 139.66918945 C-66.53802257 142.34186882 -70.03416659 145.01710243 -73.49609375 147.73828125 C-79.87299504 152.72993806 -86.36520018 157.36400751 -93.15283203 161.77807617 C-95.63425863 163.39468284 -97.8990675 164.8990675 -100 167 C-99.60167969 167.78503906 -99.20335937 168.57007813 -98.79296875 169.37890625 C-97.69880171 171.54860488 -96.61455363 173.72332735 -95.5390625 175.90234375 C-94.68705634 177.61716832 -93.82084872 179.32590286 -92.8984375 181.00390625 C-90.31250054 186.01869054 -90.83730439 190.66217015 -92 196 C-93.42265137 199.55662843 -94.80145737 202.79410853 -98 205 C-101.94675189 206.59933737 -104.80446327 207.44182879 -108.875 205.9375 C-112.25021308 202.86009983 -112.82636765 200.26503568 -113.4375 195.8125 C-112.68945408 189.29381413 -109.98566881 183.85329089 -105.1875 179.375 C-104.465625 178.92125 -103.74375 178.4675 -103 178 C-103.51032394 174.22360282 -104.20766929 172.55277419 -107 170 C-108.31484375 170.78310547 -108.31484375 170.78310547 -109.65625 171.58203125 C-126.95742839 181.69283711 -145.40455413 189.59719342 -164 197 C-162.72670954 203.0041698 -161.24575727 208.91107632 -159.5625 214.8125 C-157.58058705 221.84547221 -155.71332204 228.89598178 -154 236 C-111.94743367 226.74071934 -71.89797884 198.49521457 -40.375 170.125 C-39.59201538 169.4275769 -39.59201538 169.4275769 -38.79321289 168.71606445 C-36.36006586 166.48999376 -35.06194052 165.18582156 -34 162 C-35.20652712 159.3108997 -35.20652712 159.3108997 -37.04296875 156.4140625 C-37.70490234 155.31835938 -38.36683594 154.22265625 -39.04882812 153.09375 C-39.40017822 152.52398437 -39.75152832 151.95421875 -40.11352539 151.3671875 C-41.17560059 149.64430306 -42.22282708 147.91311987 -43.26757812 146.1796875 C-46.28855366 141.21561584 -49.28703184 136.48139827 -53 132 Z " fill="#B8D2E7" transform="translate(280,53)"/>
<path d="M0 0 C1.9375 0.8125 1.9375 0.8125 4 2 C5 5 5 5 3.98828125 7.35546875 C-11.01295684 32.70721144 -31.74082002 55.98750286 -55 74 C-56.05508418 74.87530161 -57.10697601 75.75446049 -58.15625 76.63671875 C-76.81459592 92.19636617 -97.63981261 104.55550943 -119 116 C-120.58095459 116.85319824 -120.58095459 116.85319824 -122.19384766 117.72363281 C-136.15956671 125.23593264 -150.23485869 132.19664254 -165 138 C-165.82806152 138.32726074 -166.65612305 138.65452148 -167.50927734 138.99169922 C-184.93666769 145.76882877 -203.16435226 150.51779988 -222 149 C-222.66 148.67 -223.32 148.34 -224 148 C-223.125 143.125 -223.125 143.125 -222 142 C-220.64289972 141.75068706 -219.27558227 141.5564457 -217.90625 141.38671875 C-217.04966797 141.27561768 -216.19308594 141.1645166 -215.31054688 141.05004883 C-214.38306641 140.93040771 -213.45558594 140.8107666 -212.5 140.6875 C-159.76518013 133.39144691 -107.27728221 103.89530536 -66 71 C-65.04222656 70.236875 -64.08445313 69.47375 -63.09765625 68.6875 C-57.57822785 64.22860693 -52.27667028 59.59636702 -47.09375 54.75 C-45 53 -45 53 -42 52 C-42 51.34 -42 50.68 -42 50 C-41.34 50 -40.68 50 -40 50 C-40 49.34 -40 48.68 -40 48 C-38.59268629 46.83295936 -37.18220222 45.66957434 -35.7578125 44.5234375 C-32.47544101 41.67871554 -29.800556 38.30778579 -27 35 C-26.19691406 34.09636719 -25.39382812 33.19273438 -24.56640625 32.26171875 C-18.19347345 25.02579689 -12.66668514 17.38894505 -7.32763672 9.36010742 C-6.8070166 8.57869385 -6.28639648 7.79728027 -5.75 6.9921875 C-5.29109375 6.29464355 -4.8321875 5.59709961 -4.359375 4.87841797 C-3.03985686 3.0550752 -1.63599255 1.54035916 0 0 Z " fill="#B7D2E7" transform="translate(258,25)"/>
<path d="M0 0 C0.99 0 1.98 0 3 0 C3 2.31 3 4.62 3 7 C0 5 0 5 -0.75 2.9375 C-0.8325 2.298125 -0.915 1.65875 -1 1 C-0.67 0.67 -0.34 0.34 0 0 Z " fill="#AFDBFF" transform="translate(43,260)"/>
<path d="" fill="#00FFFF" transform="translate(0,0)"/>
</svg>
