<?xml version="1.0" encoding="UTF-8"?>
<svg version="1.1" xmlns="http://www.w3.org/2000/svg" width="350" height="350">
<path d="M0 0 C1.47422361 0.00086861 1.47422361 0.00086861 2.97822952 0.00175476 C26.11529616 0.02821961 49.22438429 0.74429481 72.34539795 1.54693604 C77.77174363 1.73358423 83.19838449 1.9112449 88.625 2.08984375 C99.13310522 2.43691785 109.64087013 2.79327952 120.1484375 3.15625 C120.1484375 4.14625 120.1484375 5.13625 120.1484375 6.15625 C122.1284375 6.65125 122.1284375 6.65125 124.1484375 7.15625 C124.1484375 9.79625 124.1484375 12.43625 124.1484375 15.15625 C124.8084375 15.15625 125.4684375 15.15625 126.1484375 15.15625 C126.60768862 17.28105184 127.06578338 19.40610362 127.5234375 21.53125 C127.77867187 22.71460937 128.03390625 23.89796875 128.296875 25.1171875 C128.49966064 26.08615967 128.49966064 26.08615967 128.70654297 27.07470703 C129.01030593 28.50558164 129.32782223 29.93358383 129.65673828 31.35888672 C131.27347114 38.7028693 131.81032387 46.03623418 132.2734375 53.53125 C132.33647568 54.51936172 132.33647568 54.51936172 132.40078735 55.5274353 C133.1112105 66.74845614 133.49026815 77.91605401 133.1484375 89.15625 C133.12910156 89.85363281 133.10976563 90.55101562 133.08984375 91.26953125 C132.79557137 100.46121553 131.81462934 109.53664386 130.6484375 118.65625 C130.51783936 119.67887939 130.38724121 120.70150879 130.25268555 121.75512695 C130.12547119 122.70218506 129.99825684 123.64924316 129.8671875 124.625 C129.75310547 125.47513672 129.63902344 126.32527344 129.52148438 127.20117188 C129.1484375 129.15625 129.1484375 129.15625 128.1484375 130.15625 C127.68049631 132.7999687 127.24989228 135.4415807 126.8359375 138.09375 C125.72654788 144.8528746 124.15118003 150.95261441 121.1484375 157.15625 C120.4884375 157.15625 119.8284375 157.15625 119.1484375 157.15625 C119.1484375 158.14625 119.1484375 159.13625 119.1484375 160.15625 C118.4884375 160.48625 117.8284375 160.81625 117.1484375 161.15625 C116.49630458 163.18088255 116.49630458 163.18088255 116.1484375 165.15625 C103.16923699 166.34281545 90.30647122 166.03168655 77.30444336 165.56274414 C75.88525923 165.51173317 74.46606984 165.46086848 73.046875 165.41015625 C72.35898392 165.38550797 71.67109283 165.36085968 70.96235657 165.33546448 C64.68425248 165.1205435 58.41514862 165.08391189 52.13476562 165.19360352 C49.15285524 165.23273919 47.01174299 165.11068516 44.1484375 164.15625 C44.7671875 164.73375 45.3859375 165.31125 46.0234375 165.90625 C48.1484375 168.15625 48.1484375 168.15625 49.2109375 170.34375 C50.0679269 172.51683256 50.0679269 172.51683256 53.1484375 173.15625 C53.4784375 173.81625 53.8084375 174.47625 54.1484375 175.15625 C55.2003125 174.99125 56.2521875 174.82625 57.3359375 174.65625 C70.18144592 173.18180903 80.96717749 175.23043846 93.29174805 178.69726562 C95.15326662 179.23624393 95.15326662 179.23624393 97.1484375 179.15625 C97.1484375 179.81625 97.1484375 180.47625 97.1484375 181.15625 C97.77492187 181.28902344 98.40140625 181.42179688 99.046875 181.55859375 C99.86414063 181.73519531 100.68140625 181.91179687 101.5234375 182.09375 C102.33554688 182.26777344 103.14765625 182.44179687 103.984375 182.62109375 C106.1484375 183.15625 106.1484375 183.15625 108.1484375 184.15625 C108.1484375 184.81625 108.1484375 185.47625 108.1484375 186.15625 C109.01984375 186.24519531 109.89125 186.33414063 110.7890625 186.42578125 C114.59119395 187.25252379 116.76064099 188.56841413 119.8984375 190.84375 C120.84203125 191.50761719 121.785625 192.17148438 122.7578125 192.85546875 C125.50541845 195.499815 126.0454786 197.57163358 127.1484375 201.15625 C128.1384375 201.48625 129.1284375 201.81625 130.1484375 202.15625 C131.2025893 205.31870541 131.46119422 208.02573218 131.7109375 211.34375 C131.79472656 212.43042969 131.87851562 213.51710938 131.96484375 214.63671875 C132.02542969 215.46816406 132.08601562 216.29960937 132.1484375 217.15625 C133.1384375 217.48625 134.1284375 217.81625 135.1484375 218.15625 C135.4784375 219.14625 135.8084375 220.13625 136.1484375 221.15625 C136.7671875 221.754375 137.3859375 222.3525 138.0234375 222.96875 C144.13484679 229.25990662 144.32007948 236.89315647 144.2734375 245.21875 C144.27730469 245.91291016 144.28117188 246.60707031 144.28515625 247.32226562 C144.27805783 251.05958371 144.04072653 254.52335894 143.1484375 258.15625 C142.4884375 258.15625 141.8284375 258.15625 141.1484375 258.15625 C140.8184375 259.47625 140.4884375 260.79625 140.1484375 262.15625 C139.4884375 262.15625 138.8284375 262.15625 138.1484375 262.15625 C137.8184375 263.14625 137.4884375 264.13625 137.1484375 265.15625 C128.91417669 269.35410845 118.68712331 271.04794527 109.6640625 268.4375 C106.25444239 266.89446024 104.53684612 265.93306724 102.8359375 262.53125 C102.6090625 261.7475 102.3821875 260.96375 102.1484375 260.15625 C101.1584375 259.49625 100.1684375 258.83625 99.1484375 258.15625 C95.89168219 248.08991542 99.06683118 235.24318525 103.7265625 226.0390625 C107.14660632 220.84737435 110.40923873 217.58437256 116.1484375 215.15625 C117.1384375 215.15625 118.1284375 215.15625 119.1484375 215.15625 C118.41291136 209.68217488 118.41291136 209.68217488 115.1484375 205.71875 C114.4884375 205.533125 113.8284375 205.3475 113.1484375 205.15625 C112.4884375 204.82625 111.8284375 204.49625 111.1484375 204.15625 C111.1484375 203.49625 111.1484375 202.83625 111.1484375 202.15625 C110.3853125 201.888125 109.6221875 201.62 108.8359375 201.34375 C106.21811216 200.18703648 105.04140253 199.22130276 103.1484375 197.15625 C100.2307875 195.21115 98.52306465 194.70348683 95.1484375 194.15625 C95.1484375 193.49625 95.1484375 192.83625 95.1484375 192.15625 C94.5915625 192.04667969 94.0346875 191.93710938 93.4609375 191.82421875 C89.60272923 191.02259778 86.12734106 190.1476684 82.4609375 188.65625 C76.64475346 186.32266903 70.32678821 185.893834 64.1484375 185.15625 C64.4784375 186.14625 64.8084375 187.13625 65.1484375 188.15625 C65.8084375 188.15625 66.4684375 188.15625 67.1484375 188.15625 C68.0207787 191.15105917 68.25673516 193.79200911 68.2109375 196.90625 C68.20191406 197.70546875 68.19289062 198.5046875 68.18359375 199.328125 C68.16619141 200.23304688 68.16619141 200.23304688 68.1484375 201.15625 C65.08173767 202.09823971 62.78480414 202.14389822 59.6171875 201.71875 C53.93759604 201.0720228 48.35803694 201.08845496 42.6484375 201.15625 C26.46840497 201.24943529 10.31598939 200.72756459 -5.8515625 200.15625 C-7.69355225 200.09219971 -7.69355225 200.09219971 -9.57275391 200.02685547 C-12.83268038 199.91041321 -16.09213796 199.78591448 -19.3515625 199.65625 C-20.3005542 199.62088135 -21.2495459 199.5855127 -22.22729492 199.54907227 C-23.08299072 199.51225342 -23.93868652 199.47543457 -24.8203125 199.4375 C-25.55701172 199.40720703 -26.29371094 199.37691406 -27.05273438 199.34570312 C-28.8515625 199.15625 -28.8515625 199.15625 -30.8515625 198.15625 C-31.00342174 193.97062978 -30.96536226 190.47563429 -28.1796875 187.17578125 C-26.83641002 186.03197542 -25.46223452 184.92309374 -24.0546875 183.859375 C-21.4199777 181.82261353 -19.18863105 179.52825231 -16.8515625 177.15625 C-14.85265781 175.23641697 -12.82407758 173.35017904 -10.7890625 171.46875 C-10.27279297 170.98341797 -9.75652344 170.49808594 -9.22460938 169.99804688 C-6.56221689 167.53914936 -4.12659605 165.68079676 -0.8515625 164.15625 C-23.88541494 162.50800021 -46.76096694 161.88211508 -69.8515625 162.15625 C-69.96113281 161.51816406 -70.07070312 160.88007813 -70.18359375 160.22265625 C-70.42142578 158.98322266 -70.42142578 158.98322266 -70.6640625 157.71875 C-70.81488281 156.89503906 -70.96570313 156.07132813 -71.12109375 155.22265625 C-71.36214844 154.54074219 -71.60320312 153.85882813 -71.8515625 153.15625 C-72.8415625 152.82625 -73.8315625 152.49625 -74.8515625 152.15625 C-74.81901042 150.10546875 -74.78645833 148.0546875 -74.75390625 146.00390625 C-74.64595066 144.13892859 -74.64595066 144.13892859 -75.8515625 143.15625 C-76.12138268 140.52400425 -76.32665589 137.92100741 -76.4765625 135.28125 C-76.52159912 134.51127686 -76.56663574 133.74130371 -76.61303711 132.94799805 C-76.87730472 127.69396244 -76.7313622 122.63732186 -76.109375 117.40625 C-75.79329534 114.64773658 -75.77660319 111.92974463 -75.8515625 109.15625 C-75.1915625 109.15625 -74.5315625 109.15625 -73.8515625 109.15625 C-73.8515625 108.16625 -73.8515625 107.17625 -73.8515625 106.15625 C-74.5115625 105.82625 -75.1715625 105.49625 -75.8515625 105.15625 C-75.92607596 101.5796037 -75.87178261 98.30077403 -75.375 94.75 C-74.59316752 88.74419934 -74.56868971 82.70402318 -74.4140625 76.65625 C-74.09785691 66.07289482 -73.67121545 55.50262388 -73.0385437 44.93310547 C-72.9564671 43.55549032 -72.87692061 42.17772177 -72.80007935 40.79980469 C-72.42147403 34.07562618 -71.93168119 27.62003595 -70.28637695 21.08081055 C-69.38280952 17.08147192 -69.44097794 12.96109507 -69.29296875 8.87890625 C-69.14730469 7.98042969 -69.00164062 7.08195312 -68.8515625 6.15625 C-65.49091172 3.91581615 -63.74696072 3.73357053 -59.77734375 3.33984375 C-58.55080078 3.21544922 -57.32425781 3.09105469 -56.06054688 2.96289062 C-54.13178711 2.78016602 -54.13178711 2.78016602 -52.1640625 2.59375 C-50.31071289 2.40522461 -50.31071289 2.40522461 -48.41992188 2.21289062 C-32.25641131 0.61246008 -16.23525454 -0.02996562 0 0 Z " fill="#FEFEFE" transform="translate(137.8515625,51.84375)"/>
<path d="M0 0 C1.47422361 0.00086861 1.47422361 0.00086861 2.97822952 0.00175476 C26.11529616 0.02821961 49.22438429 0.74429481 72.34539795 1.54693604 C77.77174363 1.73358423 83.19838449 1.9112449 88.625 2.08984375 C99.13310522 2.43691785 109.64087013 2.79327952 120.1484375 3.15625 C120.1484375 4.14625 120.1484375 5.13625 120.1484375 6.15625 C122.1284375 6.65125 122.1284375 6.65125 124.1484375 7.15625 C124.1484375 9.79625 124.1484375 12.43625 124.1484375 15.15625 C124.8084375 15.15625 125.4684375 15.15625 126.1484375 15.15625 C126.60768862 17.28105184 127.06578338 19.40610362 127.5234375 21.53125 C127.77867187 22.71460937 128.03390625 23.89796875 128.296875 25.1171875 C128.49966064 26.08615967 128.49966064 26.08615967 128.70654297 27.07470703 C129.01030593 28.50558164 129.32782223 29.93358383 129.65673828 31.35888672 C131.27347114 38.7028693 131.81032387 46.03623418 132.2734375 53.53125 C132.33647568 54.51936172 132.33647568 54.51936172 132.40078735 55.5274353 C133.1112105 66.74845614 133.49026815 77.91605401 133.1484375 89.15625 C133.12910156 89.85363281 133.10976563 90.55101562 133.08984375 91.26953125 C132.79557137 100.46121553 131.81462934 109.53664386 130.6484375 118.65625 C130.51783936 119.67887939 130.38724121 120.70150879 130.25268555 121.75512695 C130.12547119 122.70218506 129.99825684 123.64924316 129.8671875 124.625 C129.75310547 125.47513672 129.63902344 126.32527344 129.52148438 127.20117188 C129.1484375 129.15625 129.1484375 129.15625 128.1484375 130.15625 C127.68049631 132.7999687 127.24989228 135.4415807 126.8359375 138.09375 C125.72654788 144.8528746 124.15118003 150.95261441 121.1484375 157.15625 C120.4884375 157.15625 119.8284375 157.15625 119.1484375 157.15625 C119.1484375 158.14625 119.1484375 159.13625 119.1484375 160.15625 C118.4884375 160.48625 117.8284375 160.81625 117.1484375 161.15625 C116.49630458 163.18088255 116.49630458 163.18088255 116.1484375 165.15625 C103.16923699 166.34281545 90.30647122 166.03168655 77.30444336 165.56274414 C75.88525923 165.51173317 74.46606984 165.46086848 73.046875 165.41015625 C72.35898392 165.38550797 71.67109283 165.36085968 70.96235657 165.33546448 C64.68425248 165.1205435 58.41514862 165.08391189 52.13476562 165.19360352 C49.15285524 165.23273919 47.01174299 165.11068516 44.1484375 164.15625 C44.7671875 164.73375 45.3859375 165.31125 46.0234375 165.90625 C48.1484375 168.15625 48.1484375 168.15625 49.2109375 170.34375 C50.0679269 172.51683256 50.0679269 172.51683256 53.1484375 173.15625 C53.4784375 173.81625 53.8084375 174.47625 54.1484375 175.15625 C55.2003125 174.99125 56.2521875 174.82625 57.3359375 174.65625 C70.18144592 173.18180903 80.96717749 175.23043846 93.29174805 178.69726562 C95.15326662 179.23624393 95.15326662 179.23624393 97.1484375 179.15625 C97.1484375 179.81625 97.1484375 180.47625 97.1484375 181.15625 C97.77492187 181.28902344 98.40140625 181.42179688 99.046875 181.55859375 C99.86414063 181.73519531 100.68140625 181.91179687 101.5234375 182.09375 C102.33554688 182.26777344 103.14765625 182.44179687 103.984375 182.62109375 C106.1484375 183.15625 106.1484375 183.15625 108.1484375 184.15625 C108.1484375 184.81625 108.1484375 185.47625 108.1484375 186.15625 C109.01984375 186.24519531 109.89125 186.33414063 110.7890625 186.42578125 C114.59119395 187.25252379 116.76064099 188.56841413 119.8984375 190.84375 C120.84203125 191.50761719 121.785625 192.17148438 122.7578125 192.85546875 C125.50541845 195.499815 126.0454786 197.57163358 127.1484375 201.15625 C128.1384375 201.48625 129.1284375 201.81625 130.1484375 202.15625 C131.2025893 205.31870541 131.46119422 208.02573218 131.7109375 211.34375 C131.79472656 212.43042969 131.87851562 213.51710938 131.96484375 214.63671875 C132.02542969 215.46816406 132.08601562 216.29960937 132.1484375 217.15625 C133.1384375 217.48625 134.1284375 217.81625 135.1484375 218.15625 C135.4784375 219.14625 135.8084375 220.13625 136.1484375 221.15625 C136.7671875 221.754375 137.3859375 222.3525 138.0234375 222.96875 C144.13484679 229.25990662 144.32007948 236.89315647 144.2734375 245.21875 C144.27730469 245.91291016 144.28117188 246.60707031 144.28515625 247.32226562 C144.27805783 251.05958371 144.04072653 254.52335894 143.1484375 258.15625 C142.4884375 258.15625 141.8284375 258.15625 141.1484375 258.15625 C140.8184375 259.47625 140.4884375 260.79625 140.1484375 262.15625 C139.4884375 262.15625 138.8284375 262.15625 138.1484375 262.15625 C137.8184375 263.14625 137.4884375 264.13625 137.1484375 265.15625 C128.91417669 269.35410845 118.68712331 271.04794527 109.6640625 268.4375 C106.25444239 266.89446024 104.53684612 265.93306724 102.8359375 262.53125 C102.6090625 261.7475 102.3821875 260.96375 102.1484375 260.15625 C101.1584375 259.49625 100.1684375 258.83625 99.1484375 258.15625 C95.89168219 248.08991542 99.06683118 235.24318525 103.7265625 226.0390625 C107.14660632 220.84737435 110.40923873 217.58437256 116.1484375 215.15625 C117.1384375 215.15625 118.1284375 215.15625 119.1484375 215.15625 C118.41291136 209.68217488 118.41291136 209.68217488 115.1484375 205.71875 C114.4884375 205.533125 113.8284375 205.3475 113.1484375 205.15625 C112.4884375 204.82625 111.8284375 204.49625 111.1484375 204.15625 C111.1484375 203.49625 111.1484375 202.83625 111.1484375 202.15625 C110.3853125 201.888125 109.6221875 201.62 108.8359375 201.34375 C106.21811216 200.18703648 105.04140253 199.22130276 103.1484375 197.15625 C100.2307875 195.21115 98.52306465 194.70348683 95.1484375 194.15625 C95.1484375 193.49625 95.1484375 192.83625 95.1484375 192.15625 C94.5915625 192.04667969 94.0346875 191.93710938 93.4609375 191.82421875 C89.60272923 191.02259778 86.12734106 190.1476684 82.4609375 188.65625 C76.64475346 186.32266903 70.32678821 185.893834 64.1484375 185.15625 C64.4784375 186.14625 64.8084375 187.13625 65.1484375 188.15625 C65.8084375 188.15625 66.4684375 188.15625 67.1484375 188.15625 C68.0207787 191.15105917 68.25673516 193.79200911 68.2109375 196.90625 C68.20191406 197.70546875 68.19289062 198.5046875 68.18359375 199.328125 C68.16619141 200.23304688 68.16619141 200.23304688 68.1484375 201.15625 C65.08173767 202.09823971 62.78480414 202.14389822 59.6171875 201.71875 C53.93759604 201.0720228 48.35803694 201.08845496 42.6484375 201.15625 C26.46840497 201.24943529 10.31598939 200.72756459 -5.8515625 200.15625 C-7.69355225 200.09219971 -7.69355225 200.09219971 -9.57275391 200.02685547 C-12.83268038 199.91041321 -16.09213796 199.78591448 -19.3515625 199.65625 C-20.3005542 199.62088135 -21.2495459 199.5855127 -22.22729492 199.54907227 C-23.08299072 199.51225342 -23.93868652 199.47543457 -24.8203125 199.4375 C-25.55701172 199.40720703 -26.29371094 199.37691406 -27.05273438 199.34570312 C-28.8515625 199.15625 -28.8515625 199.15625 -30.8515625 198.15625 C-31.00342174 193.97062978 -30.96536226 190.47563429 -28.1796875 187.17578125 C-26.83641002 186.03197542 -25.46223452 184.92309374 -24.0546875 183.859375 C-21.4199777 181.82261353 -19.18863105 179.52825231 -16.8515625 177.15625 C-14.85265781 175.23641697 -12.82407758 173.35017904 -10.7890625 171.46875 C-10.27279297 170.98341797 -9.75652344 170.49808594 -9.22460938 169.99804688 C-6.56221689 167.53914936 -4.12659605 165.68079676 -0.8515625 164.15625 C-23.88541494 162.50800021 -46.76096694 161.88211508 -69.8515625 162.15625 C-69.96113281 161.51816406 -70.07070312 160.88007813 -70.18359375 160.22265625 C-70.42142578 158.98322266 -70.42142578 158.98322266 -70.6640625 157.71875 C-70.81488281 156.89503906 -70.96570313 156.07132813 -71.12109375 155.22265625 C-71.36214844 154.54074219 -71.60320312 153.85882813 -71.8515625 153.15625 C-72.8415625 152.82625 -73.8315625 152.49625 -74.8515625 152.15625 C-74.81901042 150.10546875 -74.78645833 148.0546875 -74.75390625 146.00390625 C-74.64595066 144.13892859 -74.64595066 144.13892859 -75.8515625 143.15625 C-76.12138268 140.52400425 -76.32665589 137.92100741 -76.4765625 135.28125 C-76.52159912 134.51127686 -76.56663574 133.74130371 -76.61303711 132.94799805 C-76.87730472 127.69396244 -76.7313622 122.63732186 -76.109375 117.40625 C-75.79329534 114.64773658 -75.77660319 111.92974463 -75.8515625 109.15625 C-75.1915625 109.15625 -74.5315625 109.15625 -73.8515625 109.15625 C-73.8515625 108.16625 -73.8515625 107.17625 -73.8515625 106.15625 C-74.5115625 105.82625 -75.1715625 105.49625 -75.8515625 105.15625 C-75.92607596 101.5796037 -75.87178261 98.30077403 -75.375 94.75 C-74.59316752 88.74419934 -74.56868971 82.70402318 -74.4140625 76.65625 C-74.09785691 66.07289482 -73.67121545 55.50262388 -73.0385437 44.93310547 C-72.9564671 43.55549032 -72.87692061 42.17772177 -72.80007935 40.79980469 C-72.42147403 34.07562618 -71.93168119 27.62003595 -70.28637695 21.08081055 C-69.38280952 17.08147192 -69.44097794 12.96109507 -69.29296875 8.87890625 C-69.14730469 7.98042969 -69.00164062 7.08195312 -68.8515625 6.15625 C-65.49091172 3.91581615 -63.74696072 3.73357053 -59.77734375 3.33984375 C-58.55080078 3.21544922 -57.32425781 3.09105469 -56.06054688 2.96289062 C-54.13178711 2.78016602 -54.13178711 2.78016602 -52.1640625 2.59375 C-50.31071289 2.40522461 -50.31071289 2.40522461 -48.41992188 2.21289062 C-32.25641131 0.61246008 -16.23525454 -0.02996562 0 0 Z M-58.8515625 11.15625 C-61.40952794 15.76369393 -61.2755248 20.62271415 -61.44921875 25.7578125 C-61.48818268 26.69874756 -61.52714661 27.63968262 -61.56729126 28.60913086 C-61.69171892 31.66622711 -61.8033232 34.72362974 -61.9140625 37.78125 C-61.99586118 39.89113817 -62.07830174 42.00100155 -62.16137695 44.11083984 C-62.32378895 48.26254542 -62.48129862 52.41439724 -62.63574219 56.56640625 C-62.80755984 61.11890523 -63.01022095 65.66854271 -63.234375 70.21875 C-63.80421641 82.14680088 -63.80246595 93.91521539 -63.26074219 105.84521484 C-62.79877457 116.53454947 -62.76498424 127.20839208 -62.7890625 137.90625 C-62.7909256 138.76795807 -62.7927887 139.62966614 -62.79470825 140.51748657 C-62.80679594 145.39711692 -62.82612357 150.2766718 -62.8515625 155.15625 C-61.61929932 155.15101318 -60.38703613 155.14577637 -59.11743164 155.14038086 C-17.82534244 154.98032909 -17.82534244 154.98032909 -2.6015625 155.59375 C-1.59359619 155.63298584 -0.58562988 155.67222168 0.45288086 155.71264648 C7.01258791 156.02040041 7.01258791 156.02040041 8.1484375 157.15625 C10.50968201 157.31122264 12.84469957 157.40272254 15.20898438 157.45336914 C16.3193959 157.48284889 16.3193959 157.48284889 17.45223999 157.51292419 C19.92379282 157.57723756 22.39545518 157.63444026 24.8671875 157.69140625 C26.59949569 157.73448165 28.33179542 157.77789835 30.06408691 157.82164001 C33.71941527 157.91288069 37.37480453 158.00076148 41.03027344 158.08618164 C45.63941516 158.1940288 50.24835268 158.30871517 54.85726929 158.42574501 C74.28989984 158.91705494 93.70804803 159.33299729 113.1484375 159.15625 C113.74367562 155.13787775 114.27347666 151.28379541 114.2109375 147.21875 C114.20191406 146.44660156 114.19289062 145.67445313 114.18359375 144.87890625 C114.17199219 144.31042969 114.16039062 143.74195313 114.1484375 143.15625 C114.8084375 143.15625 115.4684375 143.15625 116.1484375 143.15625 C116.28121094 142.15722656 116.41398438 141.15820312 116.55078125 140.12890625 C116.72738281 138.83855469 116.90398437 137.54820312 117.0859375 136.21875 C117.25996094 134.93097656 117.43398437 133.64320313 117.61328125 132.31640625 C118.1484375 129.15625 118.1484375 129.15625 119.1484375 128.15625 C122.341041 112.2301218 123.82062704 95.95595962 124.1015625 79.73486328 C124.14526243 77.33091179 124.22181246 74.93020193 124.3046875 72.52734375 C125.63638563 40.81386882 125.63638563 40.81386882 117.0316925 11.51567078 C114.16209057 9.44425905 111.68095767 9.71115358 108.17260742 9.63208008 C107.46099236 9.61214335 106.74937731 9.59220663 106.01619816 9.57166576 C103.6372152 9.50882259 101.25835215 9.46716663 98.87890625 9.42578125 C97.19054562 9.38620528 95.50221133 9.34549109 93.81390381 9.30371094 C89.26544145 9.19545511 84.7167931 9.10664143 80.16782761 9.02252579 C77.34120294 8.96884999 74.51474075 8.90986199 71.68826294 8.84896851 C46.82225458 8.31394206 21.9578438 7.97399163 -2.9140625 7.96875 C-4.17328522 7.96775299 -5.43250793 7.96675598 -6.72988892 7.96572876 C-33.29087457 6.39548788 -33.29087457 6.39548788 -58.8515625 11.15625 Z " fill="#BAD4E8" transform="translate(137.8515625,51.84375)"/>
<path d="M0 0 C1.38523013 0.014138 2.77047575 0.02681704 4.1557312 0.03820801 C7.29143666 0.06670492 10.42685373 0.10482964 13.56237793 0.14892578 C19.38159303 0.22889432 25.2009477 0.27709652 31.02050781 0.32421875 C43.50533678 0.4280411 55.989897 0.55325382 68.4744873 0.68231201 C77.84085135 0.77890416 87.20723994 0.87304904 96.5736351 0.96656799 C99.80276988 0.99911451 103.03189342 1.03263273 106.26101685 1.06628418 C116.46876342 1.17068119 126.67440843 1.25357729 136.8828125 1.21875 C139.45700813 13.10908218 140.21234745 24.83509353 140.2578125 36.96875 C140.26530518 37.67056396 140.27279785 38.37237793 140.28051758 39.09545898 C140.29835716 41.13178739 140.29365174 43.16677813 140.28125 45.203125 C140.27786621 46.38616211 140.27448242 47.56919922 140.27099609 48.78808594 C139.67698731 54.03777864 138.08420574 58.83222544 133.8828125 62.21875 C126.1196385 64.72795972 117.74126528 64.49897534 109.67578125 64.44921875 C107.81304314 64.44853142 107.81304314 64.44853142 105.91267395 64.4478302 C103.29309123 64.44482342 100.67351006 64.43698468 98.05395508 64.42456055 C94.11988708 64.40647787 90.1860581 64.40405021 86.25195312 64.40429688 C72.92494636 64.38505908 59.64394597 64.15498371 46.3359375 63.4309082 C41.55792689 63.1785392 36.81116728 63.16918386 32.02734375 63.28125 C29.8828125 63.21875 29.8828125 63.21875 26.8828125 62.21875 C25.18232273 62.01581162 23.47672079 61.85422443 21.76953125 61.71875 C20.76857422 61.63625 19.76761719 61.55375 18.73632812 61.46875 C17.69154297 61.38625 16.64675781 61.30375 15.5703125 61.21875 C3.346577 60.24268129 3.346577 60.24268129 -2.1171875 59.21875 C-8.0755954 58.29734672 -13.15240001 58.3666375 -19.1171875 59.21875 C-20.1171875 58.21875 -20.1171875 58.21875 -20.23744202 56.01048279 C-20.23522141 55.03563431 -20.23300079 54.06078583 -20.23071289 53.05639648 C-20.23063736 51.95533066 -20.23056183 50.85426483 -20.23048401 49.71983337 C-20.22532272 48.5219368 -20.22016144 47.32404022 -20.21484375 46.08984375 C-20.2134288 44.87047623 -20.21201385 43.6511087 -20.21055603 42.39479065 C-20.20493717 38.4819193 -20.19238146 34.56910419 -20.1796875 30.65625 C-20.17467493 28.01106853 -20.1701116 25.36588617 -20.16601562 22.72070312 C-20.15496161 16.22003274 -20.13820514 9.71939539 -20.1171875 3.21875 C-13.50710815 -0.44695988 -7.42904058 -0.13664618 0 0 Z " fill="#BFD6E9" transform="translate(83.1171875,263.78125)"/>
<path d="M0 0 C1.93536118 0.00040787 1.93536118 0.00040787 3.90982056 0.00082397 C28.42018103 0.01724078 52.923935 0.41318047 77.42811966 0.94109726 C80.25164873 1.00003441 83.07523445 1.05365272 85.89889526 1.10586548 C90.36234719 1.18931313 94.82521501 1.287874 99.28807831 1.39831543 C100.9458417 1.43717419 102.60372786 1.47113267 104.26169586 1.49996948 C106.53726531 1.54067794 108.81164573 1.59959263 111.08666992 1.66333008 C113.00789925 1.706632 113.00789925 1.706632 114.96794128 1.75080872 C118.0625 2.1875 118.0625 2.1875 119.95623779 3.58883667 C121.36952475 5.63118253 121.73872452 7.29143933 122.16015625 9.73828125 C122.3209668 10.65295166 122.48177734 11.56762207 122.64746094 12.51000977 C122.88384277 13.99005493 122.88384277 13.99005493 123.125 15.5 C123.29418945 16.52601318 123.46337891 17.55202637 123.63769531 18.60913086 C126.47717922 36.46806217 127.48866383 54.12083806 127.0625 72.1875 C127.04848145 72.99832031 127.03446289 73.80914062 127.02001953 74.64453125 C126.6745623 92.05272634 125.203887 110.5055748 120.0625 127.1875 C119.81194479 128.66010276 119.59387457 130.13944159 119.4375 131.625 C119.251875 133.3884375 119.251875 133.3884375 119.0625 135.1875 C118.4025 135.1875 117.7425 135.1875 117.0625 135.1875 C117.07410156 135.75597656 117.08570313 136.32445312 117.09765625 136.91015625 C117.10667969 137.68230469 117.11570313 138.45445312 117.125 139.25 C117.14240234 140.38115234 117.14240234 140.38115234 117.16015625 141.53515625 C117.0400374 144.79758414 116.54058047 147.96004329 116.0625 151.1875 C95.71519662 151.37249273 75.39073315 150.90438772 55.05175781 150.38793945 C50.41510869 150.27039206 45.77831326 150.1602876 41.14144135 150.05193424 C37.54703184 149.96693292 33.95274308 149.87749924 30.35847473 149.78674126 C28.64561182 149.74414938 26.93270984 149.70309995 25.21977234 149.6636219 C22.85405342 149.60857266 20.48857088 149.54742024 18.12304688 149.48461914 C17.41785919 149.46951294 16.71267151 149.45440674 15.9861145 149.43884277 C11.1767053 149.3017053 11.1767053 149.3017053 10.0625 148.1875 C6.80607134 147.92890125 3.57545448 147.75201294 0.3125 147.625 C-0.74122803 147.5825415 -1.79495605 147.54008301 -2.88061523 147.49633789 C-21.88616379 146.84441177 -40.92399907 147.10669728 -59.9375 147.1875 C-59.93226318 145.88941406 -59.92702637 144.59132812 -59.92163086 143.25390625 C-59.90315507 138.31104253 -59.89191714 133.36818165 -59.88256836 128.42529297 C-59.87762321 126.30972781 -59.87086566 124.1941659 -59.86206055 122.07861328 C-59.81630409 110.77945943 -59.91971871 99.53183634 -60.49609375 88.24609375 C-61.11828105 75.54243528 -60.64811586 62.946872 -60.0625 50.25 C-59.96916671 48.04626128 -59.87671705 45.84248495 -59.78515625 43.63867188 C-59.56537116 38.42902511 -59.32537174 33.22064622 -59.0723877 28.01251221 C-58.94511583 25.34700175 -58.82881115 22.68120168 -58.71386719 20.01513672 C-58.64066258 18.48792257 -58.56681802 16.96073889 -58.4921875 15.43359375 C-58.43272949 14.13993896 -58.37327148 12.84628418 -58.31201172 11.51342773 C-57.95476971 8.34086715 -57.40070188 6.01445329 -55.9375 3.1875 C-40.95573118 -3.58996685 -16.01305259 -0.01267858 0 0 Z M-47.9375 18.1875 C-47.93305878 18.90713425 -47.92861755 19.62676849 -47.92404175 20.36820984 C-47.87009886 29.5371051 -47.83386628 38.70597638 -47.8125 47.875 C-47.81078796 48.60582794 -47.80907593 49.33665588 -47.80731201 50.08963013 C-47.76466515 70.70313054 -48.05933422 91.21003205 -49.5 111.78125 C-49.86677752 117.22469417 -50.04243492 122.64000156 -50.0625 128.09375 C-50.06709229 128.7889978 -50.07168457 129.48424561 -50.07641602 130.20056152 C-50.34400562 133.47498884 -50.34400562 133.47498884 -48.9375 136.1875 C-47.25570938 136.29367598 -45.56946809 136.32991749 -43.88435364 136.33898926 C-42.78939575 136.34733292 -41.69443787 136.35567657 -40.56629944 136.36427307 C-39.35437424 136.36845749 -38.14244904 136.37264191 -36.89379883 136.37695312 C-34.94698344 136.38968393 -33.00016805 136.40241493 -31.05335271 136.4151535 C-28.9537391 136.4279246 -26.8541259 136.43823417 -24.75449562 136.44786072 C-20.37988587 136.46804953 -16.00534326 136.49570946 -11.63078308 136.52453613 C-2.33722024 136.58470851 6.95638326 136.63645392 16.25 136.6875 C26.26513562 136.74258354 36.28025077 136.79919515 46.29532224 136.86504889 C50.64150776 136.89334613 54.9876858 136.91696227 59.33391702 136.93697357 C61.39001548 136.94716304 63.44608667 136.95954974 65.50216675 136.97291565 C68.00597562 136.98917646 70.50981011 137.00200909 73.01365662 137.01072693 C74.12271362 137.01907059 75.23177063 137.02741425 76.37443542 137.03601074 C77.3336449 137.04116447 78.29285437 137.04631821 79.28113079 137.05162811 C82.2712119 137.19769573 85.11799483 137.66006035 88.0625 138.1875 C89.48396561 138.27013428 90.90816776 138.31793117 92.33203125 138.3203125 C93.07517578 138.32160156 93.81832031 138.32289063 94.58398438 138.32421875 C95.34001953 138.32035156 96.09605469 138.31648438 96.875 138.3125 C97.65037109 138.31636719 98.42574219 138.32023437 99.22460938 138.32421875 C102.94615052 138.67350448 102.94615052 138.67350448 106.0625 137.1875 C106.24849976 135.83826362 106.38592907 134.48221131 106.5 133.125 C106.79868815 130.13811845 107.23067712 127.54842695 108 124.625 C116.2784199 93.10568276 115.73455825 54.53995912 113.0625 22.1875 C112.4025 22.1875 111.7425 22.1875 111.0625 22.1875 C110.0725 19.7125 110.0725 19.7125 109.0625 17.1875 C98.58791929 16.41654513 88.12498095 15.88957718 77.625 15.625 C76.81565002 15.60415344 76.00630005 15.58330688 75.17242432 15.56182861 C54.8369452 15.06410877 34.49433256 15.07672389 14.15400314 15.06456375 C11.45244802 15.06251136 8.75089965 15.05875224 6.04934692 15.05465698 C1.71528182 15.0487138 -2.61874751 15.04871352 -6.9528141 15.05311775 C-8.56338797 15.05414495 -10.17396376 15.05362054 -11.78453636 15.05135918 C-30.17950579 14.52369572 -30.17950579 14.52369572 -47.9375 18.1875 Z " fill="#FDFDFE" transform="translate(134.9375,59.8125)"/>
<path d="M0 0 C1.47422361 0.00086861 1.47422361 0.00086861 2.97822952 0.00175476 C26.11529616 0.02821961 49.22438429 0.74429481 72.34539795 1.54693604 C77.77174363 1.73358423 83.19838449 1.9112449 88.625 2.08984375 C99.13310522 2.43691785 109.64087013 2.79327952 120.1484375 3.15625 C120.1484375 4.14625 120.1484375 5.13625 120.1484375 6.15625 C122.1284375 6.65125 122.1284375 6.65125 124.1484375 7.15625 C124.1484375 9.79625 124.1484375 12.43625 124.1484375 15.15625 C124.8084375 15.15625 125.4684375 15.15625 126.1484375 15.15625 C126.60768862 17.28105184 127.06578338 19.40610362 127.5234375 21.53125 C127.77867187 22.71460937 128.03390625 23.89796875 128.296875 25.1171875 C128.49966064 26.08615967 128.49966064 26.08615967 128.70654297 27.07470703 C129.01030593 28.50558164 129.32782223 29.93358383 129.65673828 31.35888672 C131.27347114 38.7028693 131.81032387 46.03623418 132.2734375 53.53125 C132.33647568 54.51936172 132.33647568 54.51936172 132.40078735 55.5274353 C133.1112105 66.74845614 133.49026815 77.91605401 133.1484375 89.15625 C133.12910156 89.85363281 133.10976563 90.55101562 133.08984375 91.26953125 C132.79557137 100.46121553 131.81462934 109.53664386 130.6484375 118.65625 C130.51783936 119.67887939 130.38724121 120.70150879 130.25268555 121.75512695 C130.12547119 122.70218506 129.99825684 123.64924316 129.8671875 124.625 C129.75310547 125.47513672 129.63902344 126.32527344 129.52148438 127.20117188 C129.1484375 129.15625 129.1484375 129.15625 128.1484375 130.15625 C127.68049631 132.7999687 127.24989228 135.4415807 126.8359375 138.09375 C125.72654788 144.8528746 124.15118003 150.95261441 121.1484375 157.15625 C120.4884375 157.15625 119.8284375 157.15625 119.1484375 157.15625 C119.1484375 158.14625 119.1484375 159.13625 119.1484375 160.15625 C117.1684375 159.82625 115.1884375 159.49625 113.1484375 159.15625 C113.4784375 153.87625 113.8084375 148.59625 114.1484375 143.15625 C114.8084375 143.15625 115.4684375 143.15625 116.1484375 143.15625 C116.0865625 142.125 116.0246875 141.09375 115.9609375 140.03125 C115.9609375 136.17902042 116.60244543 132.72018151 117.4609375 128.96875 C121.10610964 112.72959451 122.69958073 96.47144248 123.08544922 79.84765625 C123.12513081 78.15211435 123.17254451 76.45671874 123.23095703 74.76171875 C123.92131596 54.6501303 122.57179965 32.60652785 117.1484375 13.15625 C114.29540335 10.30321585 112.28759324 10.84256241 108.28613281 10.74560547 C107.21892927 10.71591942 107.21892927 10.71591942 106.13016605 10.68563366 C103.74576917 10.62196366 101.36130045 10.57255342 98.9765625 10.5234375 C97.28678227 10.48199953 95.59701897 10.43986581 93.90727234 10.39707947 C89.35054118 10.28484789 84.79361175 10.18618817 80.23649216 10.09119034 C77.40532801 10.03139553 74.57426022 9.9681793 71.74319458 9.90390015 C46.85820966 9.34172146 21.97747716 8.96758397 -2.9140625 8.96875 C-4.17319458 8.96784363 -5.43232666 8.96693726 -6.72961426 8.96600342 C-17.92307084 8.96692639 -29.10524144 9.00837591 -40.28515625 9.60546875 C-41.3684597 9.6632122 -41.3684597 9.6632122 -42.47364807 9.72212219 C-45.71836483 9.92412511 -48.71555782 10.32041674 -51.8515625 11.15625 C-54.18457183 11.19513349 -56.51866051 11.2011135 -58.8515625 11.15625 C-60.04388016 15.98886253 -60.15558574 20.80811091 -60.3515625 25.7578125 C-60.41213081 27.16921509 -60.41213081 27.16921509 -60.47392273 28.60913086 C-60.60399123 31.66634496 -60.72819631 34.72375859 -60.8515625 37.78125 C-60.93841548 39.89111915 -61.02541146 42.00098242 -61.11254883 44.11083984 C-61.24183867 47.2506581 -61.37045876 50.39049671 -61.49702454 53.53042603 C-61.72172416 59.09453134 -61.96502014 64.65682408 -62.23828125 70.21875 C-62.80175038 82.15725209 -62.7601507 93.90696989 -62.19042969 105.84521484 C-61.4985764 122.27787586 -62.2705088 138.72863655 -62.8515625 155.15625 C-62.1915625 154.82625 -61.5315625 154.49625 -60.8515625 154.15625 C-57.93593284 154.05638031 -55.04476745 154.01663998 -52.12890625 154.0234375 C-51.24371307 154.02211823 -50.3585199 154.02079895 -49.44650269 154.0194397 C-46.56065399 154.01751888 -43.67490136 154.02386241 -40.7890625 154.03125 C-39.32984879 154.03257935 -39.32984879 154.03257935 -37.84115601 154.03393555 C-22.82277087 154.05009454 -7.84981562 154.32712643 7.1484375 155.15625 C7.1484375 155.48625 7.1484375 155.81625 7.1484375 156.15625 C-2.7515625 156.65125 -2.7515625 156.65125 -12.8515625 157.15625 C-13.1815625 157.81625 -13.5115625 158.47625 -13.8515625 159.15625 C-12.95695312 159.14464844 -12.06234375 159.13304687 -11.140625 159.12109375 C-3.96976735 159.06757989 3.03355134 159.23820017 10.1484375 160.15625 C10.1484375 160.81625 10.1484375 161.47625 10.1484375 162.15625 C1.88513797 164.23508112 -5.79510446 164.13369726 -14.21759033 163.4520874 C-27.64350571 162.37726152 -41.01003716 161.96392435 -54.4765625 162.03125 C-55.25443115 162.0349762 -56.0322998 162.03870239 -56.83374023 162.0425415 C-61.17320229 162.06640878 -65.51232802 162.10473397 -69.8515625 162.15625 C-69.96113281 161.51816406 -70.07070312 160.88007813 -70.18359375 160.22265625 C-70.42142578 158.98322266 -70.42142578 158.98322266 -70.6640625 157.71875 C-70.81488281 156.89503906 -70.96570313 156.07132813 -71.12109375 155.22265625 C-71.36214844 154.54074219 -71.60320312 153.85882813 -71.8515625 153.15625 C-72.8415625 152.82625 -73.8315625 152.49625 -74.8515625 152.15625 C-74.81901042 150.10546875 -74.78645833 148.0546875 -74.75390625 146.00390625 C-74.64595066 144.13892859 -74.64595066 144.13892859 -75.8515625 143.15625 C-76.12138268 140.52400425 -76.32665589 137.92100741 -76.4765625 135.28125 C-76.52159912 134.51127686 -76.56663574 133.74130371 -76.61303711 132.94799805 C-76.87730472 127.69396244 -76.7313622 122.63732186 -76.109375 117.40625 C-75.79329534 114.64773658 -75.77660319 111.92974463 -75.8515625 109.15625 C-75.1915625 109.15625 -74.5315625 109.15625 -73.8515625 109.15625 C-73.8515625 108.16625 -73.8515625 107.17625 -73.8515625 106.15625 C-74.5115625 105.82625 -75.1715625 105.49625 -75.8515625 105.15625 C-75.92607596 101.5796037 -75.87178261 98.30077403 -75.375 94.75 C-74.59316752 88.74419934 -74.56868971 82.70402318 -74.4140625 76.65625 C-74.09785691 66.07289482 -73.67121545 55.50262388 -73.0385437 44.93310547 C-72.9564671 43.55549032 -72.87692061 42.17772177 -72.80007935 40.79980469 C-72.42147403 34.07562618 -71.93168119 27.62003595 -70.28637695 21.08081055 C-69.38280952 17.08147192 -69.44097794 12.96109507 -69.29296875 8.87890625 C-69.14730469 7.98042969 -69.00164062 7.08195312 -68.8515625 6.15625 C-65.49091172 3.91581615 -63.74696072 3.73357053 -59.77734375 3.33984375 C-58.55080078 3.21544922 -57.32425781 3.09105469 -56.06054688 2.96289062 C-54.13178711 2.78016602 -54.13178711 2.78016602 -52.1640625 2.59375 C-50.31071289 2.40522461 -50.31071289 2.40522461 -48.41992188 2.21289062 C-32.25641131 0.61246008 -16.23525454 -0.02996562 0 0 Z " fill="#C0D7EA" transform="translate(137.8515625,51.84375)"/>
<path d="M0 0 C1.66192142 -0.00105995 3.32384265 -0.00244631 4.98576355 -0.00413513 C9.37335216 -0.00690376 13.76090362 -0.00261133 18.14848709 0.00403976 C20.86322322 0.00782878 23.57795587 0.00988216 26.29269409 0.01150513 C46.54350413 0.02582658 66.79370494 0.04884957 87.0390625 0.5703125 C87.81521912 0.58987 88.59137573 0.60942749 89.39105225 0.62957764 C99.10563421 0.88609174 108.78580377 1.41954885 118.4765625 2.1328125 C119.4665625 4.6078125 119.4665625 4.6078125 120.4765625 7.1328125 C121.1365625 7.1328125 121.7965625 7.1328125 122.4765625 7.1328125 C127.53069564 91.02454622 127.53069564 91.02454622 116.4765625 113.1328125 C116.16864381 115.46358593 115.96760976 117.79523146 115.7578125 120.13671875 C115.4765625 122.1328125 115.4765625 122.1328125 114.4765625 123.1328125 C111.73713676 123.23372309 109.02830022 123.27147453 106.2890625 123.2578125 C105.53302734 123.26167969 104.77699219 123.26554687 103.99804688 123.26953125 C103.25490234 123.26824219 102.51175781 123.26695312 101.74609375 123.265625 C100.73446167 123.26393311 100.73446167 123.26393311 99.70239258 123.26220703 C97.4765625 123.1328125 97.4765625 123.1328125 94.69295216 122.63419342 C91.66442847 122.16209764 88.84936915 121.99776898 85.78849792 121.98132324 C84.67944092 121.97297958 83.57038391 121.96463593 82.42771912 121.95603943 C81.22591507 121.95185501 80.02411102 121.94767059 78.78588867 121.94335938 C76.82585892 121.9306301 74.86582918 121.91790051 72.90579951 121.905159 C70.80789883 121.89244869 68.70999836 121.8821112 66.61208153 121.87245178 C62.23844541 121.85217559 57.86487467 121.82453473 53.49128723 121.79577637 C43.42522139 121.73069895 33.35910758 121.67507827 23.29298401 121.61978912 C14.05194331 121.56896777 4.81092666 121.51615813 -4.43005389 121.45526361 C-8.78181415 121.42686924 -13.13356635 121.40329143 -17.48537314 121.38333893 C-19.53580704 121.37319787 -21.58621231 121.36081331 -23.6366272 121.34739685 C-26.14180859 121.33101473 -28.64701692 121.31823535 -31.15223694 121.30958557 C-32.24719482 121.30124191 -33.34215271 121.29289825 -34.47029114 121.28430176 C-35.42761548 121.27914803 -36.38493982 121.27399429 -37.37127399 121.26868439 C-39.5234375 121.1328125 -39.5234375 121.1328125 -40.5234375 120.1328125 C-40.62683408 117.75621174 -40.66413633 115.41578224 -40.6484375 113.0390625 C-40.64577881 112.31642212 -40.64312012 111.59378174 -40.64038086 110.84924316 C-40.58855007 104.81948477 -40.23326541 98.83025279 -39.81201172 92.81518555 C-38.41241988 72.82326819 -38.35151615 52.84993394 -38.3984375 32.8203125 C-38.40014954 32.08561737 -38.40186157 31.35092224 -38.40362549 30.59396362 C-38.42654812 21.44015059 -38.46694561 12.28648413 -38.5234375 3.1328125 C-26.65995656 -1.29461458 -12.53211911 -0.01759604 0 0 Z M-29.5234375 7.1328125 C-29.69053381 8.69843383 -29.85455742 10.26438325 -30.01733398 11.83045959 C-30.10901352 12.70246034 -30.20069305 13.57446108 -30.29515076 14.47288609 C-30.6539153 18.65309937 -30.62720632 22.81158207 -30.5859375 27.00390625 C-30.5773863 28.88419557 -30.56892615 30.7644853 -30.56054688 32.64477539 C-30.55434326 33.6133548 -30.54813965 34.5819342 -30.54174805 35.5798645 C-30.44351507 51.62311007 -30.54254236 67.60853434 -31.3046875 83.63671875 C-31.53857961 88.57060187 -31.52689324 93.48352626 -31.44335938 98.42163086 C-31.5234375 101.1328125 -31.5234375 101.1328125 -32.02539062 103.35766602 C-32.51643502 106.09379427 -32.57246014 108.53158736 -32.55456543 111.30625916 C-32.55007133 112.20934279 -32.54557724 113.11242643 -32.54094696 114.04287624 C-32.53516884 114.73255521 -32.52939072 115.42223417 -32.5234375 116.1328125 C-31.86044962 116.13189071 -31.19746174 116.13096891 -30.51438332 116.13001919 C-14.39910034 116.10795638 1.71617786 116.09139724 17.8314724 116.08100033 C25.62463294 116.07583912 33.41778342 116.06879973 41.2109375 116.05737305 C48.00166983 116.04742089 54.79239487 116.0409578 61.58313429 116.03872401 C65.18037482 116.03741781 68.77759448 116.03433766 72.37482834 116.02708244 C76.38580001 116.01905802 80.39673518 116.01882171 84.40771484 116.01928711 C85.60676956 116.01569183 86.80582428 116.01209656 88.04121399 116.00839233 C89.67347679 116.01045433 89.67347679 116.01045433 91.3387146 116.01255798 C92.76288476 116.01117529 92.76288476 116.01117529 94.21582603 116.00976467 C96.4765625 116.1328125 96.4765625 116.1328125 98.4765625 117.1328125 C100.35035855 117.20315019 102.22657352 117.2171147 104.1015625 117.1953125 C105.10445312 117.18628906 106.10734375 117.17726563 107.140625 117.16796875 C107.91148437 117.15636719 108.68234375 117.14476562 109.4765625 117.1328125 C109.55696777 116.3078125 109.63737305 115.4828125 109.72021484 114.6328125 C113.85221286 72.38151177 113.85221286 72.38151177 115.4765625 69.1328125 C115.7182211 66.62672336 115.90274161 64.14509168 116.0390625 61.6328125 C116.081521 60.88974854 116.12397949 60.14668457 116.16772461 59.38110352 C116.60441867 50.96617584 116.56522801 42.55603609 116.4765625 34.1328125 C115.8165625 34.1328125 115.1565625 34.1328125 114.4765625 34.1328125 C114.72019531 33.19308594 114.72019531 33.19308594 114.96875 32.234375 C115.6653619 27.97968384 115.62112401 23.81134512 115.6015625 19.5078125 C115.60542969 18.64929688 115.60929688 17.79078125 115.61328125 16.90625 C115.61199219 16.08125 115.61070312 15.25625 115.609375 14.40625 C115.60768311 13.28355713 115.60768311 13.28355713 115.60595703 12.13818359 C115.54853807 9.92459632 115.54853807 9.92459632 114.4765625 7.1328125 C112.08824492 5.93865371 110.62848858 6.00704209 107.96250916 6.00582886 C107.0114328 6.00300903 106.06035645 6.00018921 105.08045959 5.99728394 C104.03288986 5.99930817 102.98532013 6.0013324 101.90600586 6.00341797 C100.80470337 6.00166565 99.70340088 5.99991333 98.56872559 5.99810791 C94.90127007 5.99368325 91.23386233 5.99663415 87.56640625 6 C85.00598644 5.99932603 82.44556669 5.99835523 79.88514709 5.99710083 C74.49381855 5.99562214 69.10250787 5.997684 63.71118164 6.00244141 C57.54501374 6.00782099 51.37887924 6.00616886 45.21271223 6.000615 C39.23377409 5.99545142 33.25485174 5.99610017 27.27591133 5.99899673 C24.75947629 5.99965514 22.24304039 5.99887647 19.72660637 5.99651718 C3.28530738 5.9845105 -13.10072061 6.33712002 -29.5234375 7.1328125 Z " fill="#C7DBEC" transform="translate(125.5234375,74.8671875)"/>
<path d="M0 0 C3.96 0 7.92 0 12 0 C12.66 1.65 13.32 3.3 14 5 C16.12948306 9.05615822 18.74427472 11.80048868 22 15 C22.84820312 15.85980469 23.69640625 16.71960938 24.5703125 17.60546875 C25.83488281 18.88357422 25.83488281 18.88357422 27.125 20.1875 C27.97320312 21.04730469 28.82140625 21.90710938 29.6953125 22.79296875 C31.99149995 25.12061421 31.99149995 25.12061421 35 27 C35 28.32 35 29.64 35 31 C27.61045342 31.02329471 20.22091491 31.04100164 12.83133888 31.05181217 C9.39910194 31.05700384 5.96689033 31.06403297 2.53466797 31.07543945 C-1.42219731 31.0885054 -5.37905275 31.09325891 -9.3359375 31.09765625 C-11.16153702 31.10539818 -11.16153702 31.10539818 -13.02401733 31.11329651 C-19.7479236 31.11373415 -26.32661548 30.84170372 -33 30 C-30.98449384 25.43859132 -28.76882051 22.28563839 -25 19 C-24.34 19 -23.68 19 -23 19 C-22.67 18.01 -22.34 17.02 -22 16 C-20.44140625 14.61328125 -20.44140625 14.61328125 -18.5625 13.3125 C-17.63630859 12.65701172 -17.63630859 12.65701172 -16.69140625 11.98828125 C-15 11 -15 11 -13 11 C-13 10.34 -13 9.68 -13 9 C-11.35546875 7.7109375 -11.35546875 7.7109375 -9.1875 6.375 C-8.47980469 5.92898437 -7.77210938 5.48296875 -7.04296875 5.0234375 C-5 4 -5 4 -2 4 C-1.34 2.68 -0.68 1.36 0 0 Z " fill="#FCFDFE" transform="translate(157,213)"/>
<path d="M0 0 C1.21236328 0.01353516 1.21236328 0.01353516 2.44921875 0.02734375 C3.37154297 0.04474609 3.37154297 0.04474609 4.3125 0.0625 C4.88151242 6.32163664 3.81811864 9.67743997 0.55078125 15.015625 C-0.81692951 17.27644657 -1.72114097 19.60943476 -2.6875 22.0625 C-3.3475 22.7225 -4.0075 23.3825 -4.6875 24.0625 C-5.6775 24.0625 -6.6675 24.0625 -7.6875 24.0625 C-8.0175 25.0525 -8.3475 26.0425 -8.6875 27.0625 C-9.3475 27.0625 -10.0075 27.0625 -10.6875 27.0625 C-10.6875 28.0525 -10.6875 29.0425 -10.6875 30.0625 C-15.57667025 29.96272102 -17.86481415 29.29619116 -21.3125 25.75 C-21.89128906 25.11449219 -22.47007812 24.47898438 -23.06640625 23.82421875 C-24.73979713 21.90933306 -24.73979713 21.90933306 -27.25 20.0625 C-35.43865207 13.34360599 -35.43865207 13.34360599 -36.0625 7.625 C-35.93875 6.779375 -35.815 5.93375 -35.6875 5.0625 C-32.56406536 3.20127525 -30.6491974 2.8771808 -27.0625 3.375 C-26.28648437 3.47425781 -25.51046875 3.57351562 -24.7109375 3.67578125 C-22.6875 4.0625 -22.6875 4.0625 -20.6875 5.0625 C-20.6875 6.0525 -20.6875 7.0425 -20.6875 8.0625 C-20.0275 8.0625 -19.3675 8.0625 -18.6875 8.0625 C-18.6875 8.7225 -18.6875 9.3825 -18.6875 10.0625 C-16.3775 9.4025 -14.0675 8.7425 -11.6875 8.0625 C-11.584375 7.464375 -11.48125 6.86625 -11.375 6.25 C-10.58113064 3.72405205 -9.73177591 2.71364593 -7.6875 1.0625 C-4.80538698 0.10179566 -2.98899956 -0.04331883 0 0 Z " fill="#BCD4E8" transform="translate(179.6875,116.9375)"/>
<path d="M0 0 C8.45231308 -0.11451059 16.76379199 0.32791979 25.1875 1 C26.42564453 1.09539062 27.66378906 1.19078125 28.93945312 1.2890625 C31.95994678 1.52230525 34.98008869 1.75935432 38 2 C38.495 6.95 38.495 6.95 39 12 C25.59104774 12.39245714 12.34735771 11.18174234 -1 10 C-0.67 6.7 -0.34 3.4 0 0 Z " fill="#FCFDFE" transform="translate(120,308)"/>
<path d="M0 0 C8.58 0 17.16 0 26 0 C24.86363636 11.36363636 24.86363636 11.36363636 21 15 C17.842224 17.105184 17.04602866 17.25289344 13.4375 17.1875 C12.65246094 17.18105469 11.86742187 17.17460937 11.05859375 17.16796875 C9 17 9 17 7 16 C7 15.34 7 14.68 7 14 C5.35 14 3.7 14 2 14 C2 13.34 2 12.68 2 12 C1.34 12 0.68 12 0 12 C0 8.04 0 4.08 0 0 Z " fill="#FAFCFD" transform="translate(247,295)"/>
<path d="M0 0 C1.18613892 0.00785522 1.18613892 0.00785522 2.39624023 0.01586914 C3.67724609 0.02070313 3.67724609 0.02070313 4.98413086 0.02563477 C5.88196289 0.03401367 6.77979492 0.04239258 7.70483398 0.05102539 C8.6065332 0.05553711 9.50823242 0.06004883 10.43725586 0.06469727 C12.67230988 0.07652295 14.90733 0.09445901 17.14233398 0.11352539 C17.14233398 4.73352539 17.14233398 9.35352539 17.14233398 14.11352539 C10.54233398 14.11352539 3.94233398 14.11352539 -2.85766602 14.11352539 C-2.95532227 4.05493164 -2.95532227 4.05493164 -2.85766602 1.11352539 C-1.85766602 0.11352539 -1.85766602 0.11352539 0 0 Z " fill="#FDFEFE" transform="translate(170.857666015625,271.886474609375)"/>
<path d="M0 0 C5.94 0 11.88 0 18 0 C18 4.95 18 9.9 18 15 C12.39 15 6.78 15 1 15 C-0.28579416 9.85682338 -0.06311236 5.30143797 0 0 Z " fill="#FDFEFE" transform="translate(118,272)"/>
<path d="M0 0 C0 4.95 0 9.9 0 15 C-2.64590014 15.02684679 -5.29153096 15.04676357 -7.9375 15.0625 C-9.06961914 15.07506836 -9.06961914 15.07506836 -10.22460938 15.08789062 C-12.14994313 15.09652441 -14.07535581 15.05224333 -16 15 C-17 14 -17 14 -17.09765625 11.05859375 C-17.08605469 9.86363281 -17.07445312 8.66867187 -17.0625 7.4375 C-17.05347656 6.23996094 -17.04445312 5.04242188 -17.03515625 3.80859375 C-17.02355469 2.88175781 -17.01195312 1.95492188 -17 1 C-15.47968196 0.82869656 -13.9587061 0.66322927 -12.4375 0.5 C-11.16712891 0.36078125 -11.16712891 0.36078125 -9.87109375 0.21875 C-6.58943254 -0.03128133 -3.29117243 0 0 0 Z " fill="#FDFDFE" transform="translate(214,272)"/>
<path d="M0 0 C6.6 0 13.2 0 20 0 C20 3.96 20 7.92 20 12 C13.4 12 6.8 12 0 12 C0 8.04 0 4.08 0 0 Z " fill="#FCFDFE" transform="translate(168,292)"/>
<path d="M0 0 C5.28 0 10.56 0 16 0 C16 4.95 16 9.9 16 15 C10.72 15 5.44 15 0 15 C0 10.05 0 5.1 0 0 Z " fill="#F9FBFD" transform="translate(96,272)"/>
<path d="M0 0 C5.94 0 11.88 0 18 0 C18 4.29 18 8.58 18 13 C12.06 13 6.12 13 0 13 C0 8.71 0 4.42 0 0 Z " fill="#FAFCFD" transform="translate(197,292)"/>
<path d="M0 0 C5.28 0 10.56 0 16 0 C16.09765625 10.05859375 16.09765625 10.05859375 16 13 C15 14 15 14 11.40234375 14.09765625 C9.91403133 14.0909822 8.42573568 14.07902183 6.9375 14.0625 C5.79958008 14.05573242 5.79958008 14.05573242 4.63867188 14.04882812 C2.75908129 14.0370068 0.87953101 14.01907078 -1 14 C-0.67 9.38 -0.34 4.76 0 0 Z " fill="#FBFCFD" transform="translate(144,272)"/>
<path d="M0 0 C6.93 0 13.86 0 21 0 C22 3 22 3 22 10 C14.41 10 6.82 10 -1 10 C-0.67 6.7 -0.34 3.4 0 0 Z " fill="#FCFDFE" transform="translate(167,310)"/>
<path d="M0 0 C1.48831242 0.00667405 2.97660807 0.01863442 4.46484375 0.03515625 C5.22345703 0.03966797 5.98207031 0.04417969 6.76367188 0.04882812 C8.64326246 0.06064945 10.52281274 0.07858547 12.40234375 0.09765625 C12.07234375 4.38765625 11.74234375 8.67765625 11.40234375 13.09765625 C5.46234375 13.09765625 -0.47765625 13.09765625 -6.59765625 13.09765625 C-4.54910253 0.1234827 -4.54910253 0.1234827 0 0 Z " fill="#FAFCFD" transform="translate(147.59765625,290.90234375)"/>
<path d="M0 0 C4.95 0 9.9 0 15 0 C15 4.95 15 9.9 15 15 C12.710625 14.855625 10.42125 14.71125 8.0625 14.5625 C6.13083984 14.44068359 6.13083984 14.44068359 4.16015625 14.31640625 C1 14 1 14 0 13 C-0.14393457 8.66469082 -0.04212061 4.33842269 0 0 Z " fill="#FCFDFE" transform="translate(73,272)"/>
<path d="M0 0 C6.27 0 12.54 0 19 0 C19.33 2.97 19.66 5.94 20 9 C17.64655194 9.33923576 15.2924516 9.67150534 12.9375 10 C12.28072266 10.09539062 11.62394531 10.19078125 10.94726562 10.2890625 C6.59861237 10.88887674 2.38670929 11.09127093 -2 11 C-1.34 7.37 -0.68 3.74 0 0 Z " fill="#FAFBFD" transform="translate(196,310)"/>
<path d="M0 0 C4.95 0 9.9 0 15 0 C17 5 17 5 17 12 C11.39 12 5.78 12 0 12 C0 8.04 0 4.08 0 0 Z " fill="#F7FAFC" transform="translate(120,291)"/>
<path d="M0 0 C0.66 0 1.32 0 2 0 C2.08040527 0.7206665 2.16081055 1.44133301 2.24365234 2.18383789 C2.61463675 5.47744906 2.99473853 8.76994754 3.375 12.0625 C3.50132813 13.19623047 3.62765625 14.32996094 3.7578125 15.49804688 C4.42408461 21.21133019 5.27187037 26.51765774 7 32 C7.125 34.9375 7.125 34.9375 7 37 C6.34 37 5.68 37 5 37 C5.185625 37.556875 5.37125 38.11375 5.5625 38.6875 C6.07551165 41.399133 5.6640724 43.34371039 5 46 C4.67 45.34 4.34 44.68 4 44 C3.01 43.67 2.02 43.34 1 43 C1.03255208 40.94921875 1.06510417 38.8984375 1.09765625 36.84765625 C1.20561184 34.98267859 1.20561184 34.98267859 0 34 C-0.26982018 31.36775425 -0.47509339 28.76475741 -0.625 26.125 C-0.67003662 25.35502686 -0.71507324 24.58505371 -0.76147461 23.79174805 C-1.02574222 18.53771244 -0.8797997 13.48107186 -0.2578125 8.25 C0.05826716 5.49148658 0.07495931 2.77349463 0 0 Z " fill="#FDFEFE" transform="translate(62,161)"/>
<path d="M0 0 C4.62 0 9.24 0 14 0 C15.20272819 2.40545638 15.10071472 3.94996953 15.0625 6.625 C15.05347656 7.44226563 15.04445313 8.25953125 15.03515625 9.1015625 C15.02355469 9.72804688 15.01195313 10.35453125 15 11 C9 10.33333333 3 9.66666667 -3 9 C-2.41321669 5.47930015 -1.64350079 3.28700157 0 0 Z " fill="#F5F8FB" transform="translate(97,307)"/>
<path d="M0 0 C5.28 0 10.56 0 16 0 C16.09765625 6.93359375 16.09765625 6.93359375 16 9 C15 10 15 10 11.62109375 10.09765625 C10.22652923 10.09098369 8.83198257 10.07902532 7.4375 10.0625 C6.37112305 10.05573242 6.37112305 10.05573242 5.28320312 10.04882812 C3.52209987 10.03700864 1.76103964 10.01907263 0 10 C0 6.7 0 3.4 0 0 Z " fill="#F9FBFD" transform="translate(73,292)"/>
<path d="M0 0 C4.95 0 9.9 0 15 0 C15.33 3.3 15.66 6.6 16 10 C10.72 10 5.44 10 0 10 C0 6.7 0 3.4 0 0 Z " fill="#F9FBFD" transform="translate(96,292)"/>
<path d="M0 0 C5.28 0 10.56 0 16 0 C16.33 2.97 16.66 5.94 17 9 C11.39 8.34 5.78 7.68 0 7 C0 4.69 0 2.38 0 0 Z " fill="#F3F7FB" transform="translate(72,307)"/>
<path d="M0 0 C1.8125 0.125 1.8125 0.125 4 1 C5.625 3.875 5.625 3.875 7 7 C7.99 8.485 7.99 8.485 9 10 C9 11.65 9 13.3 9 15 C5.7 15 2.4 15 -1 15 C-1.02693575 12.87506859 -1.04636628 10.75004088 -1.0625 8.625 C-1.07410156 7.44164062 -1.08570313 6.25828125 -1.09765625 5.0390625 C-1 2 -1 2 0 0 Z " fill="#F4F8FB" transform="translate(263,276)"/>
<path d="M0 0 C0.66 0.33 1.32 0.66 2 1 C1.67 1.66 1.34 2.32 1 3 C8.53282621 3.99051201 15.97398946 4.21258908 23.56640625 4.31640625 C24.84104233 4.33718735 26.11567841 4.35796844 27.42893982 4.37937927 C30.78745451 4.43337874 34.1459821 4.4837183 37.50457764 4.53222656 C40.94385634 4.58282069 44.38305591 4.63830709 47.82226562 4.69335938 C54.5481137 4.80004091 61.2740217 4.90189135 68 5 C68.33 4.34 68.66 3.68 69 3 C69.99 4.485 69.99 4.485 71 6 C65.9362082 6.14586576 60.87232958 6.28806594 55.80834961 6.42724609 C54.09510701 6.47480513 52.38188924 6.52326956 50.66870117 6.57275391 C15.45098863 7.58755421 15.45098863 7.58755421 3.8125 6 C2.65331055 5.85691406 2.65331055 5.85691406 1.47070312 5.7109375 C-0.35417188 5.48424495 -2.17734395 5.24389185 -4 5 C-3 2 -3 2 0 0 Z " fill="#D2E2F0" transform="translate(124,239)"/>
<path d="M0 0 C9.57 0 19.14 0 29 0 C29 4.29 29 8.58 29 13 C26.45069506 14.27465247 25.03650962 13.94952207 22.2109375 13.66015625 C21.26992187 13.56669922 20.32890625 13.47324219 19.359375 13.37695312 C18.37453125 13.27318359 17.3896875 13.16941406 16.375 13.0625 C15.38242188 12.96259766 14.38984375 12.86269531 13.3671875 12.75976562 C10.91087319 12.51177235 8.45524863 12.25829747 6 12 C6 11.67 6 11.34 6 11 C13.26 11.33 20.52 11.66 28 12 C27.67 11.01 27.34 10.02 27 9 C26.96045766 6.66700175 26.95598268 4.33291811 27 2 C25.97261719 2.01160156 24.94523437 2.02320313 23.88671875 2.03515625 C15.86178243 2.09724473 7.98327158 1.94716781 0 1 C0 0.67 0 0.34 0 0 Z " fill="#D7E5F1" transform="translate(131,308)"/>
<path d="M0 0 C0.66 0 1.32 0 2 0 C2 4.62 2 9.24 2 14 C-0.64 14 -3.28 14 -6 14 C-5.67 11.03 -5.34 8.06 -5 5 C-4.34 5 -3.68 5 -3 5 C-2.5359375 4.0409375 -2.5359375 4.0409375 -2.0625 3.0625 C-1 1 -1 1 0 0 Z " fill="#F9FBFD" transform="translate(254,277)"/>
<path d="M0 0 C5.94 0 11.88 0 18 0 C18 4.95 18 9.9 18 15 C12.39 15 6.78 15 1 15 C-0.28579416 9.85682338 -0.06311236 5.30143797 0 0 Z M2 2 C2 5.96 2 9.92 2 14 C6.95 14 11.9 14 17 14 C17 9.71 17 5.42 17 1 C15.2675 0.979375 13.535 0.95875 11.75 0.9375 C10.77546875 0.92589844 9.8009375 0.91429687 8.796875 0.90234375 C5.7657377 0.91085339 5.7657377 0.91085339 2 2 Z " fill="#DEEAF4" transform="translate(118,272)"/>
<path d="M0 0 C1.19629028 0.00193359 1.19629028 0.00193359 2.41674805 0.00390625 C3.67805542 0.02324219 3.67805542 0.02324219 4.96484375 0.04296875 C5.81796143 0.04941406 6.6710791 0.05585938 7.55004883 0.0625 C13.38589902 0.13364857 19.11154937 0.47102031 24.90234375 1.23046875 C20.06110283 3.92004704 15.85560085 4.41038702 10.3828125 3.890625 C8.85043945 3.75043945 8.85043945 3.75043945 7.28710938 3.60742188 C6.23201172 3.50365234 5.17691406 3.39988281 4.08984375 3.29296875 C2.47819336 3.14311523 2.47819336 3.14311523 0.83398438 2.99023438 C-1.81057169 2.74340914 -4.45431637 2.48994354 -7.09765625 2.23046875 C-4.03813235 0.19078615 -3.43949775 -0.01972056 0 0 Z " fill="#EBF2F9" transform="translate(121.09765625,211.76953125)"/>
<path d="M0 0 C4.95 0 9.9 0 15 0 C15.33 0.99 15.66 1.98 16 3 C12.00204108 3.95619733 8.29196078 4.1039592 4.1875 4.0625 C3.02605469 4.05347656 1.86460938 4.04445312 0.66796875 4.03515625 C-0.21246094 4.02355469 -1.09289062 4.01195312 -2 4 C-1.34 2.68 -0.68 1.36 0 0 Z " fill="#DBE7F4" transform="translate(80,210)"/>
<path d="M0 0 C0.66 0 1.32 0 2 0 C2 6.27 2 12.54 2 19 C1.01 19.33 0.02 19.66 -1 20 C-1.18451025 6.3667426 -1.18451025 6.3667426 0 0 Z " fill="#CADDED" transform="translate(64,274)"/>
<path d="M0 0 C3.14330223 0.3492558 4.79491452 0.83925733 7.3125 2.8125 C9 5 9 5 9 9 C7.0625 8.6875 7.0625 8.6875 5 8 C4.67 7.01 4.34 6.02 4 5 C3.34 5 2.68 5 2 5 C1.34 3.35 0.68 1.7 0 0 Z " fill="#E4EFF6" transform="translate(177,215)"/>
<path d="M0 0 C0.66 0.33 1.32 0.66 2 1 C0.8125 2.9375 0.8125 2.9375 -1 5 C-1.845625 5.165 -2.69125 5.33 -3.5625 5.5 C-4.366875 5.665 -5.17125 5.83 -6 6 C-6.70394612 7.31403276 -7.36345658 8.6520257 -8 10 C-9.90767394 11.80997635 -11.92499474 13.37608284 -14 15 C-14.66 14.67 -15.32 14.34 -16 14 C-15.195625 13.38125 -14.39125 12.7625 -13.5625 12.125 C-10.96125481 10.25835959 -10.96125481 10.25835959 -10 8 C-9.34 8 -8.68 8 -8 8 C-7.67 7.01 -7.34 6.02 -7 5 C-5.37109375 3.61328125 -5.37109375 3.61328125 -3.4375 2.3125 C-2.79683594 1.87550781 -2.15617188 1.43851563 -1.49609375 0.98828125 C-1.00238281 0.66214844 -0.50867188 0.33601562 0 0 Z " fill="#E2EDF5" transform="translate(142,224)"/>
<path d="M0 0 C1.21236328 0.01353516 1.21236328 0.01353516 2.44921875 0.02734375 C3.37154297 0.04474609 3.37154297 0.04474609 4.3125 0.0625 C3.9825 1.0525 3.6525 2.0425 3.3125 3.0625 C2.3225 2.7325 1.3325 2.4025 0.3125 2.0625 C-2.21826813 2.37510159 -2.21826813 2.37510159 -4.875 3 C-5.77605469 3.19464844 -6.67710937 3.38929687 -7.60546875 3.58984375 C-8.29253906 3.74582031 -8.97960937 3.90179688 -9.6875 4.0625 C-6.9209694 -0.0872959 -4.6801992 -0.06782897 0 0 Z " fill="#D2E3F0" transform="translate(179.6875,116.9375)"/>
<path d="M0 0 C0 1.98 0 3.96 0 6 C-0.66 6 -1.32 6 -2 6 C-2.33 7.32 -2.66 8.64 -3 10 C-3.33 10 -3.66 10 -4 10 C-4.29296875 3.9453125 -4.29296875 3.9453125 -4 2 C-1 0 -1 0 0 0 Z " fill="#EDF4F9" transform="translate(73,56)"/>
<path d="M0 0 C0.66 0.33 1.32 0.66 2 1 C1.67 1.66 1.34 2.32 1 3 C3.97 3.33 6.94 3.66 10 4 C10 4.33 10 4.66 10 5 C5.38 5 0.76 5 -4 5 C-3 2 -3 2 0 0 Z " fill="#E0EBF4" transform="translate(124,239)"/>
<path d="M0 0 C0.66 0 1.32 0 2 0 C2 2.64 2 5.28 2 8 C1.34 6.68 0.68 5.36 0 4 C-3.12197478 5.3089572 -3.12197478 5.3089572 -5 8 C-5 7.01 -5 6.02 -5 5 C-4.34 5 -3.68 5 -3 5 C-2.5359375 4.0409375 -2.5359375 4.0409375 -2.0625 3.0625 C-1 1 -1 1 0 0 Z " fill="#E4EEF6" transform="translate(254,277)"/>
<path d="M0 0 C0.99 0.33 1.98 0.66 3 1 C3 3.31 3 5.62 3 8 C2.01 8 1.02 8 0 8 C0 5.36 0 2.72 0 0 Z " fill="#E7F0F6" transform="translate(63,132)"/>
<path d="M0 0 C2.875 -0.125 2.875 -0.125 6 0 C6.66 0.66 7.32 1.32 8 2 C7.67 2.66 7.34 3.32 7 4 C4.03 3.505 4.03 3.505 1 3 C0.67 2.01 0.34 1.02 0 0 Z " fill="#D3E2F0" transform="translate(139,248)"/>
<path d="M0 0 C2 3 2 3 1.7578125 5.48046875 C1.54898438 6.37378906 1.34015625 7.26710938 1.125 8.1875 C0.92132813 9.08855469 0.71765625 9.98960937 0.5078125 10.91796875 C0.34023437 11.60503906 0.17265625 12.29210937 0 13 C-0.33 13 -0.66 13 -1 13 C-1.0272415 11.58344207 -1.04650467 10.16672955 -1.0625 8.75 C-1.07410156 7.96109375 -1.08570313 7.1721875 -1.09765625 6.359375 C-1.00385306 4.09308998 -0.63241063 2.1711105 0 0 Z " fill="#CCDFEE" transform="translate(160,291)"/>
<path d="M0 0 C0.66 0 1.32 0 2 0 C2.33 2.64 2.66 5.28 3 8 C2.01 8.33 1.02 8.66 0 9 C0 6.03 0 3.06 0 0 Z " fill="#D2E3F0" transform="translate(63,285)"/>
</svg>
